<?xml version="1.0" encoding="utf-8" standalone="no"?>
<!DOCTYPE svg PUBLIC "-//W3C//DTD SVG 1.1//EN"
  "http://www.w3.org/Graphics/SVG/1.1/DTD/svg11.dtd">
<!-- Created with matplotlib (https://matplotlib.org/) -->
<svg height="290.76075pt" version="1.1" viewBox="0 0 870.33 290.76075" width="870.33pt" xmlns="http://www.w3.org/2000/svg" xmlns:xlink="http://www.w3.org/1999/xlink">
 <defs>
  <style type="text/css">
*{stroke-linecap:butt;stroke-linejoin:round;}
  </style>
 </defs>
 <g id="figure_1">
  <g id="patch_1">
   <path d="M 0 290.76075 
L 870.33 290.76075 
L 870.33 0 
L 0 0 
z
" style="fill:#ffffff;"/>
  </g>
  <g id="axes_1">
   <g id="patch_2">
    <path d="M 66.66 241.59075 
L 847.86 241.59075 
L 847.86 13.27875 
L 66.66 13.27875 
z
" style="fill:#ffffff;"/>
   </g>
   <g id="matplotlib.axis_1">
    <g id="xtick_1">
     <g id="line2d_1">
      <defs>
       <path d="M 0 0 
L 0 3.5 
" id="m8942f873bf" style="stroke:#000000;stroke-width:0.8;"/>
      </defs>
      <g>
       <use style="stroke:#000000;stroke-width:0.8;" x="66.66" xlink:href="#m8942f873bf" y="241.59075"/>
      </g>
     </g>
     <g id="text_1">
      <!-- 0 -->
      <defs>
       <path d="M 31.78125 66.40625 
Q 24.171875 66.40625 20.328125 58.90625 
Q 16.5 51.421875 16.5 36.375 
Q 16.5 21.390625 20.328125 13.890625 
Q 24.171875 6.390625 31.78125 6.390625 
Q 39.453125 6.390625 43.28125 13.890625 
Q 47.125 21.390625 47.125 36.375 
Q 47.125 51.421875 43.28125 58.90625 
Q 39.453125 66.40625 31.78125 66.40625 
z
M 31.78125 74.21875 
Q 44.046875 74.21875 50.515625 64.515625 
Q 56.984375 54.828125 56.984375 36.375 
Q 56.984375 17.96875 50.515625 8.265625 
Q 44.046875 -1.421875 31.78125 -1.421875 
Q 19.53125 -1.421875 13.0625 8.265625 
Q 6.59375 17.96875 6.59375 36.375 
Q 6.59375 54.828125 13.0625 64.515625 
Q 19.53125 74.21875 31.78125 74.21875 
z
" id="DejaVuSans-48"/>
      </defs>
      <g transform="translate(61.57 260.74825)scale(0.16 -0.16)">
       <use xlink:href="#DejaVuSans-48"/>
      </g>
     </g>
    </g>
    <g id="xtick_2">
     <g id="line2d_2">
      <g>
       <use style="stroke:#000000;stroke-width:0.8;" x="153.46" xlink:href="#m8942f873bf" y="241.59075"/>
      </g>
     </g>
     <g id="text_2">
      <!-- 100 -->
      <defs>
       <path d="M 12.40625 8.296875 
L 28.515625 8.296875 
L 28.515625 63.921875 
L 10.984375 60.40625 
L 10.984375 69.390625 
L 28.421875 72.90625 
L 38.28125 72.90625 
L 38.28125 8.296875 
L 54.390625 8.296875 
L 54.390625 0 
L 12.40625 0 
z
" id="DejaVuSans-49"/>
      </defs>
      <g transform="translate(138.19 260.74825)scale(0.16 -0.16)">
       <use xlink:href="#DejaVuSans-49"/>
       <use x="63.623047" xlink:href="#DejaVuSans-48"/>
       <use x="127.246094" xlink:href="#DejaVuSans-48"/>
      </g>
     </g>
    </g>
    <g id="xtick_3">
     <g id="line2d_3">
      <g>
       <use style="stroke:#000000;stroke-width:0.8;" x="240.26" xlink:href="#m8942f873bf" y="241.59075"/>
      </g>
     </g>
     <g id="text_3">
      <!-- 200 -->
      <defs>
       <path d="M 19.1875 8.296875 
L 53.609375 8.296875 
L 53.609375 0 
L 7.328125 0 
L 7.328125 8.296875 
Q 12.9375 14.109375 22.625 23.890625 
Q 32.328125 33.6875 34.8125 36.53125 
Q 39.546875 41.84375 41.421875 45.53125 
Q 43.3125 49.21875 43.3125 52.78125 
Q 43.3125 58.59375 39.234375 62.25 
Q 35.15625 65.921875 28.609375 65.921875 
Q 23.96875 65.921875 18.8125 64.3125 
Q 13.671875 62.703125 7.8125 59.421875 
L 7.8125 69.390625 
Q 13.765625 71.78125 18.9375 73 
Q 24.125 74.21875 28.421875 74.21875 
Q 39.75 74.21875 46.484375 68.546875 
Q 53.21875 62.890625 53.21875 53.421875 
Q 53.21875 48.921875 51.53125 44.890625 
Q 49.859375 40.875 45.40625 35.40625 
Q 44.1875 33.984375 37.640625 27.21875 
Q 31.109375 20.453125 19.1875 8.296875 
z
" id="DejaVuSans-50"/>
      </defs>
      <g transform="translate(224.99 260.74825)scale(0.16 -0.16)">
       <use xlink:href="#DejaVuSans-50"/>
       <use x="63.623047" xlink:href="#DejaVuSans-48"/>
       <use x="127.246094" xlink:href="#DejaVuSans-48"/>
      </g>
     </g>
    </g>
    <g id="xtick_4">
     <g id="line2d_4">
      <g>
       <use style="stroke:#000000;stroke-width:0.8;" x="327.06" xlink:href="#m8942f873bf" y="241.59075"/>
      </g>
     </g>
     <g id="text_4">
      <!-- 300 -->
      <defs>
       <path d="M 40.578125 39.3125 
Q 47.65625 37.796875 51.625 33 
Q 55.609375 28.21875 55.609375 21.1875 
Q 55.609375 10.40625 48.1875 4.484375 
Q 40.765625 -1.421875 27.09375 -1.421875 
Q 22.515625 -1.421875 17.65625 -0.515625 
Q 12.796875 0.390625 7.625 2.203125 
L 7.625 11.71875 
Q 11.71875 9.328125 16.59375 8.109375 
Q 21.484375 6.890625 26.8125 6.890625 
Q 36.078125 6.890625 40.9375 10.546875 
Q 45.796875 14.203125 45.796875 21.1875 
Q 45.796875 27.640625 41.28125 31.265625 
Q 36.765625 34.90625 28.71875 34.90625 
L 20.21875 34.90625 
L 20.21875 43.015625 
L 29.109375 43.015625 
Q 36.375 43.015625 40.234375 45.921875 
Q 44.09375 48.828125 44.09375 54.296875 
Q 44.09375 59.90625 40.109375 62.90625 
Q 36.140625 65.921875 28.71875 65.921875 
Q 24.65625 65.921875 20.015625 65.03125 
Q 15.375 64.15625 9.8125 62.3125 
L 9.8125 71.09375 
Q 15.4375 72.65625 20.34375 73.4375 
Q 25.25 74.21875 29.59375 74.21875 
Q 40.828125 74.21875 47.359375 69.109375 
Q 53.90625 64.015625 53.90625 55.328125 
Q 53.90625 49.265625 50.4375 45.09375 
Q 46.96875 40.921875 40.578125 39.3125 
z
" id="DejaVuSans-51"/>
      </defs>
      <g transform="translate(311.79 260.74825)scale(0.16 -0.16)">
       <use xlink:href="#DejaVuSans-51"/>
       <use x="63.623047" xlink:href="#DejaVuSans-48"/>
       <use x="127.246094" xlink:href="#DejaVuSans-48"/>
      </g>
     </g>
    </g>
    <g id="xtick_5">
     <g id="line2d_5">
      <g>
       <use style="stroke:#000000;stroke-width:0.8;" x="413.86" xlink:href="#m8942f873bf" y="241.59075"/>
      </g>
     </g>
     <g id="text_5">
      <!-- 400 -->
      <defs>
       <path d="M 37.796875 64.3125 
L 12.890625 25.390625 
L 37.796875 25.390625 
z
M 35.203125 72.90625 
L 47.609375 72.90625 
L 47.609375 25.390625 
L 58.015625 25.390625 
L 58.015625 17.1875 
L 47.609375 17.1875 
L 47.609375 0 
L 37.796875 0 
L 37.796875 17.1875 
L 4.890625 17.1875 
L 4.890625 26.703125 
z
" id="DejaVuSans-52"/>
      </defs>
      <g transform="translate(398.59 260.74825)scale(0.16 -0.16)">
       <use xlink:href="#DejaVuSans-52"/>
       <use x="63.623047" xlink:href="#DejaVuSans-48"/>
       <use x="127.246094" xlink:href="#DejaVuSans-48"/>
      </g>
     </g>
    </g>
    <g id="xtick_6">
     <g id="line2d_6">
      <g>
       <use style="stroke:#000000;stroke-width:0.8;" x="500.66" xlink:href="#m8942f873bf" y="241.59075"/>
      </g>
     </g>
     <g id="text_6">
      <!-- 500 -->
      <defs>
       <path d="M 10.796875 72.90625 
L 49.515625 72.90625 
L 49.515625 64.59375 
L 19.828125 64.59375 
L 19.828125 46.734375 
Q 21.96875 47.46875 24.109375 47.828125 
Q 26.265625 48.1875 28.421875 48.1875 
Q 40.625 48.1875 47.75 41.5 
Q 54.890625 34.8125 54.890625 23.390625 
Q 54.890625 11.625 47.5625 5.09375 
Q 40.234375 -1.421875 26.90625 -1.421875 
Q 22.3125 -1.421875 17.546875 -0.640625 
Q 12.796875 0.140625 7.71875 1.703125 
L 7.71875 11.625 
Q 12.109375 9.234375 16.796875 8.0625 
Q 21.484375 6.890625 26.703125 6.890625 
Q 35.15625 6.890625 40.078125 11.328125 
Q 45.015625 15.765625 45.015625 23.390625 
Q 45.015625 31 40.078125 35.4375 
Q 35.15625 39.890625 26.703125 39.890625 
Q 22.75 39.890625 18.8125 39.015625 
Q 14.890625 38.140625 10.796875 36.28125 
z
" id="DejaVuSans-53"/>
      </defs>
      <g transform="translate(485.39 260.74825)scale(0.16 -0.16)">
       <use xlink:href="#DejaVuSans-53"/>
       <use x="63.623047" xlink:href="#DejaVuSans-48"/>
       <use x="127.246094" xlink:href="#DejaVuSans-48"/>
      </g>
     </g>
    </g>
    <g id="xtick_7">
     <g id="line2d_7">
      <g>
       <use style="stroke:#000000;stroke-width:0.8;" x="587.46" xlink:href="#m8942f873bf" y="241.59075"/>
      </g>
     </g>
     <g id="text_7">
      <!-- 600 -->
      <defs>
       <path d="M 33.015625 40.375 
Q 26.375 40.375 22.484375 35.828125 
Q 18.609375 31.296875 18.609375 23.390625 
Q 18.609375 15.53125 22.484375 10.953125 
Q 26.375 6.390625 33.015625 6.390625 
Q 39.65625 6.390625 43.53125 10.953125 
Q 47.40625 15.53125 47.40625 23.390625 
Q 47.40625 31.296875 43.53125 35.828125 
Q 39.65625 40.375 33.015625 40.375 
z
M 52.59375 71.296875 
L 52.59375 62.3125 
Q 48.875 64.0625 45.09375 64.984375 
Q 41.3125 65.921875 37.59375 65.921875 
Q 27.828125 65.921875 22.671875 59.328125 
Q 17.53125 52.734375 16.796875 39.40625 
Q 19.671875 43.65625 24.015625 45.921875 
Q 28.375 48.1875 33.59375 48.1875 
Q 44.578125 48.1875 50.953125 41.515625 
Q 57.328125 34.859375 57.328125 23.390625 
Q 57.328125 12.15625 50.6875 5.359375 
Q 44.046875 -1.421875 33.015625 -1.421875 
Q 20.359375 -1.421875 13.671875 8.265625 
Q 6.984375 17.96875 6.984375 36.375 
Q 6.984375 53.65625 15.1875 63.9375 
Q 23.390625 74.21875 37.203125 74.21875 
Q 40.921875 74.21875 44.703125 73.484375 
Q 48.484375 72.75 52.59375 71.296875 
z
" id="DejaVuSans-54"/>
      </defs>
      <g transform="translate(572.19 260.74825)scale(0.16 -0.16)">
       <use xlink:href="#DejaVuSans-54"/>
       <use x="63.623047" xlink:href="#DejaVuSans-48"/>
       <use x="127.246094" xlink:href="#DejaVuSans-48"/>
      </g>
     </g>
    </g>
    <g id="xtick_8">
     <g id="line2d_8">
      <g>
       <use style="stroke:#000000;stroke-width:0.8;" x="674.26" xlink:href="#m8942f873bf" y="241.59075"/>
      </g>
     </g>
     <g id="text_8">
      <!-- 700 -->
      <defs>
       <path d="M 8.203125 72.90625 
L 55.078125 72.90625 
L 55.078125 68.703125 
L 28.609375 0 
L 18.3125 0 
L 43.21875 64.59375 
L 8.203125 64.59375 
z
" id="DejaVuSans-55"/>
      </defs>
      <g transform="translate(658.99 260.74825)scale(0.16 -0.16)">
       <use xlink:href="#DejaVuSans-55"/>
       <use x="63.623047" xlink:href="#DejaVuSans-48"/>
       <use x="127.246094" xlink:href="#DejaVuSans-48"/>
      </g>
     </g>
    </g>
    <g id="xtick_9">
     <g id="line2d_9">
      <g>
       <use style="stroke:#000000;stroke-width:0.8;" x="761.06" xlink:href="#m8942f873bf" y="241.59075"/>
      </g>
     </g>
     <g id="text_9">
      <!-- 800 -->
      <defs>
       <path d="M 31.78125 34.625 
Q 24.75 34.625 20.71875 30.859375 
Q 16.703125 27.09375 16.703125 20.515625 
Q 16.703125 13.921875 20.71875 10.15625 
Q 24.75 6.390625 31.78125 6.390625 
Q 38.8125 6.390625 42.859375 10.171875 
Q 46.921875 13.96875 46.921875 20.515625 
Q 46.921875 27.09375 42.890625 30.859375 
Q 38.875 34.625 31.78125 34.625 
z
M 21.921875 38.8125 
Q 15.578125 40.375 12.03125 44.71875 
Q 8.5 49.078125 8.5 55.328125 
Q 8.5 64.0625 14.71875 69.140625 
Q 20.953125 74.21875 31.78125 74.21875 
Q 42.671875 74.21875 48.875 69.140625 
Q 55.078125 64.0625 55.078125 55.328125 
Q 55.078125 49.078125 51.53125 44.71875 
Q 48 40.375 41.703125 38.8125 
Q 48.828125 37.15625 52.796875 32.3125 
Q 56.78125 27.484375 56.78125 20.515625 
Q 56.78125 9.90625 50.3125 4.234375 
Q 43.84375 -1.421875 31.78125 -1.421875 
Q 19.734375 -1.421875 13.25 4.234375 
Q 6.78125 9.90625 6.78125 20.515625 
Q 6.78125 27.484375 10.78125 32.3125 
Q 14.796875 37.15625 21.921875 38.8125 
z
M 18.3125 54.390625 
Q 18.3125 48.734375 21.84375 45.5625 
Q 25.390625 42.390625 31.78125 42.390625 
Q 38.140625 42.390625 41.71875 45.5625 
Q 45.3125 48.734375 45.3125 54.390625 
Q 45.3125 60.0625 41.71875 63.234375 
Q 38.140625 66.40625 31.78125 66.40625 
Q 25.390625 66.40625 21.84375 63.234375 
Q 18.3125 60.0625 18.3125 54.390625 
z
" id="DejaVuSans-56"/>
      </defs>
      <g transform="translate(745.79 260.74825)scale(0.16 -0.16)">
       <use xlink:href="#DejaVuSans-56"/>
       <use x="63.623047" xlink:href="#DejaVuSans-48"/>
       <use x="127.246094" xlink:href="#DejaVuSans-48"/>
      </g>
     </g>
    </g>
    <g id="xtick_10">
     <g id="line2d_10">
      <g>
       <use style="stroke:#000000;stroke-width:0.8;" x="847.86" xlink:href="#m8942f873bf" y="241.59075"/>
      </g>
     </g>
     <g id="text_10">
      <!-- 900 -->
      <defs>
       <path d="M 10.984375 1.515625 
L 10.984375 10.5 
Q 14.703125 8.734375 18.5 7.8125 
Q 22.3125 6.890625 25.984375 6.890625 
Q 35.75 6.890625 40.890625 13.453125 
Q 46.046875 20.015625 46.78125 33.40625 
Q 43.953125 29.203125 39.59375 26.953125 
Q 35.25 24.703125 29.984375 24.703125 
Q 19.046875 24.703125 12.671875 31.3125 
Q 6.296875 37.9375 6.296875 49.421875 
Q 6.296875 60.640625 12.9375 67.421875 
Q 19.578125 74.21875 30.609375 74.21875 
Q 43.265625 74.21875 49.921875 64.515625 
Q 56.59375 54.828125 56.59375 36.375 
Q 56.59375 19.140625 48.40625 8.859375 
Q 40.234375 -1.421875 26.421875 -1.421875 
Q 22.703125 -1.421875 18.890625 -0.6875 
Q 15.09375 0.046875 10.984375 1.515625 
z
M 30.609375 32.421875 
Q 37.25 32.421875 41.125 36.953125 
Q 45.015625 41.5 45.015625 49.421875 
Q 45.015625 57.28125 41.125 61.84375 
Q 37.25 66.40625 30.609375 66.40625 
Q 23.96875 66.40625 20.09375 61.84375 
Q 16.21875 57.28125 16.21875 49.421875 
Q 16.21875 41.5 20.09375 36.953125 
Q 23.96875 32.421875 30.609375 32.421875 
z
" id="DejaVuSans-57"/>
      </defs>
      <g transform="translate(832.59 260.74825)scale(0.16 -0.16)">
       <use xlink:href="#DejaVuSans-57"/>
       <use x="63.623047" xlink:href="#DejaVuSans-48"/>
       <use x="127.246094" xlink:href="#DejaVuSans-48"/>
      </g>
     </g>
    </g>
    <g id="text_11">
     <!-- time [s] -->
     <defs>
      <path d="M 18.3125 70.21875 
L 18.3125 54.6875 
L 36.8125 54.6875 
L 36.8125 47.703125 
L 18.3125 47.703125 
L 18.3125 18.015625 
Q 18.3125 11.328125 20.140625 9.421875 
Q 21.96875 7.515625 27.59375 7.515625 
L 36.8125 7.515625 
L 36.8125 0 
L 27.59375 0 
Q 17.1875 0 13.234375 3.875 
Q 9.28125 7.765625 9.28125 18.015625 
L 9.28125 47.703125 
L 2.6875 47.703125 
L 2.6875 54.6875 
L 9.28125 54.6875 
L 9.28125 70.21875 
z
" id="DejaVuSans-116"/>
      <path d="M 9.421875 54.6875 
L 18.40625 54.6875 
L 18.40625 0 
L 9.421875 0 
z
M 9.421875 75.984375 
L 18.40625 75.984375 
L 18.40625 64.59375 
L 9.421875 64.59375 
z
" id="DejaVuSans-105"/>
      <path d="M 52 44.1875 
Q 55.375 50.25 60.0625 53.125 
Q 64.75 56 71.09375 56 
Q 79.640625 56 84.28125 50.015625 
Q 88.921875 44.046875 88.921875 33.015625 
L 88.921875 0 
L 79.890625 0 
L 79.890625 32.71875 
Q 79.890625 40.578125 77.09375 44.375 
Q 74.3125 48.1875 68.609375 48.1875 
Q 61.625 48.1875 57.5625 43.546875 
Q 53.515625 38.921875 53.515625 30.90625 
L 53.515625 0 
L 44.484375 0 
L 44.484375 32.71875 
Q 44.484375 40.625 41.703125 44.40625 
Q 38.921875 48.1875 33.109375 48.1875 
Q 26.21875 48.1875 22.15625 43.53125 
Q 18.109375 38.875 18.109375 30.90625 
L 18.109375 0 
L 9.078125 0 
L 9.078125 54.6875 
L 18.109375 54.6875 
L 18.109375 46.1875 
Q 21.1875 51.21875 25.484375 53.609375 
Q 29.78125 56 35.6875 56 
Q 41.65625 56 45.828125 52.96875 
Q 50 49.953125 52 44.1875 
z
" id="DejaVuSans-109"/>
      <path d="M 56.203125 29.59375 
L 56.203125 25.203125 
L 14.890625 25.203125 
Q 15.484375 15.921875 20.484375 11.0625 
Q 25.484375 6.203125 34.421875 6.203125 
Q 39.59375 6.203125 44.453125 7.46875 
Q 49.3125 8.734375 54.109375 11.28125 
L 54.109375 2.78125 
Q 49.265625 0.734375 44.1875 -0.34375 
Q 39.109375 -1.421875 33.890625 -1.421875 
Q 20.796875 -1.421875 13.15625 6.1875 
Q 5.515625 13.8125 5.515625 26.8125 
Q 5.515625 40.234375 12.765625 48.109375 
Q 20.015625 56 32.328125 56 
Q 43.359375 56 49.78125 48.890625 
Q 56.203125 41.796875 56.203125 29.59375 
z
M 47.21875 32.234375 
Q 47.125 39.59375 43.09375 43.984375 
Q 39.0625 48.390625 32.421875 48.390625 
Q 24.90625 48.390625 20.390625 44.140625 
Q 15.875 39.890625 15.1875 32.171875 
z
" id="DejaVuSans-101"/>
      <path id="DejaVuSans-32"/>
      <path d="M 8.59375 75.984375 
L 29.296875 75.984375 
L 29.296875 69 
L 17.578125 69 
L 17.578125 -6.203125 
L 29.296875 -6.203125 
L 29.296875 -13.1875 
L 8.59375 -13.1875 
z
" id="DejaVuSans-91"/>
      <path d="M 44.28125 53.078125 
L 44.28125 44.578125 
Q 40.484375 46.53125 36.375 47.5 
Q 32.28125 48.484375 27.875 48.484375 
Q 21.1875 48.484375 17.84375 46.4375 
Q 14.5 44.390625 14.5 40.28125 
Q 14.5 37.15625 16.890625 35.375 
Q 19.28125 33.59375 26.515625 31.984375 
L 29.59375 31.296875 
Q 39.15625 29.25 43.1875 25.515625 
Q 47.21875 21.78125 47.21875 15.09375 
Q 47.21875 7.46875 41.1875 3.015625 
Q 35.15625 -1.421875 24.609375 -1.421875 
Q 20.21875 -1.421875 15.453125 -0.5625 
Q 10.6875 0.296875 5.421875 2 
L 5.421875 11.28125 
Q 10.40625 8.6875 15.234375 7.390625 
Q 20.0625 6.109375 24.8125 6.109375 
Q 31.15625 6.109375 34.5625 8.28125 
Q 37.984375 10.453125 37.984375 14.40625 
Q 37.984375 18.0625 35.515625 20.015625 
Q 33.0625 21.96875 24.703125 23.78125 
L 21.578125 24.515625 
Q 13.234375 26.265625 9.515625 29.90625 
Q 5.8125 33.546875 5.8125 39.890625 
Q 5.8125 47.609375 11.28125 51.796875 
Q 16.75 56 26.8125 56 
Q 31.78125 56 36.171875 55.265625 
Q 40.578125 54.546875 44.28125 53.078125 
z
" id="DejaVuSans-115"/>
      <path d="M 30.421875 75.984375 
L 30.421875 -13.1875 
L 9.71875 -13.1875 
L 9.71875 -6.203125 
L 21.390625 -6.203125 
L 21.390625 69 
L 9.71875 69 
L 9.71875 75.984375 
z
" id="DejaVuSans-93"/>
     </defs>
     <g transform="translate(426.23375 280.23325)scale(0.16 -0.16)">
      <use xlink:href="#DejaVuSans-116"/>
      <use x="39.208984" xlink:href="#DejaVuSans-105"/>
      <use x="66.992188" xlink:href="#DejaVuSans-109"/>
      <use x="164.404297" xlink:href="#DejaVuSans-101"/>
      <use x="225.927734" xlink:href="#DejaVuSans-32"/>
      <use x="257.714844" xlink:href="#DejaVuSans-91"/>
      <use x="296.728516" xlink:href="#DejaVuSans-115"/>
      <use x="348.828125" xlink:href="#DejaVuSans-93"/>
     </g>
    </g>
   </g>
   <g id="matplotlib.axis_2">
    <g id="ytick_1">
     <g id="line2d_11">
      <defs>
       <path d="M 0 0 
L -3.5 0 
" id="m4cf673a338" style="stroke:#000000;stroke-width:0.8;"/>
      </defs>
      <g>
       <use style="stroke:#000000;stroke-width:0.8;" x="66.66" xlink:href="#m4cf673a338" y="241.59075"/>
      </g>
     </g>
     <g id="text_12">
      <!-- 0 -->
      <g transform="translate(49.48 247.6695)scale(0.16 -0.16)">
       <use xlink:href="#DejaVuSans-48"/>
      </g>
     </g>
    </g>
    <g id="ytick_2">
     <g id="line2d_12">
      <g>
       <use style="stroke:#000000;stroke-width:0.8;" x="66.66" xlink:href="#m4cf673a338" y="184.51275"/>
      </g>
     </g>
     <g id="text_13">
      <!-- 200 -->
      <g transform="translate(29.12 190.5915)scale(0.16 -0.16)">
       <use xlink:href="#DejaVuSans-50"/>
       <use x="63.623047" xlink:href="#DejaVuSans-48"/>
       <use x="127.246094" xlink:href="#DejaVuSans-48"/>
      </g>
     </g>
    </g>
    <g id="ytick_3">
     <g id="line2d_13">
      <g>
       <use style="stroke:#000000;stroke-width:0.8;" x="66.66" xlink:href="#m4cf673a338" y="127.43475"/>
      </g>
     </g>
     <g id="text_14">
      <!-- 400 -->
      <g transform="translate(29.12 133.5135)scale(0.16 -0.16)">
       <use xlink:href="#DejaVuSans-52"/>
       <use x="63.623047" xlink:href="#DejaVuSans-48"/>
       <use x="127.246094" xlink:href="#DejaVuSans-48"/>
      </g>
     </g>
    </g>
    <g id="ytick_4">
     <g id="line2d_14">
      <g>
       <use style="stroke:#000000;stroke-width:0.8;" x="66.66" xlink:href="#m4cf673a338" y="70.35675"/>
      </g>
     </g>
     <g id="text_15">
      <!-- 600 -->
      <g transform="translate(29.12 76.4355)scale(0.16 -0.16)">
       <use xlink:href="#DejaVuSans-54"/>
       <use x="63.623047" xlink:href="#DejaVuSans-48"/>
       <use x="127.246094" xlink:href="#DejaVuSans-48"/>
      </g>
     </g>
    </g>
    <g id="ytick_5">
     <g id="line2d_15">
      <g>
       <use style="stroke:#000000;stroke-width:0.8;" x="66.66" xlink:href="#m4cf673a338" y="13.27875"/>
      </g>
     </g>
     <g id="text_16">
      <!-- 800 -->
      <g transform="translate(29.12 19.3575)scale(0.16 -0.16)">
       <use xlink:href="#DejaVuSans-56"/>
       <use x="63.623047" xlink:href="#DejaVuSans-48"/>
       <use x="127.246094" xlink:href="#DejaVuSans-48"/>
      </g>
     </g>
    </g>
    <g id="text_17">
     <!-- $\rho_{MinD-ATP} [1/\mu m^2]$ -->
     <defs>
      <path d="M 18.796875 44.921875 
Q 22.703125 49.90625 30.953125 54.296875 
Q 34.1875 56 43.0625 56 
Q 53.03125 56 57.71875 48.09375 
Q 62.40625 40.1875 59.90625 27.296875 
Q 57.375 14.40625 49.609375 6.484375 
Q 41.84375 -1.421875 31.890625 -1.421875 
Q 25.875 -1.421875 22.015625 0.984375 
Q 18.171875 3.328125 16.3125 8.203125 
L 10.640625 -20.796875 
L 1.609375 -20.796875 
L 10.890625 26.8125 
Q 13.09375 38.09375 18.796875 44.921875 
z
M 50.59375 27.296875 
Q 52.484375 37.203125 49.515625 42.875 
Q 46.53125 48.484375 39.40625 48.484375 
Q 32.28125 48.484375 27.09375 42.875 
Q 21.921875 37.203125 20.015625 27.296875 
Q 18.0625 17.390625 21.046875 11.71875 
Q 24.03125 6.109375 31.15625 6.109375 
Q 38.28125 6.109375 43.453125 11.71875 
Q 48.640625 17.390625 50.59375 27.296875 
z
" id="DejaVuSans-Oblique-961"/>
      <path d="M 16.890625 72.90625 
L 31.6875 72.90625 
L 40.1875 23.78125 
L 68.40625 72.90625 
L 83.59375 72.90625 
L 69.390625 0 
L 59.8125 0 
L 72.21875 63.921875 
L 43.609375 14.015625 
L 33.984375 14.015625 
L 24.703125 64.109375 
L 12.3125 0 
L 2.6875 0 
z
" id="DejaVuSans-Oblique-77"/>
      <path d="M 18.3125 75.984375 
L 27.296875 75.984375 
L 25.09375 64.59375 
L 16.109375 64.59375 
z
M 14.203125 54.6875 
L 23.1875 54.6875 
L 12.5 0 
L 3.515625 0 
z
" id="DejaVuSans-Oblique-105"/>
      <path d="M 55.71875 33.015625 
L 49.3125 0 
L 40.28125 0 
L 46.6875 32.671875 
Q 47.125 34.96875 47.359375 36.71875 
Q 47.609375 38.484375 47.609375 39.5 
Q 47.609375 43.609375 45.015625 45.890625 
Q 42.4375 48.1875 37.796875 48.1875 
Q 30.5625 48.1875 25.34375 43.375 
Q 20.125 38.578125 18.5 30.328125 
L 12.5 0 
L 3.515625 0 
L 14.109375 54.6875 
L 23.09375 54.6875 
L 21.296875 46.09375 
Q 25.046875 50.828125 30.3125 53.40625 
Q 35.59375 56 41.40625 56 
Q 48.640625 56 52.609375 52.09375 
Q 56.59375 48.1875 56.59375 41.109375 
Q 56.59375 39.359375 56.375 37.359375 
Q 56.15625 35.359375 55.71875 33.015625 
z
" id="DejaVuSans-Oblique-110"/>
      <path d="M 16.890625 72.90625 
L 38.09375 72.90625 
Q 54.984375 72.90625 63.59375 65.75 
Q 72.21875 58.59375 72.21875 44.484375 
Q 72.21875 35.15625 68.9375 26.53125 
Q 65.671875 17.921875 59.90625 12.015625 
Q 54.109375 5.953125 45.171875 2.96875 
Q 36.234375 0 24.03125 0 
L 2.6875 0 
z
M 25.203125 64.796875 
L 14.203125 8.109375 
L 27.09375 8.109375 
Q 43.65625 8.109375 52.734375 17.625 
Q 61.8125 27.15625 61.8125 44.484375 
Q 61.8125 54.984375 55.953125 59.890625 
Q 50.09375 64.796875 37.59375 64.796875 
z
" id="DejaVuSans-Oblique-68"/>
      <path d="M 10.59375 35.5 
L 73.1875 35.5 
L 73.1875 27.203125 
L 10.59375 27.203125 
z
" id="DejaVuSans-8722"/>
      <path d="M 36.8125 72.90625 
L 48 72.90625 
L 61.53125 0 
L 51.21875 0 
L 48.1875 18.703125 
L 15.375 18.703125 
L 5.078125 0 
L -5.328125 0 
z
M 40.375 63.1875 
L 19.921875 26.90625 
L 46.6875 26.90625 
z
" id="DejaVuSans-Oblique-65"/>
      <path d="M 5.90625 72.90625 
L 67.578125 72.90625 
L 66.015625 64.59375 
L 39.984375 64.59375 
L 27.484375 0 
L 17.578125 0 
L 30.078125 64.59375 
L 4.296875 64.59375 
z
" id="DejaVuSans-Oblique-84"/>
      <path d="M 16.890625 72.90625 
L 39.703125 72.90625 
Q 49.65625 72.90625 54.875 68.265625 
Q 60.109375 63.625 60.109375 54.6875 
Q 60.109375 42.671875 52.390625 35.984375 
Q 44.671875 29.296875 30.71875 29.296875 
L 18.3125 29.296875 
L 12.59375 0 
L 2.6875 0 
z
M 25.203125 64.796875 
L 19.921875 37.40625 
L 32.328125 37.40625 
Q 40.71875 37.40625 45.203125 41.703125 
Q 49.703125 46 49.703125 54 
Q 49.703125 59.125 46.65625 61.953125 
Q 43.609375 64.796875 38.09375 64.796875 
z
" id="DejaVuSans-Oblique-80"/>
      <path d="M 25.390625 72.90625 
L 33.6875 72.90625 
L 8.296875 -9.28125 
L 0 -9.28125 
z
" id="DejaVuSans-47"/>
      <path d="M -1.3125 -20.796875 
L 13.375 54.6875 
L 22.40625 54.6875 
L 15.765625 20.65625 
Q 15.578125 19.625 15.421875 18.359375 
Q 15.28125 17.09375 15.28125 15.828125 
Q 15.28125 11.28125 18.140625 8.828125 
Q 21 6.390625 26.3125 6.390625 
Q 33.546875 6.390625 37.984375 10.484375 
Q 42.4375 14.59375 44 22.796875 
L 50.203125 54.6875 
L 59.1875 54.6875 
L 51.03125 12.640625 
Q 50.828125 11.71875 50.75 11.03125 
Q 50.6875 10.359375 50.6875 9.8125 
Q 50.6875 8.296875 51.296875 7.59375 
Q 51.90625 6.890625 53.21875 6.890625 
Q 53.71875 6.890625 54.5625 7.125 
Q 55.421875 7.375 56.984375 8.015625 
L 55.609375 0.78125 
Q 53.46875 -0.296875 51.515625 -0.859375 
Q 49.5625 -1.421875 47.703125 -1.421875 
Q 44.484375 -1.421875 42.65625 0.625 
Q 40.828125 2.6875 40.828125 6.296875 
Q 38.09375 2.390625 34.296875 0.484375 
Q 30.515625 -1.421875 25.390625 -1.421875 
Q 20.84375 -1.421875 17.453125 0.671875 
Q 14.0625 2.78125 12.984375 6.203125 
L 7.71875 -20.796875 
z
" id="DejaVuSans-Oblique-956"/>
      <path d="M 89.796875 33.015625 
L 83.40625 0 
L 74.421875 0 
L 80.71875 32.71875 
Q 81.109375 34.8125 81.296875 36.328125 
Q 81.5 37.84375 81.5 38.921875 
Q 81.5 43.3125 79.046875 45.75 
Q 76.609375 48.1875 72.21875 48.1875 
Q 65.671875 48.1875 60.546875 43.28125 
Q 55.421875 38.375 53.90625 30.515625 
L 47.90625 0 
L 38.921875 0 
L 45.3125 32.71875 
Q 45.703125 34.515625 45.890625 36.046875 
Q 46.09375 37.59375 46.09375 38.8125 
Q 46.09375 43.265625 43.65625 45.71875 
Q 41.21875 48.1875 36.921875 48.1875 
Q 30.28125 48.1875 25.140625 43.28125 
Q 20.015625 38.375 18.5 30.515625 
L 12.5 0 
L 3.515625 0 
L 14.203125 54.6875 
L 23.1875 54.6875 
L 21.484375 46.1875 
Q 25.140625 50.984375 30.046875 53.484375 
Q 34.96875 56 40.578125 56 
Q 46.53125 56 50.359375 52.875 
Q 54.203125 49.75 54.984375 44.1875 
Q 59.078125 49.953125 64.46875 52.96875 
Q 69.875 56 75.875 56 
Q 82.90625 56 86.734375 51.953125 
Q 90.578125 47.90625 90.578125 40.484375 
Q 90.578125 38.875 90.375 36.9375 
Q 90.1875 35.015625 89.796875 33.015625 
z
" id="DejaVuSans-Oblique-109"/>
     </defs>
     <g transform="translate(21.76 195.59475)rotate(-90)scale(0.16 -0.16)">
      <use transform="translate(0 0.765625)" xlink:href="#DejaVuSans-Oblique-961"/>
      <use transform="translate(63.476562 -15.640625)scale(0.7)" xlink:href="#DejaVuSans-Oblique-77"/>
      <use transform="translate(123.87207 -15.640625)scale(0.7)" xlink:href="#DejaVuSans-Oblique-105"/>
      <use transform="translate(143.320312 -15.640625)scale(0.7)" xlink:href="#DejaVuSans-Oblique-110"/>
      <use transform="translate(187.685547 -15.640625)scale(0.7)" xlink:href="#DejaVuSans-Oblique-68"/>
      <use transform="translate(255.224609 -15.640625)scale(0.7)" xlink:href="#DejaVuSans-8722"/>
      <use transform="translate(327.514648 -15.640625)scale(0.7)" xlink:href="#DejaVuSans-Oblique-65"/>
      <use transform="translate(375.400391 -15.640625)scale(0.7)" xlink:href="#DejaVuSans-Oblique-84"/>
      <use transform="translate(418.15918 -15.640625)scale(0.7)" xlink:href="#DejaVuSans-Oblique-80"/>
      <use transform="translate(463.105469 0.765625)" xlink:href="#DejaVuSans-91"/>
      <use transform="translate(502.119141 0.765625)" xlink:href="#DejaVuSans-49"/>
      <use transform="translate(565.742188 0.765625)" xlink:href="#DejaVuSans-47"/>
      <use transform="translate(599.433594 0.765625)" xlink:href="#DejaVuSans-Oblique-956"/>
      <use transform="translate(663.056641 0.765625)" xlink:href="#DejaVuSans-Oblique-109"/>
      <use transform="translate(765.118646 39.046875)scale(0.7)" xlink:href="#DejaVuSans-50"/>
      <use transform="translate(812.389154 0.765625)" xlink:href="#DejaVuSans-93"/>
     </g>
    </g>
   </g>
   <g id="line2d_16">
    <path clip-path="url(#pdd0b11d68a)" d="M 66.66 241.59075 
L 69.264 219.074234 
L 71.868 221.362276 
L 74.472 224.105704 
L 77.076 225.96454 
L 79.68 227.086101 
L 82.284 227.36479 
L 84.888 226.737302 
L 87.492 225.160971 
L 90.096 222.622333 
L 92.7 219.224867 
L 95.304 215.351504 
L 97.908 211.834598 
L 100.512 209.946766 
L 103.116 210.972024 
L 105.72 215.35766 
L 110.928 228.303943 
L 113.532 232.333349 
L 116.136 233.845917 
L 118.74 233.423876 
L 121.344 231.156041 
L 123.948 226.47218 
L 126.552 218.432907 
L 129.156 206.557066 
L 131.76 192.622482 
L 134.364 182.361421 
L 136.968 183.283597 
L 139.572 197.927612 
L 142.176 218.88587 
L 144.78 232.601902 
L 147.384 236.370868 
L 149.988 236.327853 
L 152.592 234.107038 
L 155.196 228.759162 
L 157.8 218.284919 
L 160.404 201.287186 
L 163.008 180.716496 
L 165.612 166.728448 
L 168.216 170.887861 
L 170.82 194.111482 
L 173.424 221.589916 
L 176.028 234.561542 
L 178.632 236.791659 
L 181.236 235.995481 
L 183.84 232.76083 
L 186.444 225.476524 
L 189.048 211.849739 
L 194.256 170.97006 
L 196.86 162.915312 
L 199.464 176.413305 
L 202.068 205.378833 
L 204.672 229.066892 
L 207.276 236.101534 
L 209.88 236.698262 
L 212.484 234.955225 
L 215.088 230.224325 
L 217.692 220.386715 
L 220.296 203.507398 
L 222.9 181.642128 
L 225.504 164.663181 
L 228.108 165.62933 
L 230.712 187.804155 
L 233.316 217.611723 
L 235.92 233.643696 
L 238.524 236.708005 
L 241.128 236.210607 
L 243.732 233.35357 
L 246.336 226.6934 
L 248.94 213.895325 
L 251.544 194.159835 
L 254.148 172.838569 
L 256.752 162.534052 
L 259.356 173.570446 
L 261.96 201.788251 
L 264.564 227.271516 
L 267.168 235.790398 
L 269.772 236.752769 
L 272.376 235.276008 
L 274.98 230.976543 
L 277.584 221.826681 
L 280.188 205.686781 
L 282.792 183.750959 
L 285.396 164.681078 
L 288 161.644984 
L 290.604 180.454069 
L 293.208 211.272514 
L 295.812 231.825701 
L 298.416 236.524979 
L 301.02 236.454034 
L 303.624 234.095147 
L 306.228 228.383965 
L 308.832 217.211411 
L 314.04 181.817326 
L 316.644 177.550286 
L 319.248 195.472977 
L 321.852 220.912264 
L 324.456 233.339065 
L 327.06 236.151802 
L 329.664 236.118019 
L 332.268 234.126926 
L 334.872 228.91089 
L 337.476 217.986213 
L 340.08 198.818389 
L 342.684 169.907135 
L 345.288 130.302954 
L 347.892 81.693286 
L 350.496 37.676899 
L 353.1 30.032513 
L 355.704 95.454017 
L 358.308 216.587119 
L 360.912 236.83071 
L 363.516 237.716331 
L 366.12 237.541114 
L 368.724 236.690536 
L 371.328 234.761824 
L 373.932 230.680497 
L 376.536 223.046788 
L 379.14 212.17291 
L 381.744 200.170041 
L 384.348 185.775196 
L 386.952 163.342489 
L 389.556 130.212863 
L 392.16 95.438127 
L 394.764 92.442463 
L 399.972 235.123984 
L 402.576 238.108383 
L 405.18 238.24109 
L 407.784 237.508659 
L 410.388 235.572806 
L 412.992 231.231502 
L 415.596 222.986328 
L 418.2 211.536832 
L 420.804 199.137599 
L 423.408 183.57058 
L 426.012 158.972142 
L 428.616 123.734997 
L 431.22 90.251989 
L 433.824 96.633359 
L 436.428 181.760767 
L 439.032 236.365159 
L 441.636 238.202237 
L 444.24 238.187355 
L 446.844 237.309216 
L 449.448 235.100935 
L 452.052 230.224438 
L 454.656 221.337798 
L 457.26 209.608525 
L 459.864 197.029323 
L 462.468 180.397245 
L 465.072 154.023508 
L 467.676 117.668251 
L 470.28 87.254126 
L 472.884 104.492408 
L 475.488 198.907134 
L 478.092 237.033703 
L 480.696 238.261124 
L 483.3 238.109471 
L 485.904 237.073486 
L 488.508 234.557101 
L 491.112 229.103411 
L 493.716 219.612309 
L 496.32 207.68279 
L 498.924 194.848329 
L 501.528 177.001682 
L 504.132 148.831566 
L 506.736 111.727957 
L 509.34 85.477385 
L 511.944 114.639853 
L 514.548 213.805345 
L 517.152 237.44934 
L 519.756 238.294142 
L 522.36 238.011159 
L 524.964 236.803201 
L 527.568 233.941008 
L 530.172 227.875328 
L 532.776 217.825605 
L 535.38 205.751691 
L 537.984 192.545058 
L 540.588 173.341082 
L 543.192 143.384741 
L 545.796 105.992376 
L 548.4 85.085221 
L 551.004 127.034301 
L 553.608 224.738589 
L 556.212 237.730072 
L 558.816 238.30417 
L 561.42 237.891409 
L 564.024 236.494158 
L 566.628 233.245006 
L 569.232 226.540997 
L 571.836 215.990039 
L 574.44 203.810885 
L 577.044 190.090781 
L 579.648 169.401418 
L 582.252 137.712711 
L 584.856 100.601189 
L 587.46 86.287868 
L 590.064 141.547484 
L 592.668 231.231037 
L 595.272 237.928736 
L 597.876 238.293031 
L 600.48 237.748816 
L 603.084 236.141508 
L 605.688 232.461639 
L 608.292 225.103928 
L 610.896 214.117954 
L 613.5 201.8503 
L 616.104 187.459233 
L 618.708 165.173873 
L 621.312 131.859097 
L 623.916 95.716026 
L 626.52 89.285966 
L 629.124 157.8524 
L 631.728 234.462968 
L 634.332 238.071743 
L 636.936 238.26176 
L 639.54 237.58153 
L 642.144 235.739701 
L 644.748 231.58401 
L 647.352 223.570184 
L 649.956 212.220546 
L 652.56 199.853074 
L 655.164 184.625988 
L 657.768 160.654359 
L 662.976 91.517136 
L 665.58 94.259643 
L 668.184 175.308956 
L 670.788 236.012676 
L 673.392 238.173611 
L 675.996 238.210821 
L 678.6 237.38725 
L 681.204 235.282525 
L 683.808 230.606253 
L 686.412 221.94821 
L 689.016 210.307173 
L 691.62 197.79669 
L 694.224 181.568779 
L 696.828 155.844465 
L 699.432 119.855923 
L 702.036 88.200825 
L 704.64 101.357652 
L 707.244 192.820699 
L 709.848 236.829438 
L 712.452 238.242895 
L 715.056 238.140183 
L 717.66 237.163159 
L 720.264 234.763142 
L 722.868 229.524037 
L 725.472 220.248413 
L 728.076 208.384527 
L 730.68 195.654926 
L 733.284 178.2678 
L 735.888 150.752819 
L 738.492 113.874019 
L 741.096 85.975156 
L 743.7 110.68227 
L 746.304 208.762095 
L 748.908 237.317768 
L 751.512 238.284909 
L 754.116 238.049388 
L 756.72 236.905891 
L 759.324 234.174231 
L 761.928 228.334979 
L 764.532 218.482623 
L 767.136 206.455765 
L 769.74 193.399901 
L 772.344 174.705901 
L 774.948 145.396319 
L 777.552 108.049184 
L 780.156 85.054456 
L 782.76 122.265406 
L 785.364 221.286021 
L 787.968 237.639333 
L 790.572 238.303052 
L 793.176 237.937586 
L 795.78 236.611489 
L 798.384 233.508209 
L 800.988 227.039078 
L 803.592 216.66338 
L 806.196 204.519303 
L 808.8 191.003759 
L 811.404 170.869119 
L 814.008 139.801947 
L 816.612 102.514916 
L 819.216 85.652332 
L 821.82 136.03216 
L 824.424 229.332483 
L 827.028 237.863874 
L 829.632 238.29946 
L 832.236 237.803497 
L 834.84 236.275319 
L 837.444 232.757492 
L 840.048 225.638839 
L 842.652 214.803209 
L 845.256 202.567511 
L 847.86 188.439689 
L 847.86 188.439689 
" style="fill:none;stroke:#1f77b4;stroke-linecap:square;stroke-width:1.5;"/>
   </g>
   <g id="line2d_17">
    <path clip-path="url(#pdd0b11d68a)" d="M 66.66 241.59075 
L 69.264 219.074235 
L 71.868 221.362269 
L 74.472 224.105699 
L 77.076 225.964536 
L 79.68 227.086097 
L 82.284 227.364787 
L 84.888 226.7373 
L 87.492 225.160968 
L 90.096 222.622331 
L 92.7 219.224865 
L 95.304 215.351502 
L 97.908 211.834597 
L 100.512 209.946767 
L 103.116 210.972028 
L 105.72 215.357667 
L 110.928 228.303948 
L 113.532 232.333352 
L 116.136 233.845918 
L 118.74 233.423876 
L 121.344 231.156039 
L 123.948 226.472176 
L 126.552 218.432898 
L 129.156 206.557048 
L 131.76 192.622445 
L 134.364 182.361346 
L 136.968 183.283465 
L 139.572 197.927437 
L 142.176 218.885731 
L 144.78 232.601857 
L 147.384 236.370863 
L 149.988 236.327858 
L 152.592 234.107052 
L 155.196 228.759197 
L 157.8 218.284996 
L 160.404 201.287345 
L 163.008 180.716846 
L 165.612 166.729239 
L 168.216 170.889323 
L 170.82 194.113316 
L 173.424 221.591065 
L 176.028 234.561758 
L 178.632 236.791667 
L 181.236 235.995426 
L 183.84 232.760677 
L 186.444 225.476153 
L 189.048 211.848932 
L 194.256 170.966117 
L 196.86 162.906765 
L 199.464 176.399372 
L 202.068 205.364982 
L 204.672 229.061515 
L 207.276 236.100903 
L 209.88 236.698425 
L 212.484 234.955917 
L 215.088 230.22612 
L 217.692 220.390897 
L 220.296 203.516239 
L 222.9 181.661548 
L 225.504 164.708232 
L 228.108 165.717664 
L 230.712 187.924181 
L 233.316 217.697041 
L 235.92 233.662263 
L 238.524 236.709206 
L 241.128 236.207723 
L 243.732 233.345127 
L 246.336 226.67246 
L 248.94 213.848884 
L 251.544 194.061959 
L 254.148 172.614288 
L 256.752 162.036436 
L 259.356 172.720647 
L 261.96 200.874151 
L 264.564 226.859398 
L 267.168 235.736264 
L 269.772 236.759262 
L 272.376 235.314257 
L 274.98 231.077617 
L 277.584 222.065872 
L 280.188 206.196532 
L 282.792 184.857369 
L 285.396 167.256672 
L 288 166.862012 
L 290.604 187.946987 
L 293.208 217.190224 
L 295.812 233.350855 
L 298.416 236.652112 
L 301.02 236.301458 
L 303.624 233.622344 
L 306.228 227.197475 
L 308.832 214.544233 
L 311.436 194.147119 
L 314.04 169.095822 
L 316.644 148.954521 
L 319.248 145.267122 
L 321.852 163.819887 
L 324.456 199.354424 
L 327.06 228.503394 
L 329.664 236.036887 
L 332.268 236.317267 
L 334.872 234.452957 
L 337.476 230.509556 
L 340.08 225.244347 
L 342.684 226.038291 
L 345.288 235.907235 
L 347.892 238.109931 
L 350.496 237.533288 
L 353.1 235.043916 
L 355.704 229.535496 
L 358.308 221.501792 
L 360.912 212.953823 
L 363.516 202.291262 
L 366.12 184.65217 
L 368.724 156.54189 
L 371.328 120.247058 
L 373.932 94.623688 
L 376.536 120.412415 
L 379.14 211.847539 
L 381.744 237.369718 
L 384.348 238.294344 
L 386.952 238.034652 
L 389.556 236.858842 
L 392.16 234.08314 
L 394.764 228.225861 
L 397.368 218.440638 
L 399.972 206.510792 
L 402.576 193.496251 
L 405.18 174.825453 
L 407.784 145.608256 
L 410.388 108.543806 
L 412.992 86.119916 
L 415.596 123.890223 
L 418.2 221.973207 
L 420.804 237.673134 
L 423.408 238.317245 
L 426.012 237.943185 
L 428.616 236.608026 
L 431.22 233.489149 
L 433.824 226.997323 
L 436.428 216.609944 
L 439.032 204.471563 
L 441.636 190.940396 
L 444.24 170.751191 
L 446.844 139.630571 
L 449.448 102.399047 
L 452.052 85.882569 
L 454.656 136.84943 
L 457.26 229.614957 
L 459.864 237.875774 
L 462.468 238.301128 
L 465.072 237.798801 
L 467.676 236.260868 
L 470.28 232.723404 
L 472.884 225.575703 
L 475.488 214.72214 
L 478.092 202.483972 
L 480.696 188.325544 
L 483.3 166.561101 
L 485.904 133.752672 
L 488.508 97.225854 
L 491.112 88.153028 
L 493.716 152.524179 
L 496.32 233.685346 
L 498.924 238.031771 
L 501.528 238.274224 
L 504.132 237.637868 
L 506.736 235.873516 
L 509.34 231.87412 
L 511.944 224.068514 
L 514.548 212.826884 
L 517.152 200.494513 
L 519.756 185.551521 
L 522.36 162.124897 
L 527.568 92.769833 
L 530.172 92.458847 
L 532.776 169.692945 
L 535.38 235.630562 
L 537.984 238.145161 
L 540.588 238.229202 
L 543.192 237.452159 
L 545.796 235.434341 
L 548.4 230.928337 
L 551.004 222.472939 
L 553.608 210.91688 
L 556.212 198.458596 
L 558.816 182.56649 
L 561.42 157.405038 
L 564.024 121.772196 
L 566.628 89.147656 
L 569.232 98.864278 
L 571.836 187.336721 
L 574.44 236.617627 
L 577.044 238.224043 
L 579.648 238.164803 
L 582.252 237.237833 
L 584.856 234.93545 
L 587.46 229.879609 
L 590.064 220.796542 
L 592.668 208.996496 
L 595.272 196.346767 
L 597.876 179.34476 
L 600.48 152.401234 
L 603.084 115.764581 
L 605.688 86.551703 
L 608.292 107.47284 
L 610.896 203.980235 
L 613.5 237.185634 
L 616.104 238.274273 
L 618.708 238.080482 
L 621.312 236.991504 
L 623.916 234.369448 
L 626.52 228.724626 
L 629.124 219.05038 
L 631.728 207.069586 
L 634.332 194.130788 
L 636.936 175.867478 
L 639.54 147.126515 
L 642.144 109.876302 
L 644.748 85.192664 
L 647.352 118.339683 
L 649.956 217.769834 
L 652.56 237.549918 
L 655.164 238.29972 
L 657.768 237.975475 
L 660.372 236.709376 
L 662.976 233.728772 
L 665.58 227.462546 
L 668.184 217.246759 
L 670.788 205.136083 
L 673.392 191.78247 
L 675.996 172.119376 
L 678.6 141.60415 
L 681.204 104.233866 
L 683.808 85.284868 
L 686.412 131.428893 
L 689.016 227.254367 
L 691.62 237.80052 
L 694.224 238.302855 
L 696.828 237.848628 
L 699.432 236.387022 
L 702.036 233.005781 
L 704.64 226.095041 
L 707.244 215.398279 
L 709.848 203.19041 
L 712.452 189.274609 
L 715.056 168.088952 
L 717.66 135.869031 
L 720.264 98.985073 
L 722.868 87.037222 
L 725.472 146.559647 
L 728.076 232.529409 
L 730.68 237.979377 
L 733.284 238.285239 
L 735.888 237.69841 
L 738.492 236.019383 
L 741.096 232.193159 
L 743.7 224.626447 
L 746.304 213.516987 
L 748.908 201.220279 
L 751.512 186.581449 
L 754.116 163.768733 
L 756.72 129.969046 
L 759.324 94.297615 
L 761.928 90.645057 
L 767.136 235.078056 
L 769.74 238.108085 
L 772.344 238.247684 
L 774.948 237.522811 
L 777.552 235.600672 
L 780.156 231.284261 
L 782.76 223.063622 
L 785.364 211.613585 
L 787.968 199.206902 
L 790.572 183.679303 
L 793.176 159.156411 
L 795.78 123.967418 
L 798.384 90.357381 
L 800.988 96.279856 
L 803.592 180.937423 
L 806.196 236.325001 
L 808.8 238.198868 
L 811.404 238.190513 
L 814.008 237.319388 
L 816.612 235.124488 
L 819.216 230.273679 
L 821.82 221.415708 
L 824.424 209.696702 
L 827.028 197.126359 
L 829.632 180.546652 
L 832.236 154.255681 
L 834.84 117.94447 
L 837.444 87.364948 
L 840.048 104.077612 
L 842.652 198.148872 
L 845.256 237.00973 
L 847.86 238.259018 
L 847.86 238.259018 
" style="fill:none;stroke:#ff7f0e;stroke-linecap:square;stroke-width:1.5;"/>
   </g>
   <g id="patch_3">
    <path d="M 66.66 241.59075 
L 66.66 13.27875 
" style="fill:none;stroke:#000000;stroke-linecap:square;stroke-linejoin:miter;stroke-width:0.8;"/>
   </g>
   <g id="patch_4">
    <path d="M 847.86 241.59075 
L 847.86 13.27875 
" style="fill:none;stroke:#000000;stroke-linecap:square;stroke-linejoin:miter;stroke-width:0.8;"/>
   </g>
   <g id="patch_5">
    <path d="M 66.66 241.59075 
L 847.86 241.59075 
" style="fill:none;stroke:#000000;stroke-linecap:square;stroke-linejoin:miter;stroke-width:0.8;"/>
   </g>
   <g id="patch_6">
    <path d="M 66.66 13.27875 
L 847.86 13.27875 
" style="fill:none;stroke:#000000;stroke-linecap:square;stroke-linejoin:miter;stroke-width:0.8;"/>
   </g>
  </g>
 </g>
 <defs>
  <clipPath id="pdd0b11d68a">
   <rect height="228.312" width="781.2" x="66.66" y="13.27875"/>
  </clipPath>
 </defs>
</svg>
