<?xml version="1.0" encoding="utf-8" standalone="no"?>
<!DOCTYPE svg PUBLIC "-//W3C//DTD SVG 1.1//EN"
  "http://www.w3.org/Graphics/SVG/1.1/DTD/svg11.dtd">
<!-- Created with matplotlib (https://matplotlib.org/) -->
<svg height="300.022937pt" version="1.1" viewBox="0 0 886.2625 300.022937" width="886.2625pt" xmlns="http://www.w3.org/2000/svg" xmlns:xlink="http://www.w3.org/1999/xlink">
 <defs>
  <style type="text/css">
*{stroke-linecap:butt;stroke-linejoin:round;}
  </style>
 </defs>
 <g id="figure_1">
  <g id="patch_1">
   <path d="M 0 300.022937 
L 886.2625 300.022937 
L 886.2625 0 
L 0 0 
z
" style="fill:#ffffff;"/>
  </g>
  <g id="axes_1">
   <g id="patch_2">
    <path d="M 78.775 243.110437 
L 859.975 243.110437 
L 859.975 14.798437 
L 78.775 14.798437 
z
" style="fill:#ffffff;"/>
   </g>
   <g id="matplotlib.axis_1">
    <g id="xtick_1">
     <g id="line2d_1">
      <defs>
       <path d="M 0 0 
L 0 3.5 
" id="mdf576afb64" style="stroke:#000000;stroke-width:0.8;"/>
      </defs>
      <g>
       <use style="stroke:#000000;stroke-width:0.8;" x="78.775" xlink:href="#mdf576afb64" y="243.110437"/>
      </g>
     </g>
     <g id="text_1">
      <!-- 0 -->
      <defs>
       <path d="M 31.78125 66.40625 
Q 24.171875 66.40625 20.328125 58.90625 
Q 16.5 51.421875 16.5 36.375 
Q 16.5 21.390625 20.328125 13.890625 
Q 24.171875 6.390625 31.78125 6.390625 
Q 39.453125 6.390625 43.28125 13.890625 
Q 47.125 21.390625 47.125 36.375 
Q 47.125 51.421875 43.28125 58.90625 
Q 39.453125 66.40625 31.78125 66.40625 
z
M 31.78125 74.21875 
Q 44.046875 74.21875 50.515625 64.515625 
Q 56.984375 54.828125 56.984375 36.375 
Q 56.984375 17.96875 50.515625 8.265625 
Q 44.046875 -1.421875 31.78125 -1.421875 
Q 19.53125 -1.421875 13.0625 8.265625 
Q 6.59375 17.96875 6.59375 36.375 
Q 6.59375 54.828125 13.0625 64.515625 
Q 19.53125 74.21875 31.78125 74.21875 
z
" id="DejaVuSans-48"/>
      </defs>
      <g transform="translate(72.4125 265.307312)scale(0.2 -0.2)">
       <use xlink:href="#DejaVuSans-48"/>
      </g>
     </g>
    </g>
    <g id="xtick_2">
     <g id="line2d_2">
      <g>
       <use style="stroke:#000000;stroke-width:0.8;" x="165.575" xlink:href="#mdf576afb64" y="243.110437"/>
      </g>
     </g>
     <g id="text_2">
      <!-- 100 -->
      <defs>
       <path d="M 12.40625 8.296875 
L 28.515625 8.296875 
L 28.515625 63.921875 
L 10.984375 60.40625 
L 10.984375 69.390625 
L 28.421875 72.90625 
L 38.28125 72.90625 
L 38.28125 8.296875 
L 54.390625 8.296875 
L 54.390625 0 
L 12.40625 0 
z
" id="DejaVuSans-49"/>
      </defs>
      <g transform="translate(146.4875 265.307312)scale(0.2 -0.2)">
       <use xlink:href="#DejaVuSans-49"/>
       <use x="63.623047" xlink:href="#DejaVuSans-48"/>
       <use x="127.246094" xlink:href="#DejaVuSans-48"/>
      </g>
     </g>
    </g>
    <g id="xtick_3">
     <g id="line2d_3">
      <g>
       <use style="stroke:#000000;stroke-width:0.8;" x="252.375" xlink:href="#mdf576afb64" y="243.110437"/>
      </g>
     </g>
     <g id="text_3">
      <!-- 200 -->
      <defs>
       <path d="M 19.1875 8.296875 
L 53.609375 8.296875 
L 53.609375 0 
L 7.328125 0 
L 7.328125 8.296875 
Q 12.9375 14.109375 22.625 23.890625 
Q 32.328125 33.6875 34.8125 36.53125 
Q 39.546875 41.84375 41.421875 45.53125 
Q 43.3125 49.21875 43.3125 52.78125 
Q 43.3125 58.59375 39.234375 62.25 
Q 35.15625 65.921875 28.609375 65.921875 
Q 23.96875 65.921875 18.8125 64.3125 
Q 13.671875 62.703125 7.8125 59.421875 
L 7.8125 69.390625 
Q 13.765625 71.78125 18.9375 73 
Q 24.125 74.21875 28.421875 74.21875 
Q 39.75 74.21875 46.484375 68.546875 
Q 53.21875 62.890625 53.21875 53.421875 
Q 53.21875 48.921875 51.53125 44.890625 
Q 49.859375 40.875 45.40625 35.40625 
Q 44.1875 33.984375 37.640625 27.21875 
Q 31.109375 20.453125 19.1875 8.296875 
z
" id="DejaVuSans-50"/>
      </defs>
      <g transform="translate(233.2875 265.307312)scale(0.2 -0.2)">
       <use xlink:href="#DejaVuSans-50"/>
       <use x="63.623047" xlink:href="#DejaVuSans-48"/>
       <use x="127.246094" xlink:href="#DejaVuSans-48"/>
      </g>
     </g>
    </g>
    <g id="xtick_4">
     <g id="line2d_4">
      <g>
       <use style="stroke:#000000;stroke-width:0.8;" x="339.175" xlink:href="#mdf576afb64" y="243.110437"/>
      </g>
     </g>
     <g id="text_4">
      <!-- 300 -->
      <defs>
       <path d="M 40.578125 39.3125 
Q 47.65625 37.796875 51.625 33 
Q 55.609375 28.21875 55.609375 21.1875 
Q 55.609375 10.40625 48.1875 4.484375 
Q 40.765625 -1.421875 27.09375 -1.421875 
Q 22.515625 -1.421875 17.65625 -0.515625 
Q 12.796875 0.390625 7.625 2.203125 
L 7.625 11.71875 
Q 11.71875 9.328125 16.59375 8.109375 
Q 21.484375 6.890625 26.8125 6.890625 
Q 36.078125 6.890625 40.9375 10.546875 
Q 45.796875 14.203125 45.796875 21.1875 
Q 45.796875 27.640625 41.28125 31.265625 
Q 36.765625 34.90625 28.71875 34.90625 
L 20.21875 34.90625 
L 20.21875 43.015625 
L 29.109375 43.015625 
Q 36.375 43.015625 40.234375 45.921875 
Q 44.09375 48.828125 44.09375 54.296875 
Q 44.09375 59.90625 40.109375 62.90625 
Q 36.140625 65.921875 28.71875 65.921875 
Q 24.65625 65.921875 20.015625 65.03125 
Q 15.375 64.15625 9.8125 62.3125 
L 9.8125 71.09375 
Q 15.4375 72.65625 20.34375 73.4375 
Q 25.25 74.21875 29.59375 74.21875 
Q 40.828125 74.21875 47.359375 69.109375 
Q 53.90625 64.015625 53.90625 55.328125 
Q 53.90625 49.265625 50.4375 45.09375 
Q 46.96875 40.921875 40.578125 39.3125 
z
" id="DejaVuSans-51"/>
      </defs>
      <g transform="translate(320.0875 265.307312)scale(0.2 -0.2)">
       <use xlink:href="#DejaVuSans-51"/>
       <use x="63.623047" xlink:href="#DejaVuSans-48"/>
       <use x="127.246094" xlink:href="#DejaVuSans-48"/>
      </g>
     </g>
    </g>
    <g id="xtick_5">
     <g id="line2d_5">
      <g>
       <use style="stroke:#000000;stroke-width:0.8;" x="425.975" xlink:href="#mdf576afb64" y="243.110437"/>
      </g>
     </g>
     <g id="text_5">
      <!-- 400 -->
      <defs>
       <path d="M 37.796875 64.3125 
L 12.890625 25.390625 
L 37.796875 25.390625 
z
M 35.203125 72.90625 
L 47.609375 72.90625 
L 47.609375 25.390625 
L 58.015625 25.390625 
L 58.015625 17.1875 
L 47.609375 17.1875 
L 47.609375 0 
L 37.796875 0 
L 37.796875 17.1875 
L 4.890625 17.1875 
L 4.890625 26.703125 
z
" id="DejaVuSans-52"/>
      </defs>
      <g transform="translate(406.8875 265.307312)scale(0.2 -0.2)">
       <use xlink:href="#DejaVuSans-52"/>
       <use x="63.623047" xlink:href="#DejaVuSans-48"/>
       <use x="127.246094" xlink:href="#DejaVuSans-48"/>
      </g>
     </g>
    </g>
    <g id="xtick_6">
     <g id="line2d_6">
      <g>
       <use style="stroke:#000000;stroke-width:0.8;" x="512.775" xlink:href="#mdf576afb64" y="243.110437"/>
      </g>
     </g>
     <g id="text_6">
      <!-- 500 -->
      <defs>
       <path d="M 10.796875 72.90625 
L 49.515625 72.90625 
L 49.515625 64.59375 
L 19.828125 64.59375 
L 19.828125 46.734375 
Q 21.96875 47.46875 24.109375 47.828125 
Q 26.265625 48.1875 28.421875 48.1875 
Q 40.625 48.1875 47.75 41.5 
Q 54.890625 34.8125 54.890625 23.390625 
Q 54.890625 11.625 47.5625 5.09375 
Q 40.234375 -1.421875 26.90625 -1.421875 
Q 22.3125 -1.421875 17.546875 -0.640625 
Q 12.796875 0.140625 7.71875 1.703125 
L 7.71875 11.625 
Q 12.109375 9.234375 16.796875 8.0625 
Q 21.484375 6.890625 26.703125 6.890625 
Q 35.15625 6.890625 40.078125 11.328125 
Q 45.015625 15.765625 45.015625 23.390625 
Q 45.015625 31 40.078125 35.4375 
Q 35.15625 39.890625 26.703125 39.890625 
Q 22.75 39.890625 18.8125 39.015625 
Q 14.890625 38.140625 10.796875 36.28125 
z
" id="DejaVuSans-53"/>
      </defs>
      <g transform="translate(493.6875 265.307312)scale(0.2 -0.2)">
       <use xlink:href="#DejaVuSans-53"/>
       <use x="63.623047" xlink:href="#DejaVuSans-48"/>
       <use x="127.246094" xlink:href="#DejaVuSans-48"/>
      </g>
     </g>
    </g>
    <g id="xtick_7">
     <g id="line2d_7">
      <g>
       <use style="stroke:#000000;stroke-width:0.8;" x="599.575" xlink:href="#mdf576afb64" y="243.110437"/>
      </g>
     </g>
     <g id="text_7">
      <!-- 600 -->
      <defs>
       <path d="M 33.015625 40.375 
Q 26.375 40.375 22.484375 35.828125 
Q 18.609375 31.296875 18.609375 23.390625 
Q 18.609375 15.53125 22.484375 10.953125 
Q 26.375 6.390625 33.015625 6.390625 
Q 39.65625 6.390625 43.53125 10.953125 
Q 47.40625 15.53125 47.40625 23.390625 
Q 47.40625 31.296875 43.53125 35.828125 
Q 39.65625 40.375 33.015625 40.375 
z
M 52.59375 71.296875 
L 52.59375 62.3125 
Q 48.875 64.0625 45.09375 64.984375 
Q 41.3125 65.921875 37.59375 65.921875 
Q 27.828125 65.921875 22.671875 59.328125 
Q 17.53125 52.734375 16.796875 39.40625 
Q 19.671875 43.65625 24.015625 45.921875 
Q 28.375 48.1875 33.59375 48.1875 
Q 44.578125 48.1875 50.953125 41.515625 
Q 57.328125 34.859375 57.328125 23.390625 
Q 57.328125 12.15625 50.6875 5.359375 
Q 44.046875 -1.421875 33.015625 -1.421875 
Q 20.359375 -1.421875 13.671875 8.265625 
Q 6.984375 17.96875 6.984375 36.375 
Q 6.984375 53.65625 15.1875 63.9375 
Q 23.390625 74.21875 37.203125 74.21875 
Q 40.921875 74.21875 44.703125 73.484375 
Q 48.484375 72.75 52.59375 71.296875 
z
" id="DejaVuSans-54"/>
      </defs>
      <g transform="translate(580.4875 265.307312)scale(0.2 -0.2)">
       <use xlink:href="#DejaVuSans-54"/>
       <use x="63.623047" xlink:href="#DejaVuSans-48"/>
       <use x="127.246094" xlink:href="#DejaVuSans-48"/>
      </g>
     </g>
    </g>
    <g id="xtick_8">
     <g id="line2d_8">
      <g>
       <use style="stroke:#000000;stroke-width:0.8;" x="686.375" xlink:href="#mdf576afb64" y="243.110437"/>
      </g>
     </g>
     <g id="text_8">
      <!-- 700 -->
      <defs>
       <path d="M 8.203125 72.90625 
L 55.078125 72.90625 
L 55.078125 68.703125 
L 28.609375 0 
L 18.3125 0 
L 43.21875 64.59375 
L 8.203125 64.59375 
z
" id="DejaVuSans-55"/>
      </defs>
      <g transform="translate(667.2875 265.307312)scale(0.2 -0.2)">
       <use xlink:href="#DejaVuSans-55"/>
       <use x="63.623047" xlink:href="#DejaVuSans-48"/>
       <use x="127.246094" xlink:href="#DejaVuSans-48"/>
      </g>
     </g>
    </g>
    <g id="xtick_9">
     <g id="line2d_9">
      <g>
       <use style="stroke:#000000;stroke-width:0.8;" x="773.175" xlink:href="#mdf576afb64" y="243.110437"/>
      </g>
     </g>
     <g id="text_9">
      <!-- 800 -->
      <defs>
       <path d="M 31.78125 34.625 
Q 24.75 34.625 20.71875 30.859375 
Q 16.703125 27.09375 16.703125 20.515625 
Q 16.703125 13.921875 20.71875 10.15625 
Q 24.75 6.390625 31.78125 6.390625 
Q 38.8125 6.390625 42.859375 10.171875 
Q 46.921875 13.96875 46.921875 20.515625 
Q 46.921875 27.09375 42.890625 30.859375 
Q 38.875 34.625 31.78125 34.625 
z
M 21.921875 38.8125 
Q 15.578125 40.375 12.03125 44.71875 
Q 8.5 49.078125 8.5 55.328125 
Q 8.5 64.0625 14.71875 69.140625 
Q 20.953125 74.21875 31.78125 74.21875 
Q 42.671875 74.21875 48.875 69.140625 
Q 55.078125 64.0625 55.078125 55.328125 
Q 55.078125 49.078125 51.53125 44.71875 
Q 48 40.375 41.703125 38.8125 
Q 48.828125 37.15625 52.796875 32.3125 
Q 56.78125 27.484375 56.78125 20.515625 
Q 56.78125 9.90625 50.3125 4.234375 
Q 43.84375 -1.421875 31.78125 -1.421875 
Q 19.734375 -1.421875 13.25 4.234375 
Q 6.78125 9.90625 6.78125 20.515625 
Q 6.78125 27.484375 10.78125 32.3125 
Q 14.796875 37.15625 21.921875 38.8125 
z
M 18.3125 54.390625 
Q 18.3125 48.734375 21.84375 45.5625 
Q 25.390625 42.390625 31.78125 42.390625 
Q 38.140625 42.390625 41.71875 45.5625 
Q 45.3125 48.734375 45.3125 54.390625 
Q 45.3125 60.0625 41.71875 63.234375 
Q 38.140625 66.40625 31.78125 66.40625 
Q 25.390625 66.40625 21.84375 63.234375 
Q 18.3125 60.0625 18.3125 54.390625 
z
" id="DejaVuSans-56"/>
      </defs>
      <g transform="translate(754.0875 265.307312)scale(0.2 -0.2)">
       <use xlink:href="#DejaVuSans-56"/>
       <use x="63.623047" xlink:href="#DejaVuSans-48"/>
       <use x="127.246094" xlink:href="#DejaVuSans-48"/>
      </g>
     </g>
    </g>
    <g id="xtick_10">
     <g id="line2d_10">
      <g>
       <use style="stroke:#000000;stroke-width:0.8;" x="859.975" xlink:href="#mdf576afb64" y="243.110437"/>
      </g>
     </g>
     <g id="text_10">
      <!-- 900 -->
      <defs>
       <path d="M 10.984375 1.515625 
L 10.984375 10.5 
Q 14.703125 8.734375 18.5 7.8125 
Q 22.3125 6.890625 25.984375 6.890625 
Q 35.75 6.890625 40.890625 13.453125 
Q 46.046875 20.015625 46.78125 33.40625 
Q 43.953125 29.203125 39.59375 26.953125 
Q 35.25 24.703125 29.984375 24.703125 
Q 19.046875 24.703125 12.671875 31.3125 
Q 6.296875 37.9375 6.296875 49.421875 
Q 6.296875 60.640625 12.9375 67.421875 
Q 19.578125 74.21875 30.609375 74.21875 
Q 43.265625 74.21875 49.921875 64.515625 
Q 56.59375 54.828125 56.59375 36.375 
Q 56.59375 19.140625 48.40625 8.859375 
Q 40.234375 -1.421875 26.421875 -1.421875 
Q 22.703125 -1.421875 18.890625 -0.6875 
Q 15.09375 0.046875 10.984375 1.515625 
z
M 30.609375 32.421875 
Q 37.25 32.421875 41.125 36.953125 
Q 45.015625 41.5 45.015625 49.421875 
Q 45.015625 57.28125 41.125 61.84375 
Q 37.25 66.40625 30.609375 66.40625 
Q 23.96875 66.40625 20.09375 61.84375 
Q 16.21875 57.28125 16.21875 49.421875 
Q 16.21875 41.5 20.09375 36.953125 
Q 23.96875 32.421875 30.609375 32.421875 
z
" id="DejaVuSans-57"/>
      </defs>
      <g transform="translate(840.8875 265.307312)scale(0.2 -0.2)">
       <use xlink:href="#DejaVuSans-57"/>
       <use x="63.623047" xlink:href="#DejaVuSans-48"/>
       <use x="127.246094" xlink:href="#DejaVuSans-48"/>
      </g>
     </g>
    </g>
    <g id="text_11">
     <!-- time [s] -->
     <defs>
      <path d="M 18.3125 70.21875 
L 18.3125 54.6875 
L 36.8125 54.6875 
L 36.8125 47.703125 
L 18.3125 47.703125 
L 18.3125 18.015625 
Q 18.3125 11.328125 20.140625 9.421875 
Q 21.96875 7.515625 27.59375 7.515625 
L 36.8125 7.515625 
L 36.8125 0 
L 27.59375 0 
Q 17.1875 0 13.234375 3.875 
Q 9.28125 7.765625 9.28125 18.015625 
L 9.28125 47.703125 
L 2.6875 47.703125 
L 2.6875 54.6875 
L 9.28125 54.6875 
L 9.28125 70.21875 
z
" id="DejaVuSans-116"/>
      <path d="M 9.421875 54.6875 
L 18.40625 54.6875 
L 18.40625 0 
L 9.421875 0 
z
M 9.421875 75.984375 
L 18.40625 75.984375 
L 18.40625 64.59375 
L 9.421875 64.59375 
z
" id="DejaVuSans-105"/>
      <path d="M 52 44.1875 
Q 55.375 50.25 60.0625 53.125 
Q 64.75 56 71.09375 56 
Q 79.640625 56 84.28125 50.015625 
Q 88.921875 44.046875 88.921875 33.015625 
L 88.921875 0 
L 79.890625 0 
L 79.890625 32.71875 
Q 79.890625 40.578125 77.09375 44.375 
Q 74.3125 48.1875 68.609375 48.1875 
Q 61.625 48.1875 57.5625 43.546875 
Q 53.515625 38.921875 53.515625 30.90625 
L 53.515625 0 
L 44.484375 0 
L 44.484375 32.71875 
Q 44.484375 40.625 41.703125 44.40625 
Q 38.921875 48.1875 33.109375 48.1875 
Q 26.21875 48.1875 22.15625 43.53125 
Q 18.109375 38.875 18.109375 30.90625 
L 18.109375 0 
L 9.078125 0 
L 9.078125 54.6875 
L 18.109375 54.6875 
L 18.109375 46.1875 
Q 21.1875 51.21875 25.484375 53.609375 
Q 29.78125 56 35.6875 56 
Q 41.65625 56 45.828125 52.96875 
Q 50 49.953125 52 44.1875 
z
" id="DejaVuSans-109"/>
      <path d="M 56.203125 29.59375 
L 56.203125 25.203125 
L 14.890625 25.203125 
Q 15.484375 15.921875 20.484375 11.0625 
Q 25.484375 6.203125 34.421875 6.203125 
Q 39.59375 6.203125 44.453125 7.46875 
Q 49.3125 8.734375 54.109375 11.28125 
L 54.109375 2.78125 
Q 49.265625 0.734375 44.1875 -0.34375 
Q 39.109375 -1.421875 33.890625 -1.421875 
Q 20.796875 -1.421875 13.15625 6.1875 
Q 5.515625 13.8125 5.515625 26.8125 
Q 5.515625 40.234375 12.765625 48.109375 
Q 20.015625 56 32.328125 56 
Q 43.359375 56 49.78125 48.890625 
Q 56.203125 41.796875 56.203125 29.59375 
z
M 47.21875 32.234375 
Q 47.125 39.59375 43.09375 43.984375 
Q 39.0625 48.390625 32.421875 48.390625 
Q 24.90625 48.390625 20.390625 44.140625 
Q 15.875 39.890625 15.1875 32.171875 
z
" id="DejaVuSans-101"/>
      <path id="DejaVuSans-32"/>
      <path d="M 8.59375 75.984375 
L 29.296875 75.984375 
L 29.296875 69 
L 17.578125 69 
L 17.578125 -6.203125 
L 29.296875 -6.203125 
L 29.296875 -13.1875 
L 8.59375 -13.1875 
z
" id="DejaVuSans-91"/>
      <path d="M 44.28125 53.078125 
L 44.28125 44.578125 
Q 40.484375 46.53125 36.375 47.5 
Q 32.28125 48.484375 27.875 48.484375 
Q 21.1875 48.484375 17.84375 46.4375 
Q 14.5 44.390625 14.5 40.28125 
Q 14.5 37.15625 16.890625 35.375 
Q 19.28125 33.59375 26.515625 31.984375 
L 29.59375 31.296875 
Q 39.15625 29.25 43.1875 25.515625 
Q 47.21875 21.78125 47.21875 15.09375 
Q 47.21875 7.46875 41.1875 3.015625 
Q 35.15625 -1.421875 24.609375 -1.421875 
Q 20.21875 -1.421875 15.453125 -0.5625 
Q 10.6875 0.296875 5.421875 2 
L 5.421875 11.28125 
Q 10.40625 8.6875 15.234375 7.390625 
Q 20.0625 6.109375 24.8125 6.109375 
Q 31.15625 6.109375 34.5625 8.28125 
Q 37.984375 10.453125 37.984375 14.40625 
Q 37.984375 18.0625 35.515625 20.015625 
Q 33.0625 21.96875 24.703125 23.78125 
L 21.578125 24.515625 
Q 13.234375 26.265625 9.515625 29.90625 
Q 5.8125 33.546875 5.8125 39.890625 
Q 5.8125 47.609375 11.28125 51.796875 
Q 16.75 56 26.8125 56 
Q 31.78125 56 36.171875 55.265625 
Q 40.578125 54.546875 44.28125 53.078125 
z
" id="DejaVuSans-115"/>
      <path d="M 30.421875 75.984375 
L 30.421875 -13.1875 
L 9.71875 -13.1875 
L 9.71875 -6.203125 
L 21.390625 -6.203125 
L 21.390625 69 
L 9.71875 69 
L 9.71875 75.984375 
z
" id="DejaVuSans-93"/>
     </defs>
     <g transform="translate(430.592188 288.663562)scale(0.2 -0.2)">
      <use xlink:href="#DejaVuSans-116"/>
      <use x="39.208984" xlink:href="#DejaVuSans-105"/>
      <use x="66.992188" xlink:href="#DejaVuSans-109"/>
      <use x="164.404297" xlink:href="#DejaVuSans-101"/>
      <use x="225.927734" xlink:href="#DejaVuSans-32"/>
      <use x="257.714844" xlink:href="#DejaVuSans-91"/>
      <use x="296.728516" xlink:href="#DejaVuSans-115"/>
      <use x="348.828125" xlink:href="#DejaVuSans-93"/>
     </g>
    </g>
   </g>
   <g id="matplotlib.axis_2">
    <g id="ytick_1">
     <g id="line2d_11">
      <defs>
       <path d="M 0 0 
L -3.5 0 
" id="m0dd6398c3b" style="stroke:#000000;stroke-width:0.8;"/>
      </defs>
      <g>
       <use style="stroke:#000000;stroke-width:0.8;" x="78.775" xlink:href="#m0dd6398c3b" y="243.110437"/>
      </g>
     </g>
     <g id="text_12">
      <!-- 0 -->
      <g transform="translate(59.05 250.708875)scale(0.2 -0.2)">
       <use xlink:href="#DejaVuSans-48"/>
      </g>
     </g>
    </g>
    <g id="ytick_2">
     <g id="line2d_12">
      <g>
       <use style="stroke:#000000;stroke-width:0.8;" x="78.775" xlink:href="#m0dd6398c3b" y="186.032437"/>
      </g>
     </g>
     <g id="text_13">
      <!-- 200 -->
      <g transform="translate(33.6 193.630875)scale(0.2 -0.2)">
       <use xlink:href="#DejaVuSans-50"/>
       <use x="63.623047" xlink:href="#DejaVuSans-48"/>
       <use x="127.246094" xlink:href="#DejaVuSans-48"/>
      </g>
     </g>
    </g>
    <g id="ytick_3">
     <g id="line2d_13">
      <g>
       <use style="stroke:#000000;stroke-width:0.8;" x="78.775" xlink:href="#m0dd6398c3b" y="128.954437"/>
      </g>
     </g>
     <g id="text_14">
      <!-- 400 -->
      <g transform="translate(33.6 136.552875)scale(0.2 -0.2)">
       <use xlink:href="#DejaVuSans-52"/>
       <use x="63.623047" xlink:href="#DejaVuSans-48"/>
       <use x="127.246094" xlink:href="#DejaVuSans-48"/>
      </g>
     </g>
    </g>
    <g id="ytick_4">
     <g id="line2d_14">
      <g>
       <use style="stroke:#000000;stroke-width:0.8;" x="78.775" xlink:href="#m0dd6398c3b" y="71.876437"/>
      </g>
     </g>
     <g id="text_15">
      <!-- 600 -->
      <g transform="translate(33.6 79.474875)scale(0.2 -0.2)">
       <use xlink:href="#DejaVuSans-54"/>
       <use x="63.623047" xlink:href="#DejaVuSans-48"/>
       <use x="127.246094" xlink:href="#DejaVuSans-48"/>
      </g>
     </g>
    </g>
    <g id="ytick_5">
     <g id="line2d_15">
      <g>
       <use style="stroke:#000000;stroke-width:0.8;" x="78.775" xlink:href="#m0dd6398c3b" y="14.798437"/>
      </g>
     </g>
     <g id="text_16">
      <!-- 800 -->
      <g transform="translate(33.6 22.396875)scale(0.2 -0.2)">
       <use xlink:href="#DejaVuSans-56"/>
       <use x="63.623047" xlink:href="#DejaVuSans-48"/>
       <use x="127.246094" xlink:href="#DejaVuSans-48"/>
      </g>
     </g>
    </g>
    <g id="text_17">
     <!-- $\rho_{MinD-ATP} [1/\mu m^2]$ -->
     <defs>
      <path d="M 18.796875 44.921875 
Q 22.703125 49.90625 30.953125 54.296875 
Q 34.1875 56 43.0625 56 
Q 53.03125 56 57.71875 48.09375 
Q 62.40625 40.1875 59.90625 27.296875 
Q 57.375 14.40625 49.609375 6.484375 
Q 41.84375 -1.421875 31.890625 -1.421875 
Q 25.875 -1.421875 22.015625 0.984375 
Q 18.171875 3.328125 16.3125 8.203125 
L 10.640625 -20.796875 
L 1.609375 -20.796875 
L 10.890625 26.8125 
Q 13.09375 38.09375 18.796875 44.921875 
z
M 50.59375 27.296875 
Q 52.484375 37.203125 49.515625 42.875 
Q 46.53125 48.484375 39.40625 48.484375 
Q 32.28125 48.484375 27.09375 42.875 
Q 21.921875 37.203125 20.015625 27.296875 
Q 18.0625 17.390625 21.046875 11.71875 
Q 24.03125 6.109375 31.15625 6.109375 
Q 38.28125 6.109375 43.453125 11.71875 
Q 48.640625 17.390625 50.59375 27.296875 
z
" id="DejaVuSans-Oblique-961"/>
      <path d="M 16.890625 72.90625 
L 31.6875 72.90625 
L 40.1875 23.78125 
L 68.40625 72.90625 
L 83.59375 72.90625 
L 69.390625 0 
L 59.8125 0 
L 72.21875 63.921875 
L 43.609375 14.015625 
L 33.984375 14.015625 
L 24.703125 64.109375 
L 12.3125 0 
L 2.6875 0 
z
" id="DejaVuSans-Oblique-77"/>
      <path d="M 18.3125 75.984375 
L 27.296875 75.984375 
L 25.09375 64.59375 
L 16.109375 64.59375 
z
M 14.203125 54.6875 
L 23.1875 54.6875 
L 12.5 0 
L 3.515625 0 
z
" id="DejaVuSans-Oblique-105"/>
      <path d="M 55.71875 33.015625 
L 49.3125 0 
L 40.28125 0 
L 46.6875 32.671875 
Q 47.125 34.96875 47.359375 36.71875 
Q 47.609375 38.484375 47.609375 39.5 
Q 47.609375 43.609375 45.015625 45.890625 
Q 42.4375 48.1875 37.796875 48.1875 
Q 30.5625 48.1875 25.34375 43.375 
Q 20.125 38.578125 18.5 30.328125 
L 12.5 0 
L 3.515625 0 
L 14.109375 54.6875 
L 23.09375 54.6875 
L 21.296875 46.09375 
Q 25.046875 50.828125 30.3125 53.40625 
Q 35.59375 56 41.40625 56 
Q 48.640625 56 52.609375 52.09375 
Q 56.59375 48.1875 56.59375 41.109375 
Q 56.59375 39.359375 56.375 37.359375 
Q 56.15625 35.359375 55.71875 33.015625 
z
" id="DejaVuSans-Oblique-110"/>
      <path d="M 16.890625 72.90625 
L 38.09375 72.90625 
Q 54.984375 72.90625 63.59375 65.75 
Q 72.21875 58.59375 72.21875 44.484375 
Q 72.21875 35.15625 68.9375 26.53125 
Q 65.671875 17.921875 59.90625 12.015625 
Q 54.109375 5.953125 45.171875 2.96875 
Q 36.234375 0 24.03125 0 
L 2.6875 0 
z
M 25.203125 64.796875 
L 14.203125 8.109375 
L 27.09375 8.109375 
Q 43.65625 8.109375 52.734375 17.625 
Q 61.8125 27.15625 61.8125 44.484375 
Q 61.8125 54.984375 55.953125 59.890625 
Q 50.09375 64.796875 37.59375 64.796875 
z
" id="DejaVuSans-Oblique-68"/>
      <path d="M 10.59375 35.5 
L 73.1875 35.5 
L 73.1875 27.203125 
L 10.59375 27.203125 
z
" id="DejaVuSans-8722"/>
      <path d="M 36.8125 72.90625 
L 48 72.90625 
L 61.53125 0 
L 51.21875 0 
L 48.1875 18.703125 
L 15.375 18.703125 
L 5.078125 0 
L -5.328125 0 
z
M 40.375 63.1875 
L 19.921875 26.90625 
L 46.6875 26.90625 
z
" id="DejaVuSans-Oblique-65"/>
      <path d="M 5.90625 72.90625 
L 67.578125 72.90625 
L 66.015625 64.59375 
L 39.984375 64.59375 
L 27.484375 0 
L 17.578125 0 
L 30.078125 64.59375 
L 4.296875 64.59375 
z
" id="DejaVuSans-Oblique-84"/>
      <path d="M 16.890625 72.90625 
L 39.703125 72.90625 
Q 49.65625 72.90625 54.875 68.265625 
Q 60.109375 63.625 60.109375 54.6875 
Q 60.109375 42.671875 52.390625 35.984375 
Q 44.671875 29.296875 30.71875 29.296875 
L 18.3125 29.296875 
L 12.59375 0 
L 2.6875 0 
z
M 25.203125 64.796875 
L 19.921875 37.40625 
L 32.328125 37.40625 
Q 40.71875 37.40625 45.203125 41.703125 
Q 49.703125 46 49.703125 54 
Q 49.703125 59.125 46.65625 61.953125 
Q 43.609375 64.796875 38.09375 64.796875 
z
" id="DejaVuSans-Oblique-80"/>
      <path d="M 25.390625 72.90625 
L 33.6875 72.90625 
L 8.296875 -9.28125 
L 0 -9.28125 
z
" id="DejaVuSans-47"/>
      <path d="M -1.3125 -20.796875 
L 13.375 54.6875 
L 22.40625 54.6875 
L 15.765625 20.65625 
Q 15.578125 19.625 15.421875 18.359375 
Q 15.28125 17.09375 15.28125 15.828125 
Q 15.28125 11.28125 18.140625 8.828125 
Q 21 6.390625 26.3125 6.390625 
Q 33.546875 6.390625 37.984375 10.484375 
Q 42.4375 14.59375 44 22.796875 
L 50.203125 54.6875 
L 59.1875 54.6875 
L 51.03125 12.640625 
Q 50.828125 11.71875 50.75 11.03125 
Q 50.6875 10.359375 50.6875 9.8125 
Q 50.6875 8.296875 51.296875 7.59375 
Q 51.90625 6.890625 53.21875 6.890625 
Q 53.71875 6.890625 54.5625 7.125 
Q 55.421875 7.375 56.984375 8.015625 
L 55.609375 0.78125 
Q 53.46875 -0.296875 51.515625 -0.859375 
Q 49.5625 -1.421875 47.703125 -1.421875 
Q 44.484375 -1.421875 42.65625 0.625 
Q 40.828125 2.6875 40.828125 6.296875 
Q 38.09375 2.390625 34.296875 0.484375 
Q 30.515625 -1.421875 25.390625 -1.421875 
Q 20.84375 -1.421875 17.453125 0.671875 
Q 14.0625 2.78125 12.984375 6.203125 
L 7.71875 -20.796875 
z
" id="DejaVuSans-Oblique-956"/>
      <path d="M 89.796875 33.015625 
L 83.40625 0 
L 74.421875 0 
L 80.71875 32.71875 
Q 81.109375 34.8125 81.296875 36.328125 
Q 81.5 37.84375 81.5 38.921875 
Q 81.5 43.3125 79.046875 45.75 
Q 76.609375 48.1875 72.21875 48.1875 
Q 65.671875 48.1875 60.546875 43.28125 
Q 55.421875 38.375 53.90625 30.515625 
L 47.90625 0 
L 38.921875 0 
L 45.3125 32.71875 
Q 45.703125 34.515625 45.890625 36.046875 
Q 46.09375 37.59375 46.09375 38.8125 
Q 46.09375 43.265625 43.65625 45.71875 
Q 41.21875 48.1875 36.921875 48.1875 
Q 30.28125 48.1875 25.140625 43.28125 
Q 20.015625 38.375 18.5 30.515625 
L 12.5 0 
L 3.515625 0 
L 14.203125 54.6875 
L 23.1875 54.6875 
L 21.484375 46.1875 
Q 25.140625 50.984375 30.046875 53.484375 
Q 34.96875 56 40.578125 56 
Q 46.53125 56 50.359375 52.875 
Q 54.203125 49.75 54.984375 44.1875 
Q 59.078125 49.953125 64.46875 52.96875 
Q 69.875 56 75.875 56 
Q 82.90625 56 86.734375 51.953125 
Q 90.578125 47.90625 90.578125 40.484375 
Q 90.578125 38.875 90.375 36.9375 
Q 90.1875 35.015625 89.796875 33.015625 
z
" id="DejaVuSans-Oblique-109"/>
     </defs>
     <g transform="translate(25.4 214.154437)rotate(-90)scale(0.2 -0.2)">
      <use transform="translate(0 0.765625)" xlink:href="#DejaVuSans-Oblique-961"/>
      <use transform="translate(63.476562 -15.640625)scale(0.7)" xlink:href="#DejaVuSans-Oblique-77"/>
      <use transform="translate(123.87207 -15.640625)scale(0.7)" xlink:href="#DejaVuSans-Oblique-105"/>
      <use transform="translate(143.320312 -15.640625)scale(0.7)" xlink:href="#DejaVuSans-Oblique-110"/>
      <use transform="translate(187.685547 -15.640625)scale(0.7)" xlink:href="#DejaVuSans-Oblique-68"/>
      <use transform="translate(255.224609 -15.640625)scale(0.7)" xlink:href="#DejaVuSans-8722"/>
      <use transform="translate(327.514648 -15.640625)scale(0.7)" xlink:href="#DejaVuSans-Oblique-65"/>
      <use transform="translate(375.400391 -15.640625)scale(0.7)" xlink:href="#DejaVuSans-Oblique-84"/>
      <use transform="translate(418.15918 -15.640625)scale(0.7)" xlink:href="#DejaVuSans-Oblique-80"/>
      <use transform="translate(463.105469 0.765625)" xlink:href="#DejaVuSans-91"/>
      <use transform="translate(502.119141 0.765625)" xlink:href="#DejaVuSans-49"/>
      <use transform="translate(565.742188 0.765625)" xlink:href="#DejaVuSans-47"/>
      <use transform="translate(599.433594 0.765625)" xlink:href="#DejaVuSans-Oblique-956"/>
      <use transform="translate(663.056641 0.765625)" xlink:href="#DejaVuSans-Oblique-109"/>
      <use transform="translate(765.118646 39.046875)scale(0.7)" xlink:href="#DejaVuSans-50"/>
      <use transform="translate(812.389154 0.765625)" xlink:href="#DejaVuSans-93"/>
     </g>
    </g>
   </g>
   <g id="line2d_16">
    <path clip-path="url(#p2dd989866c)" d="M 78.775 243.110437 
L 81.379 220.593922 
L 83.983 222.881964 
L 86.587 225.625392 
L 89.191 227.484227 
L 91.795 228.605789 
L 94.399 228.884477 
L 97.003 228.25699 
L 99.607 226.680658 
L 102.211 224.142021 
L 104.815 220.744555 
L 107.419 216.871192 
L 110.023 213.354285 
L 112.627 211.466454 
L 115.231 212.491712 
L 117.835 216.877348 
L 123.043 229.82363 
L 125.647 233.853037 
L 128.251 235.365605 
L 130.855 234.943564 
L 133.459 232.675728 
L 136.063 227.991867 
L 138.667 219.952594 
L 141.271 208.076753 
L 143.875 194.142169 
L 146.479 183.881109 
L 149.083 184.803285 
L 151.687 199.4473 
L 154.291 220.405558 
L 156.895 234.12159 
L 159.499 237.890556 
L 162.103 237.84754 
L 164.707 235.626725 
L 167.311 230.278849 
L 169.915 219.804606 
L 172.519 202.806873 
L 175.123 182.236184 
L 177.727 168.248135 
L 180.331 172.407548 
L 182.935 195.631169 
L 185.539 223.109604 
L 188.143 236.081229 
L 190.747 238.311347 
L 193.351 237.515169 
L 195.955 234.280517 
L 198.559 226.996212 
L 201.163 213.369426 
L 206.371 172.489747 
L 208.975 164.435 
L 211.579 177.932992 
L 214.183 206.898521 
L 216.787 230.586579 
L 219.391 237.621221 
L 221.995 238.21795 
L 224.599 236.474913 
L 227.203 231.744013 
L 229.807 221.906403 
L 232.411 205.027085 
L 235.015 183.161815 
L 237.619 166.182869 
L 240.223 167.149017 
L 242.827 189.323843 
L 245.431 219.131411 
L 248.035 235.163384 
L 250.639 238.227692 
L 253.243 237.730294 
L 255.847 234.873257 
L 258.451 228.213087 
L 261.055 215.415013 
L 263.659 195.679523 
L 266.263 174.358257 
L 268.867 164.05374 
L 271.471 175.090134 
L 274.075 203.307939 
L 276.679 228.791204 
L 279.283 237.310085 
L 281.887 238.272456 
L 284.491 236.795696 
L 287.095 232.49623 
L 289.699 223.346368 
L 292.303 207.206468 
L 294.907 185.270647 
L 297.511 166.200765 
L 300.115 163.164671 
L 302.719 181.973756 
L 305.323 212.792201 
L 307.927 233.345389 
L 310.531 238.044666 
L 313.135 237.973721 
L 315.739 235.614834 
L 318.343 229.903652 
L 320.947 218.731099 
L 326.155 183.337014 
L 328.759 179.069973 
L 331.363 196.992664 
L 333.967 222.431952 
L 336.571 234.858753 
L 339.175 237.67149 
L 341.779 237.637707 
L 344.383 235.646614 
L 346.987 230.430578 
L 349.591 219.5059 
L 352.195 200.338076 
L 354.799 171.426822 
L 357.403 131.822642 
L 360.007 83.212973 
L 362.611 39.196587 
L 365.215 31.5522 
L 367.819 96.973704 
L 370.423 218.106806 
L 373.027 238.350397 
L 375.631 239.236018 
L 378.235 239.060802 
L 380.839 238.210223 
L 383.443 236.281511 
L 386.047 232.200184 
L 388.651 224.566475 
L 391.255 213.692598 
L 393.859 201.689728 
L 396.463 187.294883 
L 399.067 164.862176 
L 401.671 131.732551 
L 404.275 96.957815 
L 406.879 93.96215 
L 412.087 236.643671 
L 414.691 239.62807 
L 417.295 239.760778 
L 419.899 239.028347 
L 422.503 237.092493 
L 425.107 232.75119 
L 427.711 224.506016 
L 430.315 213.056519 
L 432.919 200.657287 
L 435.523 185.090267 
L 438.127 160.491829 
L 440.731 125.254685 
L 443.335 91.771677 
L 445.939 98.153046 
L 448.543 183.280454 
L 451.147 237.884846 
L 453.751 239.721925 
L 456.355 239.707043 
L 458.959 238.828903 
L 461.563 236.620622 
L 464.167 231.744125 
L 466.771 222.857485 
L 469.375 211.128212 
L 471.979 198.54901 
L 474.583 181.916933 
L 477.187 155.543195 
L 479.791 119.187939 
L 482.395 88.773813 
L 484.999 106.012096 
L 487.603 200.426822 
L 490.207 238.55339 
L 492.811 239.780811 
L 495.415 239.629158 
L 498.019 238.593173 
L 500.623 236.076789 
L 503.227 230.623098 
L 505.831 221.131997 
L 508.435 209.202477 
L 511.039 196.368017 
L 513.643 178.521369 
L 516.247 150.351254 
L 518.851 113.247645 
L 521.455 86.997072 
L 524.059 116.15954 
L 526.663 215.325032 
L 529.267 238.969028 
L 531.871 239.813829 
L 534.475 239.530847 
L 537.079 238.322889 
L 539.683 235.460695 
L 542.287 229.395015 
L 544.891 219.345293 
L 547.495 207.271379 
L 550.099 194.064746 
L 552.703 174.860769 
L 555.307 144.904429 
L 557.911 107.512063 
L 560.515 86.604909 
L 563.119 128.553988 
L 565.723 226.258277 
L 568.327 239.24976 
L 570.931 239.823858 
L 573.535 239.411096 
L 576.139 238.013846 
L 578.743 234.764694 
L 581.347 228.060685 
L 583.951 217.509726 
L 586.555 205.330572 
L 589.159 191.610468 
L 591.763 170.921106 
L 594.367 139.232398 
L 596.971 102.120877 
L 599.575 87.807555 
L 602.179 143.067171 
L 604.783 232.750724 
L 607.387 239.448423 
L 609.991 239.812719 
L 612.595 239.268503 
L 615.199 237.661196 
L 617.803 233.981327 
L 620.407 226.623616 
L 623.011 215.637642 
L 625.615 203.369987 
L 628.219 188.97892 
L 630.823 166.69356 
L 633.427 133.378784 
L 636.031 97.235713 
L 638.635 90.805654 
L 641.239 159.372087 
L 643.843 235.982656 
L 646.447 239.591431 
L 649.051 239.781448 
L 651.655 239.101217 
L 654.259 237.259388 
L 656.863 233.103697 
L 659.467 225.089871 
L 662.071 213.740233 
L 664.675 201.372762 
L 667.279 186.145676 
L 669.883 162.174046 
L 675.091 93.036823 
L 677.695 95.77933 
L 680.299 176.828643 
L 682.903 237.532364 
L 685.507 239.693299 
L 688.111 239.730509 
L 690.715 238.906938 
L 693.319 236.802212 
L 695.923 232.12594 
L 698.527 223.467897 
L 701.131 211.82686 
L 703.735 199.316377 
L 706.339 183.088467 
L 708.943 157.364153 
L 711.547 121.375611 
L 714.151 89.720512 
L 716.755 102.877339 
L 719.359 194.340387 
L 721.963 238.349126 
L 724.567 239.762583 
L 727.171 239.65987 
L 729.775 238.682847 
L 732.379 236.28283 
L 734.983 231.043725 
L 737.587 221.7681 
L 740.191 209.904215 
L 742.795 197.174614 
L 745.399 179.787487 
L 748.003 152.272507 
L 750.607 115.393706 
L 753.211 87.494844 
L 755.815 112.201957 
L 758.419 210.281782 
L 761.023 238.837455 
L 763.627 239.804597 
L 766.231 239.569076 
L 768.835 238.425579 
L 771.439 235.693918 
L 774.043 229.854666 
L 776.647 220.00231 
L 779.251 207.975452 
L 781.855 194.919589 
L 784.459 176.225588 
L 787.063 146.916007 
L 789.667 109.568871 
L 792.271 86.574143 
L 794.875 123.785093 
L 797.479 222.805708 
L 800.083 239.15902 
L 802.687 239.82274 
L 805.291 239.457274 
L 807.895 238.131176 
L 810.499 235.027897 
L 813.103 228.558765 
L 815.707 218.183068 
L 818.311 206.03899 
L 820.915 192.523446 
L 823.519 172.388806 
L 826.123 141.321635 
L 828.727 104.034604 
L 831.331 87.172019 
L 833.935 137.551848 
L 836.539 230.85217 
L 839.143 239.383562 
L 841.747 239.819147 
L 844.351 239.323184 
L 846.955 237.795007 
L 849.559 234.277179 
L 852.163 227.158526 
L 854.767 216.322896 
L 857.371 204.087199 
L 859.975 189.959377 
L 859.975 189.959377 
" style="fill:none;stroke:#1f77b4;stroke-linecap:square;stroke-width:1.5;"/>
   </g>
   <g id="line2d_17">
    <path clip-path="url(#p2dd989866c)" d="M 78.775 243.110437 
L 81.379 220.593922 
L 83.983 222.881957 
L 86.587 225.625387 
L 89.191 227.484223 
L 91.795 228.605785 
L 94.399 228.884474 
L 97.003 228.256987 
L 99.607 226.680656 
L 102.211 224.142019 
L 104.815 220.744552 
L 107.419 216.87119 
L 110.023 213.354284 
L 112.627 211.466455 
L 115.231 212.491715 
L 117.835 216.877354 
L 123.043 229.823635 
L 125.647 233.853039 
L 128.251 235.365606 
L 130.855 234.943563 
L 133.459 232.675727 
L 136.063 227.991863 
L 138.667 219.952586 
L 141.271 208.076736 
L 143.875 194.142132 
L 146.479 183.881033 
L 149.083 184.803153 
L 151.687 199.447124 
L 154.291 220.405418 
L 156.895 234.121544 
L 159.499 237.890551 
L 162.103 237.847545 
L 164.707 235.62674 
L 167.311 230.278884 
L 169.915 219.804683 
L 172.519 202.807032 
L 175.123 182.236534 
L 177.727 168.248926 
L 180.331 172.40901 
L 182.935 195.633004 
L 185.539 223.110752 
L 188.143 236.081446 
L 190.747 238.311354 
L 193.351 237.515113 
L 195.955 234.280364 
L 198.559 226.995841 
L 201.163 213.368619 
L 206.371 172.485804 
L 208.975 164.426453 
L 211.579 177.91906 
L 214.183 206.88467 
L 216.787 230.581203 
L 219.391 237.620591 
L 221.995 238.218112 
L 224.599 236.475605 
L 227.203 231.745807 
L 229.807 221.910584 
L 232.411 205.035926 
L 235.015 183.181235 
L 237.619 166.227919 
L 240.223 167.237351 
L 242.827 189.443868 
L 245.431 219.216728 
L 248.035 235.181951 
L 250.639 238.228893 
L 253.243 237.72741 
L 255.847 234.864815 
L 258.451 228.192148 
L 261.055 215.368571 
L 263.659 195.581646 
L 266.263 174.133976 
L 268.867 163.556123 
L 271.471 174.240335 
L 274.075 202.393838 
L 276.679 228.379086 
L 279.283 237.255951 
L 281.887 238.27895 
L 284.491 236.833944 
L 287.095 232.597305 
L 289.699 223.58556 
L 292.303 207.71622 
L 294.907 186.377056 
L 297.511 168.77636 
L 300.115 168.381699 
L 302.719 189.466674 
L 305.323 218.709911 
L 307.927 234.870542 
L 310.531 238.171799 
L 313.135 237.821146 
L 315.739 235.142032 
L 318.343 228.717163 
L 320.947 216.06392 
L 323.551 195.666807 
L 326.155 170.615509 
L 328.759 150.474208 
L 331.363 146.786809 
L 333.967 165.339575 
L 336.571 200.874112 
L 339.175 230.023081 
L 341.779 237.556574 
L 344.383 237.836954 
L 346.987 235.972645 
L 349.591 232.029243 
L 352.195 226.764034 
L 354.799 227.557978 
L 357.403 237.426923 
L 360.007 239.629618 
L 362.611 239.052976 
L 365.215 236.563604 
L 367.819 231.055184 
L 370.423 223.02148 
L 373.027 214.47351 
L 375.631 203.81095 
L 378.235 186.171858 
L 380.839 158.061577 
L 383.443 121.766746 
L 386.047 96.143376 
L 388.651 121.932102 
L 391.255 213.367227 
L 393.859 238.889405 
L 396.463 239.814032 
L 399.067 239.55434 
L 401.671 238.378529 
L 404.275 235.602827 
L 406.879 229.745549 
L 409.483 219.960325 
L 412.087 208.03048 
L 414.691 195.015938 
L 417.295 176.345141 
L 419.899 147.127943 
L 422.503 110.063494 
L 425.107 87.639604 
L 427.711 125.409911 
L 430.315 223.492895 
L 432.919 239.192821 
L 435.523 239.836932 
L 438.127 239.462872 
L 440.731 238.127714 
L 443.335 235.008837 
L 445.939 228.51701 
L 448.543 218.129631 
L 451.147 205.99125 
L 453.751 192.460083 
L 456.355 172.270878 
L 458.959 141.150258 
L 461.563 103.918735 
L 464.167 87.402257 
L 466.771 138.369118 
L 469.375 231.134644 
L 471.979 239.395462 
L 474.583 239.820815 
L 477.187 239.318489 
L 479.791 237.780556 
L 482.395 234.243092 
L 484.999 227.09539 
L 487.603 216.241827 
L 490.207 204.003659 
L 492.811 189.845231 
L 495.415 168.080788 
L 498.019 135.27236 
L 500.623 98.745541 
L 503.227 89.672715 
L 505.831 154.043866 
L 508.435 235.205034 
L 511.039 239.551459 
L 513.643 239.793912 
L 516.247 239.157555 
L 518.851 237.393204 
L 521.455 233.393808 
L 524.059 225.588202 
L 526.663 214.346572 
L 529.267 202.0142 
L 531.871 187.071209 
L 534.475 163.644584 
L 539.683 94.28952 
L 542.287 93.978535 
L 544.891 171.212632 
L 547.495 237.150249 
L 550.099 239.664848 
L 552.703 239.748889 
L 555.307 238.971847 
L 557.911 236.954028 
L 560.515 232.448024 
L 563.119 223.992627 
L 565.723 212.436567 
L 568.327 199.978284 
L 570.931 184.086177 
L 573.535 158.924725 
L 576.139 123.291884 
L 578.743 90.667343 
L 581.347 100.383965 
L 583.951 188.856408 
L 586.555 238.137314 
L 589.159 239.74373 
L 591.763 239.684491 
L 594.367 238.757521 
L 596.971 236.455138 
L 599.575 231.399296 
L 602.179 222.31623 
L 604.783 210.516183 
L 607.387 197.866454 
L 609.991 180.864448 
L 612.595 153.920921 
L 615.199 117.284269 
L 617.803 88.07139 
L 620.407 108.992527 
L 623.011 205.499922 
L 625.615 238.705322 
L 628.219 239.793961 
L 630.823 239.600169 
L 633.427 238.511191 
L 636.031 235.889136 
L 638.635 230.244313 
L 641.239 220.570068 
L 643.843 208.589273 
L 646.447 195.650475 
L 649.051 177.387165 
L 651.655 148.646203 
L 654.259 111.395989 
L 656.863 86.712352 
L 659.467 119.859371 
L 662.071 219.289522 
L 664.675 239.069606 
L 667.279 239.819408 
L 669.883 239.495162 
L 672.487 238.229063 
L 675.091 235.248459 
L 677.695 228.982233 
L 680.299 218.766447 
L 682.903 206.655771 
L 685.507 193.302158 
L 688.111 173.639064 
L 690.715 143.123838 
L 693.319 105.753553 
L 695.923 86.804556 
L 698.527 132.948581 
L 701.131 228.774055 
L 703.735 239.320208 
L 706.339 239.822543 
L 708.943 239.368315 
L 711.547 237.906709 
L 714.151 234.525469 
L 716.755 227.614729 
L 719.359 216.917967 
L 721.963 204.710097 
L 724.567 190.794296 
L 727.171 169.60864 
L 729.775 137.388718 
L 732.379 100.504761 
L 734.983 88.55691 
L 737.587 148.079335 
L 740.191 234.049097 
L 742.795 239.499065 
L 745.399 239.804926 
L 748.003 239.218098 
L 750.607 237.539071 
L 753.211 233.712847 
L 755.815 226.146134 
L 758.419 215.036675 
L 761.023 202.739966 
L 763.627 188.101137 
L 766.231 165.28842 
L 768.835 131.488733 
L 771.439 95.817303 
L 774.043 92.164744 
L 779.251 236.597744 
L 781.855 239.627772 
L 784.459 239.767371 
L 787.063 239.042498 
L 789.667 237.12036 
L 792.271 232.803949 
L 794.875 224.58331 
L 797.479 213.133272 
L 800.083 200.72659 
L 802.687 185.198991 
L 805.291 160.676099 
L 807.895 125.487106 
L 810.499 91.877068 
L 813.103 97.799543 
L 815.707 182.45711 
L 818.311 237.844688 
L 820.915 239.718555 
L 823.519 239.7102 
L 826.123 238.839076 
L 828.727 236.644175 
L 831.331 231.793367 
L 833.935 222.935395 
L 836.539 211.21639 
L 839.143 198.646046 
L 841.747 182.06634 
L 844.351 155.775369 
L 846.955 119.464158 
L 849.559 88.884635 
L 852.163 105.5973 
L 854.767 199.66856 
L 857.371 238.529417 
L 859.975 239.778705 
L 859.975 239.778705 
" style="fill:none;stroke:#ff7f0e;stroke-linecap:square;stroke-width:1.5;"/>
   </g>
   <g id="patch_3">
    <path d="M 78.775 243.110437 
L 78.775 14.798437 
" style="fill:none;stroke:#000000;stroke-linecap:square;stroke-linejoin:miter;stroke-width:0.8;"/>
   </g>
   <g id="patch_4">
    <path d="M 859.975 243.110437 
L 859.975 14.798437 
" style="fill:none;stroke:#000000;stroke-linecap:square;stroke-linejoin:miter;stroke-width:0.8;"/>
   </g>
   <g id="patch_5">
    <path d="M 78.775 243.110437 
L 859.975 243.110437 
" style="fill:none;stroke:#000000;stroke-linecap:square;stroke-linejoin:miter;stroke-width:0.8;"/>
   </g>
   <g id="patch_6">
    <path d="M 78.775 14.798437 
L 859.975 14.798437 
" style="fill:none;stroke:#000000;stroke-linecap:square;stroke-linejoin:miter;stroke-width:0.8;"/>
   </g>
  </g>
 </g>
 <defs>
  <clipPath id="p2dd989866c">
   <rect height="228.312" width="781.2" x="78.775" y="14.798437"/>
  </clipPath>
 </defs>
</svg>
