<?xml version="1.0" encoding="utf-8" standalone="no"?>
<!DOCTYPE svg PUBLIC "-//W3C//DTD SVG 1.1//EN"
  "http://www.w3.org/Graphics/SVG/1.1/DTD/svg11.dtd">
<!-- Created with matplotlib (https://matplotlib.org/) -->
<svg height="258.197pt" version="1.1" viewBox="0 0 250.96 258.197" width="250.96pt" xmlns="http://www.w3.org/2000/svg" xmlns:xlink="http://www.w3.org/1999/xlink">
 <defs>
  <style type="text/css">
*{stroke-linecap:butt;stroke-linejoin:round;}
  </style>
 </defs>
 <g id="figure_1">
  <g id="patch_1">
   <path d="M 0 258.197 
L 250.96 258.197 
L 250.96 0 
L 0 0 
z
" style="fill:#ffffff;"/>
  </g>
  <g id="axes_1">
   <g id="patch_2">
    <path d="M 66.66 241.59075 
L 240.26 241.59075 
L 240.26 13.27875 
L 66.66 13.27875 
z
" style="fill:#ffffff;"/>
   </g>
   <g id="matplotlib.axis_1">
    <g id="xtick_1">
     <g id="line2d_1">
      <defs>
       <path d="M 0 0 
L 0 3.5 
" id="m92b3fe5d00" style="stroke:#000000;stroke-width:0.8;"/>
      </defs>
      <g>
       <use style="stroke:#000000;stroke-width:0.8;" x="66.66" xlink:href="#m92b3fe5d00" y="241.59075"/>
      </g>
     </g>
    </g>
    <g id="xtick_2">
     <g id="line2d_2">
      <g>
       <use style="stroke:#000000;stroke-width:0.8;" x="153.46" xlink:href="#m92b3fe5d00" y="241.59075"/>
      </g>
     </g>
    </g>
    <g id="xtick_3">
     <g id="line2d_3">
      <g>
       <use style="stroke:#000000;stroke-width:0.8;" x="240.26" xlink:href="#m92b3fe5d00" y="241.59075"/>
      </g>
     </g>
    </g>
   </g>
   <g id="matplotlib.axis_2">
    <g id="ytick_1">
     <g id="line2d_4">
      <defs>
       <path d="M 0 0 
L -3.5 0 
" id="m4febd158d9" style="stroke:#000000;stroke-width:0.8;"/>
      </defs>
      <g>
       <use style="stroke:#000000;stroke-width:0.8;" x="66.66" xlink:href="#m4febd158d9" y="241.59075"/>
      </g>
     </g>
     <g id="text_1">
      <!-- 0 -->
      <defs>
       <path d="M 31.78125 66.40625 
Q 24.171875 66.40625 20.328125 58.90625 
Q 16.5 51.421875 16.5 36.375 
Q 16.5 21.390625 20.328125 13.890625 
Q 24.171875 6.390625 31.78125 6.390625 
Q 39.453125 6.390625 43.28125 13.890625 
Q 47.125 21.390625 47.125 36.375 
Q 47.125 51.421875 43.28125 58.90625 
Q 39.453125 66.40625 31.78125 66.40625 
z
M 31.78125 74.21875 
Q 44.046875 74.21875 50.515625 64.515625 
Q 56.984375 54.828125 56.984375 36.375 
Q 56.984375 17.96875 50.515625 8.265625 
Q 44.046875 -1.421875 31.78125 -1.421875 
Q 19.53125 -1.421875 13.0625 8.265625 
Q 6.59375 17.96875 6.59375 36.375 
Q 6.59375 54.828125 13.0625 64.515625 
Q 19.53125 74.21875 31.78125 74.21875 
z
" id="DejaVuSans-48"/>
      </defs>
      <g transform="translate(49.48 247.6695)scale(0.16 -0.16)">
       <use xlink:href="#DejaVuSans-48"/>
      </g>
     </g>
    </g>
    <g id="ytick_2">
     <g id="line2d_5">
      <g>
       <use style="stroke:#000000;stroke-width:0.8;" x="66.66" xlink:href="#m4febd158d9" y="184.51275"/>
      </g>
     </g>
     <g id="text_2">
      <!-- 200 -->
      <defs>
       <path d="M 19.1875 8.296875 
L 53.609375 8.296875 
L 53.609375 0 
L 7.328125 0 
L 7.328125 8.296875 
Q 12.9375 14.109375 22.625 23.890625 
Q 32.328125 33.6875 34.8125 36.53125 
Q 39.546875 41.84375 41.421875 45.53125 
Q 43.3125 49.21875 43.3125 52.78125 
Q 43.3125 58.59375 39.234375 62.25 
Q 35.15625 65.921875 28.609375 65.921875 
Q 23.96875 65.921875 18.8125 64.3125 
Q 13.671875 62.703125 7.8125 59.421875 
L 7.8125 69.390625 
Q 13.765625 71.78125 18.9375 73 
Q 24.125 74.21875 28.421875 74.21875 
Q 39.75 74.21875 46.484375 68.546875 
Q 53.21875 62.890625 53.21875 53.421875 
Q 53.21875 48.921875 51.53125 44.890625 
Q 49.859375 40.875 45.40625 35.40625 
Q 44.1875 33.984375 37.640625 27.21875 
Q 31.109375 20.453125 19.1875 8.296875 
z
" id="DejaVuSans-50"/>
      </defs>
      <g transform="translate(29.12 190.5915)scale(0.16 -0.16)">
       <use xlink:href="#DejaVuSans-50"/>
       <use x="63.623047" xlink:href="#DejaVuSans-48"/>
       <use x="127.246094" xlink:href="#DejaVuSans-48"/>
      </g>
     </g>
    </g>
    <g id="ytick_3">
     <g id="line2d_6">
      <g>
       <use style="stroke:#000000;stroke-width:0.8;" x="66.66" xlink:href="#m4febd158d9" y="127.43475"/>
      </g>
     </g>
     <g id="text_3">
      <!-- 400 -->
      <defs>
       <path d="M 37.796875 64.3125 
L 12.890625 25.390625 
L 37.796875 25.390625 
z
M 35.203125 72.90625 
L 47.609375 72.90625 
L 47.609375 25.390625 
L 58.015625 25.390625 
L 58.015625 17.1875 
L 47.609375 17.1875 
L 47.609375 0 
L 37.796875 0 
L 37.796875 17.1875 
L 4.890625 17.1875 
L 4.890625 26.703125 
z
" id="DejaVuSans-52"/>
      </defs>
      <g transform="translate(29.12 133.5135)scale(0.16 -0.16)">
       <use xlink:href="#DejaVuSans-52"/>
       <use x="63.623047" xlink:href="#DejaVuSans-48"/>
       <use x="127.246094" xlink:href="#DejaVuSans-48"/>
      </g>
     </g>
    </g>
    <g id="ytick_4">
     <g id="line2d_7">
      <g>
       <use style="stroke:#000000;stroke-width:0.8;" x="66.66" xlink:href="#m4febd158d9" y="70.35675"/>
      </g>
     </g>
     <g id="text_4">
      <!-- 600 -->
      <defs>
       <path d="M 33.015625 40.375 
Q 26.375 40.375 22.484375 35.828125 
Q 18.609375 31.296875 18.609375 23.390625 
Q 18.609375 15.53125 22.484375 10.953125 
Q 26.375 6.390625 33.015625 6.390625 
Q 39.65625 6.390625 43.53125 10.953125 
Q 47.40625 15.53125 47.40625 23.390625 
Q 47.40625 31.296875 43.53125 35.828125 
Q 39.65625 40.375 33.015625 40.375 
z
M 52.59375 71.296875 
L 52.59375 62.3125 
Q 48.875 64.0625 45.09375 64.984375 
Q 41.3125 65.921875 37.59375 65.921875 
Q 27.828125 65.921875 22.671875 59.328125 
Q 17.53125 52.734375 16.796875 39.40625 
Q 19.671875 43.65625 24.015625 45.921875 
Q 28.375 48.1875 33.59375 48.1875 
Q 44.578125 48.1875 50.953125 41.515625 
Q 57.328125 34.859375 57.328125 23.390625 
Q 57.328125 12.15625 50.6875 5.359375 
Q 44.046875 -1.421875 33.015625 -1.421875 
Q 20.359375 -1.421875 13.671875 8.265625 
Q 6.984375 17.96875 6.984375 36.375 
Q 6.984375 53.65625 15.1875 63.9375 
Q 23.390625 74.21875 37.203125 74.21875 
Q 40.921875 74.21875 44.703125 73.484375 
Q 48.484375 72.75 52.59375 71.296875 
z
" id="DejaVuSans-54"/>
      </defs>
      <g transform="translate(29.12 76.4355)scale(0.16 -0.16)">
       <use xlink:href="#DejaVuSans-54"/>
       <use x="63.623047" xlink:href="#DejaVuSans-48"/>
       <use x="127.246094" xlink:href="#DejaVuSans-48"/>
      </g>
     </g>
    </g>
    <g id="ytick_5">
     <g id="line2d_8">
      <g>
       <use style="stroke:#000000;stroke-width:0.8;" x="66.66" xlink:href="#m4febd158d9" y="13.27875"/>
      </g>
     </g>
     <g id="text_5">
      <!-- 800 -->
      <defs>
       <path d="M 31.78125 34.625 
Q 24.75 34.625 20.71875 30.859375 
Q 16.703125 27.09375 16.703125 20.515625 
Q 16.703125 13.921875 20.71875 10.15625 
Q 24.75 6.390625 31.78125 6.390625 
Q 38.8125 6.390625 42.859375 10.171875 
Q 46.921875 13.96875 46.921875 20.515625 
Q 46.921875 27.09375 42.890625 30.859375 
Q 38.875 34.625 31.78125 34.625 
z
M 21.921875 38.8125 
Q 15.578125 40.375 12.03125 44.71875 
Q 8.5 49.078125 8.5 55.328125 
Q 8.5 64.0625 14.71875 69.140625 
Q 20.953125 74.21875 31.78125 74.21875 
Q 42.671875 74.21875 48.875 69.140625 
Q 55.078125 64.0625 55.078125 55.328125 
Q 55.078125 49.078125 51.53125 44.71875 
Q 48 40.375 41.703125 38.8125 
Q 48.828125 37.15625 52.796875 32.3125 
Q 56.78125 27.484375 56.78125 20.515625 
Q 56.78125 9.90625 50.3125 4.234375 
Q 43.84375 -1.421875 31.78125 -1.421875 
Q 19.734375 -1.421875 13.25 4.234375 
Q 6.78125 9.90625 6.78125 20.515625 
Q 6.78125 27.484375 10.78125 32.3125 
Q 14.796875 37.15625 21.921875 38.8125 
z
M 18.3125 54.390625 
Q 18.3125 48.734375 21.84375 45.5625 
Q 25.390625 42.390625 31.78125 42.390625 
Q 38.140625 42.390625 41.71875 45.5625 
Q 45.3125 48.734375 45.3125 54.390625 
Q 45.3125 60.0625 41.71875 63.234375 
Q 38.140625 66.40625 31.78125 66.40625 
Q 25.390625 66.40625 21.84375 63.234375 
Q 18.3125 60.0625 18.3125 54.390625 
z
" id="DejaVuSans-56"/>
      </defs>
      <g transform="translate(29.12 19.3575)scale(0.16 -0.16)">
       <use xlink:href="#DejaVuSans-56"/>
       <use x="63.623047" xlink:href="#DejaVuSans-48"/>
       <use x="127.246094" xlink:href="#DejaVuSans-48"/>
      </g>
     </g>
    </g>
    <g id="text_6">
     <!-- $\rho_{MinD-ATP} [1/\mu m^2]$ -->
     <defs>
      <path d="M 18.796875 44.921875 
Q 22.703125 49.90625 30.953125 54.296875 
Q 34.1875 56 43.0625 56 
Q 53.03125 56 57.71875 48.09375 
Q 62.40625 40.1875 59.90625 27.296875 
Q 57.375 14.40625 49.609375 6.484375 
Q 41.84375 -1.421875 31.890625 -1.421875 
Q 25.875 -1.421875 22.015625 0.984375 
Q 18.171875 3.328125 16.3125 8.203125 
L 10.640625 -20.796875 
L 1.609375 -20.796875 
L 10.890625 26.8125 
Q 13.09375 38.09375 18.796875 44.921875 
z
M 50.59375 27.296875 
Q 52.484375 37.203125 49.515625 42.875 
Q 46.53125 48.484375 39.40625 48.484375 
Q 32.28125 48.484375 27.09375 42.875 
Q 21.921875 37.203125 20.015625 27.296875 
Q 18.0625 17.390625 21.046875 11.71875 
Q 24.03125 6.109375 31.15625 6.109375 
Q 38.28125 6.109375 43.453125 11.71875 
Q 48.640625 17.390625 50.59375 27.296875 
z
" id="DejaVuSans-Oblique-961"/>
      <path d="M 16.890625 72.90625 
L 31.6875 72.90625 
L 40.1875 23.78125 
L 68.40625 72.90625 
L 83.59375 72.90625 
L 69.390625 0 
L 59.8125 0 
L 72.21875 63.921875 
L 43.609375 14.015625 
L 33.984375 14.015625 
L 24.703125 64.109375 
L 12.3125 0 
L 2.6875 0 
z
" id="DejaVuSans-Oblique-77"/>
      <path d="M 18.3125 75.984375 
L 27.296875 75.984375 
L 25.09375 64.59375 
L 16.109375 64.59375 
z
M 14.203125 54.6875 
L 23.1875 54.6875 
L 12.5 0 
L 3.515625 0 
z
" id="DejaVuSans-Oblique-105"/>
      <path d="M 55.71875 33.015625 
L 49.3125 0 
L 40.28125 0 
L 46.6875 32.671875 
Q 47.125 34.96875 47.359375 36.71875 
Q 47.609375 38.484375 47.609375 39.5 
Q 47.609375 43.609375 45.015625 45.890625 
Q 42.4375 48.1875 37.796875 48.1875 
Q 30.5625 48.1875 25.34375 43.375 
Q 20.125 38.578125 18.5 30.328125 
L 12.5 0 
L 3.515625 0 
L 14.109375 54.6875 
L 23.09375 54.6875 
L 21.296875 46.09375 
Q 25.046875 50.828125 30.3125 53.40625 
Q 35.59375 56 41.40625 56 
Q 48.640625 56 52.609375 52.09375 
Q 56.59375 48.1875 56.59375 41.109375 
Q 56.59375 39.359375 56.375 37.359375 
Q 56.15625 35.359375 55.71875 33.015625 
z
" id="DejaVuSans-Oblique-110"/>
      <path d="M 16.890625 72.90625 
L 38.09375 72.90625 
Q 54.984375 72.90625 63.59375 65.75 
Q 72.21875 58.59375 72.21875 44.484375 
Q 72.21875 35.15625 68.9375 26.53125 
Q 65.671875 17.921875 59.90625 12.015625 
Q 54.109375 5.953125 45.171875 2.96875 
Q 36.234375 0 24.03125 0 
L 2.6875 0 
z
M 25.203125 64.796875 
L 14.203125 8.109375 
L 27.09375 8.109375 
Q 43.65625 8.109375 52.734375 17.625 
Q 61.8125 27.15625 61.8125 44.484375 
Q 61.8125 54.984375 55.953125 59.890625 
Q 50.09375 64.796875 37.59375 64.796875 
z
" id="DejaVuSans-Oblique-68"/>
      <path d="M 10.59375 35.5 
L 73.1875 35.5 
L 73.1875 27.203125 
L 10.59375 27.203125 
z
" id="DejaVuSans-8722"/>
      <path d="M 36.8125 72.90625 
L 48 72.90625 
L 61.53125 0 
L 51.21875 0 
L 48.1875 18.703125 
L 15.375 18.703125 
L 5.078125 0 
L -5.328125 0 
z
M 40.375 63.1875 
L 19.921875 26.90625 
L 46.6875 26.90625 
z
" id="DejaVuSans-Oblique-65"/>
      <path d="M 5.90625 72.90625 
L 67.578125 72.90625 
L 66.015625 64.59375 
L 39.984375 64.59375 
L 27.484375 0 
L 17.578125 0 
L 30.078125 64.59375 
L 4.296875 64.59375 
z
" id="DejaVuSans-Oblique-84"/>
      <path d="M 16.890625 72.90625 
L 39.703125 72.90625 
Q 49.65625 72.90625 54.875 68.265625 
Q 60.109375 63.625 60.109375 54.6875 
Q 60.109375 42.671875 52.390625 35.984375 
Q 44.671875 29.296875 30.71875 29.296875 
L 18.3125 29.296875 
L 12.59375 0 
L 2.6875 0 
z
M 25.203125 64.796875 
L 19.921875 37.40625 
L 32.328125 37.40625 
Q 40.71875 37.40625 45.203125 41.703125 
Q 49.703125 46 49.703125 54 
Q 49.703125 59.125 46.65625 61.953125 
Q 43.609375 64.796875 38.09375 64.796875 
z
" id="DejaVuSans-Oblique-80"/>
      <path d="M 8.59375 75.984375 
L 29.296875 75.984375 
L 29.296875 69 
L 17.578125 69 
L 17.578125 -6.203125 
L 29.296875 -6.203125 
L 29.296875 -13.1875 
L 8.59375 -13.1875 
z
" id="DejaVuSans-91"/>
      <path d="M 12.40625 8.296875 
L 28.515625 8.296875 
L 28.515625 63.921875 
L 10.984375 60.40625 
L 10.984375 69.390625 
L 28.421875 72.90625 
L 38.28125 72.90625 
L 38.28125 8.296875 
L 54.390625 8.296875 
L 54.390625 0 
L 12.40625 0 
z
" id="DejaVuSans-49"/>
      <path d="M 25.390625 72.90625 
L 33.6875 72.90625 
L 8.296875 -9.28125 
L 0 -9.28125 
z
" id="DejaVuSans-47"/>
      <path d="M -1.3125 -20.796875 
L 13.375 54.6875 
L 22.40625 54.6875 
L 15.765625 20.65625 
Q 15.578125 19.625 15.421875 18.359375 
Q 15.28125 17.09375 15.28125 15.828125 
Q 15.28125 11.28125 18.140625 8.828125 
Q 21 6.390625 26.3125 6.390625 
Q 33.546875 6.390625 37.984375 10.484375 
Q 42.4375 14.59375 44 22.796875 
L 50.203125 54.6875 
L 59.1875 54.6875 
L 51.03125 12.640625 
Q 50.828125 11.71875 50.75 11.03125 
Q 50.6875 10.359375 50.6875 9.8125 
Q 50.6875 8.296875 51.296875 7.59375 
Q 51.90625 6.890625 53.21875 6.890625 
Q 53.71875 6.890625 54.5625 7.125 
Q 55.421875 7.375 56.984375 8.015625 
L 55.609375 0.78125 
Q 53.46875 -0.296875 51.515625 -0.859375 
Q 49.5625 -1.421875 47.703125 -1.421875 
Q 44.484375 -1.421875 42.65625 0.625 
Q 40.828125 2.6875 40.828125 6.296875 
Q 38.09375 2.390625 34.296875 0.484375 
Q 30.515625 -1.421875 25.390625 -1.421875 
Q 20.84375 -1.421875 17.453125 0.671875 
Q 14.0625 2.78125 12.984375 6.203125 
L 7.71875 -20.796875 
z
" id="DejaVuSans-Oblique-956"/>
      <path d="M 89.796875 33.015625 
L 83.40625 0 
L 74.421875 0 
L 80.71875 32.71875 
Q 81.109375 34.8125 81.296875 36.328125 
Q 81.5 37.84375 81.5 38.921875 
Q 81.5 43.3125 79.046875 45.75 
Q 76.609375 48.1875 72.21875 48.1875 
Q 65.671875 48.1875 60.546875 43.28125 
Q 55.421875 38.375 53.90625 30.515625 
L 47.90625 0 
L 38.921875 0 
L 45.3125 32.71875 
Q 45.703125 34.515625 45.890625 36.046875 
Q 46.09375 37.59375 46.09375 38.8125 
Q 46.09375 43.265625 43.65625 45.71875 
Q 41.21875 48.1875 36.921875 48.1875 
Q 30.28125 48.1875 25.140625 43.28125 
Q 20.015625 38.375 18.5 30.515625 
L 12.5 0 
L 3.515625 0 
L 14.203125 54.6875 
L 23.1875 54.6875 
L 21.484375 46.1875 
Q 25.140625 50.984375 30.046875 53.484375 
Q 34.96875 56 40.578125 56 
Q 46.53125 56 50.359375 52.875 
Q 54.203125 49.75 54.984375 44.1875 
Q 59.078125 49.953125 64.46875 52.96875 
Q 69.875 56 75.875 56 
Q 82.90625 56 86.734375 51.953125 
Q 90.578125 47.90625 90.578125 40.484375 
Q 90.578125 38.875 90.375 36.9375 
Q 90.1875 35.015625 89.796875 33.015625 
z
" id="DejaVuSans-Oblique-109"/>
      <path d="M 30.421875 75.984375 
L 30.421875 -13.1875 
L 9.71875 -13.1875 
L 9.71875 -6.203125 
L 21.390625 -6.203125 
L 21.390625 69 
L 9.71875 69 
L 9.71875 75.984375 
z
" id="DejaVuSans-93"/>
     </defs>
     <g transform="translate(21.76 195.59475)rotate(-90)scale(0.16 -0.16)">
      <use transform="translate(0 0.765625)" xlink:href="#DejaVuSans-Oblique-961"/>
      <use transform="translate(63.476562 -15.640625)scale(0.7)" xlink:href="#DejaVuSans-Oblique-77"/>
      <use transform="translate(123.87207 -15.640625)scale(0.7)" xlink:href="#DejaVuSans-Oblique-105"/>
      <use transform="translate(143.320312 -15.640625)scale(0.7)" xlink:href="#DejaVuSans-Oblique-110"/>
      <use transform="translate(187.685547 -15.640625)scale(0.7)" xlink:href="#DejaVuSans-Oblique-68"/>
      <use transform="translate(255.224609 -15.640625)scale(0.7)" xlink:href="#DejaVuSans-8722"/>
      <use transform="translate(327.514648 -15.640625)scale(0.7)" xlink:href="#DejaVuSans-Oblique-65"/>
      <use transform="translate(375.400391 -15.640625)scale(0.7)" xlink:href="#DejaVuSans-Oblique-84"/>
      <use transform="translate(418.15918 -15.640625)scale(0.7)" xlink:href="#DejaVuSans-Oblique-80"/>
      <use transform="translate(463.105469 0.765625)" xlink:href="#DejaVuSans-91"/>
      <use transform="translate(502.119141 0.765625)" xlink:href="#DejaVuSans-49"/>
      <use transform="translate(565.742188 0.765625)" xlink:href="#DejaVuSans-47"/>
      <use transform="translate(599.433594 0.765625)" xlink:href="#DejaVuSans-Oblique-956"/>
      <use transform="translate(663.056641 0.765625)" xlink:href="#DejaVuSans-Oblique-109"/>
      <use transform="translate(765.118646 39.046875)scale(0.7)" xlink:href="#DejaVuSans-50"/>
      <use transform="translate(812.389154 0.765625)" xlink:href="#DejaVuSans-93"/>
     </g>
    </g>
   </g>
   <g id="line2d_9">
    <path clip-path="url(#p3659228400)" d="M 66.66 241.59075 
L 67.528 28.270287 
L 68.396 21.389534 
L 69.265736 71.852194 
L 70.133736 87.908235 
L 71.001736 129.195606 
L 71.869736 163.602225 
L 72.737736 184.247337 
L 73.605736 214.065455 
L 74.473736 227.828103 
L 75.34 232.415747 
L 76.208 239.296985 
L 77.076 241.59075 
L 77.944 234.709426 
L 78.812 239.296985 
L 79.68 241.59075 
L 84.021736 241.59075 
L 84.889736 239.296985 
L 85.757736 223.240458 
L 86.625736 234.709426 
L 87.493736 239.296985 
L 88.361736 232.415747 
L 89.229736 209.478667 
L 90.097736 211.770349 
L 90.965736 202.597914 
L 91.833736 191.12809 
L 92.701736 175.072049 
L 93.569736 188.833555 
L 94.437736 168.191296 
L 95.305736 168.191296 
L 96.173736 149.840719 
L 97.041736 168.191296 
L 97.909736 161.307689 
L 98.777736 149.840719 
L 99.644 142.959966 
L 100.512 129.195606 
L 101.38 131.490142 
L 102.248 152.132401 
L 103.116 142.959966 
L 103.984 152.132401 
L 104.852 163.602225 
L 105.72 195.714307 
L 107.456 181.952802 
L 108.324 195.714307 
L 109.192 216.359135 
L 110.06 218.6531 
L 110.928 225.534423 
L 111.796 237.003106 
L 112.664 237.003106 
L 113.532 241.59075 
L 114.4 239.296985 
L 115.268 234.709426 
L 116.136 239.296985 
L 117.004 241.59075 
L 117.872 237.003106 
L 118.74 241.59075 
L 119.608 234.709426 
L 120.476 241.59075 
L 121.344 239.296985 
L 122.212 239.296985 
L 123.08 232.415747 
L 123.948 230.121782 
L 124.816 218.6531 
L 125.684 218.6531 
L 126.552 204.889596 
L 127.42 216.359135 
L 128.288 195.714307 
L 129.156 211.770349 
L 130.024 186.539019 
L 130.892 184.247337 
L 131.76 177.36373 
L 132.628 165.89676 
L 133.496 179.658266 
L 134.365736 159.016007 
L 135.233736 165.89676 
L 136.101736 136.076359 
L 136.969736 159.016007 
L 137.837736 126.901071 
L 138.705736 152.132401 
L 139.573736 161.307689 
L 140.441736 168.191296 
L 141.309736 170.482978 
L 142.177736 195.714307 
L 143.045736 186.539019 
L 143.913736 204.889596 
L 144.781736 209.478667 
L 145.649736 193.422626 
L 147.385736 232.415747 
L 149.121736 241.59075 
L 149.989736 237.003106 
L 150.857736 237.003106 
L 151.725736 241.59075 
L 152.593736 239.296985 
L 153.46 241.59075 
L 155.196 241.59075 
L 156.064 237.003106 
L 156.932 241.59075 
L 157.8 234.709426 
L 158.668 237.003106 
L 159.536 237.003106 
L 160.404 225.534423 
L 161.272 225.534423 
L 162.14 230.121782 
L 163.008 227.828103 
L 163.876 220.946779 
L 164.744 216.359135 
L 165.612 209.478667 
L 166.48 195.714307 
L 167.348 191.12809 
L 168.216 191.12809 
L 169.084 184.247337 
L 169.952 142.959966 
L 170.82 145.251648 
L 171.688 177.36373 
L 172.556 147.546183 
L 173.424 149.840719 
L 174.292 156.721472 
L 175.16 142.959966 
L 176.028 168.191296 
L 176.896 177.36373 
L 177.764 163.602225 
L 178.632 177.36373 
L 179.5 177.36373 
L 180.368 188.833555 
L 181.236 195.714307 
L 182.104 193.422626 
L 182.972 198.008843 
L 183.84 211.770349 
L 184.708 230.121782 
L 185.576 232.415747 
L 186.444 237.003106 
L 187.312 230.121782 
L 188.18 239.296985 
L 189.048 237.003106 
L 189.916 241.59075 
L 190.784 234.709426 
L 191.652 241.59075 
L 192.52 241.59075 
L 193.388 237.003106 
L 194.256 239.296985 
L 195.124 239.296985 
L 195.992 232.415747 
L 196.86 232.415747 
L 197.728 220.946779 
L 198.596 230.121782 
L 199.464 207.184132 
L 200.332 209.478667 
L 201.2 207.184132 
L 202.068 195.714307 
L 202.936 195.714307 
L 203.804 172.777513 
L 204.672 191.12809 
L 205.54 168.191296 
L 206.408 193.422626 
L 207.276 191.12809 
L 208.144 147.546183 
L 209.012 168.191296 
L 209.88 156.721472 
L 210.748 179.658266 
L 211.616 133.784677 
L 212.484 177.36373 
L 213.352 145.251648 
L 214.22 168.191296 
L 215.088 159.016007 
L 215.956 159.016007 
L 216.824 184.247337 
L 217.692 184.247337 
L 218.56 181.952802 
L 219.428 193.422626 
L 220.296 202.597914 
L 221.164 223.240458 
L 222.032 218.6531 
L 222.9 237.003106 
L 223.768 237.003106 
L 224.636 241.59075 
L 227.24 241.59075 
L 228.108 237.003106 
L 229.844 241.59075 
L 230.712 234.709426 
L 231.58 239.296985 
L 232.448 237.003106 
L 233.316 227.828103 
L 234.184 237.003106 
L 235.052 237.003106 
L 236.788 232.415747 
L 237.656 227.828103 
L 238.524 218.6531 
L 239.392 225.534423 
L 240.26 223.240458 
L 240.26 223.240458 
" style="fill:none;stroke:#1f77b4;stroke-linecap:square;stroke-width:1.5;"/>
   </g>
   <g id="line2d_10">
    <path clip-path="url(#p3659228400)" d="M 66.66 241.59075 
L 70.133736 241.59075 
L 71.001736 237.003106 
L 71.869736 237.003106 
L 72.737736 227.828103 
L 73.605736 225.534423 
L 74.473736 179.658266 
L 75.34 193.422626 
L 76.208 181.952802 
L 77.076 177.36373 
L 77.944 152.132401 
L 78.812 165.89676 
L 79.68 154.426936 
L 80.548 149.840719 
L 81.416 110.845029 
L 82.284 122.314853 
L 83.152 138.370895 
L 84.021736 131.490142 
L 84.889736 145.251648 
L 85.757736 117.725782 
L 86.625736 156.721472 
L 87.493736 175.072049 
L 88.361736 172.777513 
L 89.229736 207.184132 
L 90.097736 218.6531 
L 90.965736 227.828103 
L 91.833736 232.415747 
L 92.701736 234.709426 
L 93.569736 232.415747 
L 94.437736 237.003106 
L 95.305736 234.709426 
L 96.173736 241.59075 
L 97.041736 241.59075 
L 97.909736 234.709426 
L 98.777736 241.59075 
L 99.644 241.59075 
L 100.512 232.415747 
L 101.38 241.59075 
L 103.116 232.415747 
L 103.984 239.296985 
L 104.852 234.709426 
L 105.72 232.415747 
L 106.588 239.296985 
L 107.456 230.121782 
L 108.324 223.240458 
L 109.192 223.240458 
L 110.06 214.065455 
L 110.928 202.597914 
L 111.796 214.065455 
L 112.664 204.889596 
L 113.532 186.539019 
L 114.4 200.303379 
L 115.268 188.833555 
L 116.136 181.952802 
L 117.004 159.016007 
L 117.872 147.546183 
L 118.74 163.602225 
L 119.608 159.016007 
L 120.476 140.66543 
L 121.344 161.307689 
L 122.212 170.482978 
L 123.08 156.721472 
L 123.948 159.016007 
L 124.816 152.132401 
L 125.684 165.89676 
L 126.552 177.36373 
L 127.42 195.714307 
L 128.288 209.478667 
L 129.156 230.121782 
L 130.024 237.003106 
L 130.892 234.709426 
L 131.76 241.59075 
L 133.496 241.59075 
L 134.365736 239.296985 
L 136.969736 239.296985 
L 137.837736 237.003106 
L 138.705736 239.296985 
L 139.573736 239.296985 
L 140.441736 232.415747 
L 141.309736 234.709426 
L 142.177736 232.415747 
L 143.045736 225.534423 
L 143.913736 230.121782 
L 144.781736 223.240458 
L 145.649736 211.770349 
L 146.517736 202.597914 
L 147.385736 214.065455 
L 148.253736 202.597914 
L 149.121736 200.303379 
L 149.989736 186.539019 
L 150.857736 181.952802 
L 151.725736 159.016007 
L 152.593736 145.251648 
L 153.46 152.132401 
L 154.328 136.076359 
L 155.196 170.482978 
L 156.064 115.4341 
L 156.932 124.609389 
L 157.8 165.89676 
L 158.668 181.952802 
L 159.536 181.952802 
L 160.404 188.833555 
L 161.272 207.184132 
L 162.14 214.065455 
L 163.008 225.534423 
L 163.876 230.121782 
L 164.744 237.003106 
L 165.612 234.709426 
L 168.216 241.59075 
L 169.084 241.59075 
L 170.82 237.003106 
L 171.688 241.59075 
L 172.556 237.003106 
L 173.424 237.003106 
L 174.292 239.296985 
L 175.16 237.003106 
L 176.028 237.003106 
L 176.896 225.534423 
L 177.764 232.415747 
L 178.632 234.709426 
L 181.236 227.828103 
L 182.104 227.828103 
L 182.972 209.478667 
L 184.708 227.828103 
L 185.576 207.184132 
L 186.444 223.240458 
L 187.312 214.065455 
L 188.18 207.184132 
L 189.048 193.422626 
L 189.916 195.714307 
L 190.784 200.303379 
L 191.652 175.072049 
L 192.52 154.426936 
L 193.388 184.247337 
L 194.256 177.36373 
L 195.124 177.36373 
L 195.992 179.658266 
L 196.86 163.602225 
L 197.728 191.12809 
L 198.596 188.833555 
L 199.464 195.714307 
L 200.332 207.184132 
L 201.2 214.065455 
L 202.068 230.121782 
L 202.936 227.828103 
L 203.804 227.828103 
L 204.672 230.121782 
L 205.54 237.003106 
L 206.408 241.59075 
L 207.276 241.59075 
L 208.144 234.709426 
L 210.748 241.59075 
L 211.616 241.59075 
L 212.484 237.003106 
L 213.352 239.296985 
L 214.22 239.296985 
L 215.088 234.709426 
L 215.956 237.003106 
L 216.824 234.709426 
L 217.692 230.121782 
L 218.56 227.828103 
L 219.428 223.240458 
L 220.296 209.478667 
L 221.164 216.359135 
L 222.032 184.247337 
L 222.9 198.008843 
L 223.768 186.539019 
L 224.636 170.482978 
L 225.504 181.952802 
L 226.372 170.482978 
L 227.24 168.191296 
L 228.108 131.490142 
L 228.976 156.721472 
L 229.844 131.490142 
L 230.712 131.490142 
L 231.58 149.840719 
L 232.448 133.784677 
L 233.316 175.072049 
L 234.184 163.602225 
L 235.052 172.777513 
L 235.92 202.597914 
L 236.788 198.008843 
L 237.656 198.008843 
L 239.392 220.946779 
L 240.26 227.828103 
L 240.26 227.828103 
" style="fill:none;stroke:#ff7f0e;stroke-linecap:square;stroke-width:1.5;"/>
   </g>
   <g id="patch_3">
    <path d="M 66.66 241.59075 
L 66.66 13.27875 
" style="fill:none;stroke:#000000;stroke-linecap:square;stroke-linejoin:miter;stroke-width:0.8;"/>
   </g>
   <g id="patch_4">
    <path d="M 240.26 241.59075 
L 240.26 13.27875 
" style="fill:none;stroke:#000000;stroke-linecap:square;stroke-linejoin:miter;stroke-width:0.8;"/>
   </g>
   <g id="patch_5">
    <path d="M 66.66 241.59075 
L 240.26 241.59075 
" style="fill:none;stroke:#000000;stroke-linecap:square;stroke-linejoin:miter;stroke-width:0.8;"/>
   </g>
   <g id="patch_6">
    <path d="M 66.66 13.27875 
L 240.26 13.27875 
" style="fill:none;stroke:#000000;stroke-linecap:square;stroke-linejoin:miter;stroke-width:0.8;"/>
   </g>
  </g>
 </g>
 <defs>
  <clipPath id="p3659228400">
   <rect height="228.312" width="173.6" x="66.66" y="13.27875"/>
  </clipPath>
 </defs>
</svg>
