<?xml version="1.0" encoding="utf-8" standalone="no"?>
<!DOCTYPE svg PUBLIC "-//W3C//DTD SVG 1.1//EN"
  "http://www.w3.org/Graphics/SVG/1.1/DTD/svg11.dtd">
<!-- Created with matplotlib (https://matplotlib.org/) -->
<svg height="288.217pt" version="1.1" viewBox="0 0 860.15 288.217" width="860.15pt" xmlns="http://www.w3.org/2000/svg" xmlns:xlink="http://www.w3.org/1999/xlink">
 <defs>
  <style type="text/css">
*{stroke-linecap:butt;stroke-linejoin:round;}
  </style>
 </defs>
 <g id="figure_1">
  <g id="patch_1">
   <path d="M 0 288.217 
L 860.15 288.217 
L 860.15 -0 
L 0 -0 
z
" style="fill:#ffffff;"/>
  </g>
  <g id="axes_1">
   <g id="patch_2">
    <path d="M 66.66 239.012 
L 447.733171 239.012 
L 447.733171 10.7 
L 66.66 10.7 
z
" style="fill:#ffffff;"/>
   </g>
   <g id="matplotlib.axis_1">
    <g id="xtick_1">
     <g id="line2d_1">
      <defs>
       <path d="M 0 0 
L 0 3.5 
" id="m10d893dc00" style="stroke:#000000;stroke-width:0.8;"/>
      </defs>
      <g>
       <use style="stroke:#000000;stroke-width:0.8;" x="66.66" xlink:href="#m10d893dc00" y="239.012"/>
      </g>
     </g>
     <g id="text_1">
      <!-- 0 -->
      <defs>
       <path d="M 31.78125 66.40625 
Q 24.171875 66.40625 20.328125 58.90625 
Q 16.5 51.421875 16.5 36.375 
Q 16.5 21.390625 20.328125 13.890625 
Q 24.171875 6.390625 31.78125 6.390625 
Q 39.453125 6.390625 43.28125 13.890625 
Q 47.125 21.390625 47.125 36.375 
Q 47.125 51.421875 43.28125 58.90625 
Q 39.453125 66.40625 31.78125 66.40625 
z
M 31.78125 74.21875 
Q 44.046875 74.21875 50.515625 64.515625 
Q 56.984375 54.828125 56.984375 36.375 
Q 56.984375 17.96875 50.515625 8.265625 
Q 44.046875 -1.421875 31.78125 -1.421875 
Q 19.53125 -1.421875 13.0625 8.265625 
Q 6.59375 17.96875 6.59375 36.375 
Q 6.59375 54.828125 13.0625 64.515625 
Q 19.53125 74.21875 31.78125 74.21875 
z
" id="DejaVuSans-48"/>
      </defs>
      <g transform="translate(61.57 258.1695)scale(0.16 -0.16)">
       <use xlink:href="#DejaVuSans-48"/>
      </g>
     </g>
    </g>
    <g id="xtick_2">
     <g id="line2d_2">
      <g>
       <use style="stroke:#000000;stroke-width:0.8;" x="161.928293" xlink:href="#m10d893dc00" y="239.012"/>
      </g>
     </g>
     <g id="text_2">
      <!-- 1 -->
      <defs>
       <path d="M 12.40625 8.296875 
L 28.515625 8.296875 
L 28.515625 63.921875 
L 10.984375 60.40625 
L 10.984375 69.390625 
L 28.421875 72.90625 
L 38.28125 72.90625 
L 38.28125 8.296875 
L 54.390625 8.296875 
L 54.390625 0 
L 12.40625 0 
z
" id="DejaVuSans-49"/>
      </defs>
      <g transform="translate(156.838293 258.1695)scale(0.16 -0.16)">
       <use xlink:href="#DejaVuSans-49"/>
      </g>
     </g>
    </g>
    <g id="xtick_3">
     <g id="line2d_3">
      <g>
       <use style="stroke:#000000;stroke-width:0.8;" x="257.196585" xlink:href="#m10d893dc00" y="239.012"/>
      </g>
     </g>
     <g id="text_3">
      <!-- 2 -->
      <defs>
       <path d="M 19.1875 8.296875 
L 53.609375 8.296875 
L 53.609375 0 
L 7.328125 0 
L 7.328125 8.296875 
Q 12.9375 14.109375 22.625 23.890625 
Q 32.328125 33.6875 34.8125 36.53125 
Q 39.546875 41.84375 41.421875 45.53125 
Q 43.3125 49.21875 43.3125 52.78125 
Q 43.3125 58.59375 39.234375 62.25 
Q 35.15625 65.921875 28.609375 65.921875 
Q 23.96875 65.921875 18.8125 64.3125 
Q 13.671875 62.703125 7.8125 59.421875 
L 7.8125 69.390625 
Q 13.765625 71.78125 18.9375 73 
Q 24.125 74.21875 28.421875 74.21875 
Q 39.75 74.21875 46.484375 68.546875 
Q 53.21875 62.890625 53.21875 53.421875 
Q 53.21875 48.921875 51.53125 44.890625 
Q 49.859375 40.875 45.40625 35.40625 
Q 44.1875 33.984375 37.640625 27.21875 
Q 31.109375 20.453125 19.1875 8.296875 
z
" id="DejaVuSans-50"/>
      </defs>
      <g transform="translate(252.106585 258.1695)scale(0.16 -0.16)">
       <use xlink:href="#DejaVuSans-50"/>
      </g>
     </g>
    </g>
    <g id="xtick_4">
     <g id="line2d_4">
      <g>
       <use style="stroke:#000000;stroke-width:0.8;" x="352.464878" xlink:href="#m10d893dc00" y="239.012"/>
      </g>
     </g>
     <g id="text_4">
      <!-- 3 -->
      <defs>
       <path d="M 40.578125 39.3125 
Q 47.65625 37.796875 51.625 33 
Q 55.609375 28.21875 55.609375 21.1875 
Q 55.609375 10.40625 48.1875 4.484375 
Q 40.765625 -1.421875 27.09375 -1.421875 
Q 22.515625 -1.421875 17.65625 -0.515625 
Q 12.796875 0.390625 7.625 2.203125 
L 7.625 11.71875 
Q 11.71875 9.328125 16.59375 8.109375 
Q 21.484375 6.890625 26.8125 6.890625 
Q 36.078125 6.890625 40.9375 10.546875 
Q 45.796875 14.203125 45.796875 21.1875 
Q 45.796875 27.640625 41.28125 31.265625 
Q 36.765625 34.90625 28.71875 34.90625 
L 20.21875 34.90625 
L 20.21875 43.015625 
L 29.109375 43.015625 
Q 36.375 43.015625 40.234375 45.921875 
Q 44.09375 48.828125 44.09375 54.296875 
Q 44.09375 59.90625 40.109375 62.90625 
Q 36.140625 65.921875 28.71875 65.921875 
Q 24.65625 65.921875 20.015625 65.03125 
Q 15.375 64.15625 9.8125 62.3125 
L 9.8125 71.09375 
Q 15.4375 72.65625 20.34375 73.4375 
Q 25.25 74.21875 29.59375 74.21875 
Q 40.828125 74.21875 47.359375 69.109375 
Q 53.90625 64.015625 53.90625 55.328125 
Q 53.90625 49.265625 50.4375 45.09375 
Q 46.96875 40.921875 40.578125 39.3125 
z
" id="DejaVuSans-51"/>
      </defs>
      <g transform="translate(347.374878 258.1695)scale(0.16 -0.16)">
       <use xlink:href="#DejaVuSans-51"/>
      </g>
     </g>
    </g>
    <g id="xtick_5">
     <g id="line2d_5">
      <g>
       <use style="stroke:#000000;stroke-width:0.8;" x="447.733171" xlink:href="#m10d893dc00" y="239.012"/>
      </g>
     </g>
     <g id="text_5">
      <!-- 4 -->
      <defs>
       <path d="M 37.796875 64.3125 
L 12.890625 25.390625 
L 37.796875 25.390625 
z
M 35.203125 72.90625 
L 47.609375 72.90625 
L 47.609375 25.390625 
L 58.015625 25.390625 
L 58.015625 17.1875 
L 47.609375 17.1875 
L 47.609375 0 
L 37.796875 0 
L 37.796875 17.1875 
L 4.890625 17.1875 
L 4.890625 26.703125 
z
" id="DejaVuSans-52"/>
      </defs>
      <g transform="translate(442.643171 258.1695)scale(0.16 -0.16)">
       <use xlink:href="#DejaVuSans-52"/>
      </g>
     </g>
    </g>
    <g id="text_6">
     <!-- $z \;[\mu m]$ -->
     <defs>
      <path d="M 11.625 54.6875 
L 54.296875 54.6875 
L 52.6875 46.484375 
L 11.53125 7.171875 
L 45.515625 7.171875 
L 44.09375 0 
L -0.296875 0 
L 1.3125 8.203125 
L 42.484375 47.515625 
L 10.203125 47.515625 
z
" id="DejaVuSans-Oblique-122"/>
      <path d="M 8.59375 75.984375 
L 29.296875 75.984375 
L 29.296875 69 
L 17.578125 69 
L 17.578125 -6.203125 
L 29.296875 -6.203125 
L 29.296875 -13.1875 
L 8.59375 -13.1875 
z
" id="DejaVuSans-91"/>
      <path d="M -1.3125 -20.796875 
L 13.375 54.6875 
L 22.40625 54.6875 
L 15.765625 20.65625 
Q 15.578125 19.625 15.421875 18.359375 
Q 15.28125 17.09375 15.28125 15.828125 
Q 15.28125 11.28125 18.140625 8.828125 
Q 21 6.390625 26.3125 6.390625 
Q 33.546875 6.390625 37.984375 10.484375 
Q 42.4375 14.59375 44 22.796875 
L 50.203125 54.6875 
L 59.1875 54.6875 
L 51.03125 12.640625 
Q 50.828125 11.71875 50.75 11.03125 
Q 50.6875 10.359375 50.6875 9.8125 
Q 50.6875 8.296875 51.296875 7.59375 
Q 51.90625 6.890625 53.21875 6.890625 
Q 53.71875 6.890625 54.5625 7.125 
Q 55.421875 7.375 56.984375 8.015625 
L 55.609375 0.78125 
Q 53.46875 -0.296875 51.515625 -0.859375 
Q 49.5625 -1.421875 47.703125 -1.421875 
Q 44.484375 -1.421875 42.65625 0.625 
Q 40.828125 2.6875 40.828125 6.296875 
Q 38.09375 2.390625 34.296875 0.484375 
Q 30.515625 -1.421875 25.390625 -1.421875 
Q 20.84375 -1.421875 17.453125 0.671875 
Q 14.0625 2.78125 12.984375 6.203125 
L 7.71875 -20.796875 
z
" id="DejaVuSans-Oblique-956"/>
      <path d="M 89.796875 33.015625 
L 83.40625 0 
L 74.421875 0 
L 80.71875 32.71875 
Q 81.109375 34.8125 81.296875 36.328125 
Q 81.5 37.84375 81.5 38.921875 
Q 81.5 43.3125 79.046875 45.75 
Q 76.609375 48.1875 72.21875 48.1875 
Q 65.671875 48.1875 60.546875 43.28125 
Q 55.421875 38.375 53.90625 30.515625 
L 47.90625 0 
L 38.921875 0 
L 45.3125 32.71875 
Q 45.703125 34.515625 45.890625 36.046875 
Q 46.09375 37.59375 46.09375 38.8125 
Q 46.09375 43.265625 43.65625 45.71875 
Q 41.21875 48.1875 36.921875 48.1875 
Q 30.28125 48.1875 25.140625 43.28125 
Q 20.015625 38.375 18.5 30.515625 
L 12.5 0 
L 3.515625 0 
L 14.203125 54.6875 
L 23.1875 54.6875 
L 21.484375 46.1875 
Q 25.140625 50.984375 30.046875 53.484375 
Q 34.96875 56 40.578125 56 
Q 46.53125 56 50.359375 52.875 
Q 54.203125 49.75 54.984375 44.1875 
Q 59.078125 49.953125 64.46875 52.96875 
Q 69.875 56 75.875 56 
Q 82.90625 56 86.734375 51.953125 
Q 90.578125 47.90625 90.578125 40.484375 
Q 90.578125 38.875 90.375 36.9375 
Q 90.1875 35.015625 89.796875 33.015625 
z
" id="DejaVuSans-Oblique-109"/>
      <path d="M 30.421875 75.984375 
L 30.421875 -13.1875 
L 9.71875 -13.1875 
L 9.71875 -6.203125 
L 21.390625 -6.203125 
L 21.390625 69 
L 9.71875 69 
L 9.71875 75.984375 
z
" id="DejaVuSans-93"/>
     </defs>
     <g transform="translate(231.676585 277.657)scale(0.16 -0.16)">
      <use transform="translate(0 0.015625)" xlink:href="#DejaVuSans-Oblique-122"/>
      <use transform="translate(79.54937 0.015625)" xlink:href="#DejaVuSans-91"/>
      <use transform="translate(118.563042 0.015625)" xlink:href="#DejaVuSans-Oblique-956"/>
      <use transform="translate(182.186089 0.015625)" xlink:href="#DejaVuSans-Oblique-109"/>
      <use transform="translate(279.598198 0.015625)" xlink:href="#DejaVuSans-93"/>
     </g>
    </g>
   </g>
   <g id="matplotlib.axis_2">
    <g id="ytick_1">
     <g id="line2d_6">
      <defs>
       <path d="M 0 0 
L -3.5 0 
" id="me47924e0b0" style="stroke:#000000;stroke-width:0.8;"/>
      </defs>
      <g>
       <use style="stroke:#000000;stroke-width:0.8;" x="66.66" xlink:href="#me47924e0b0" y="239.012"/>
      </g>
     </g>
     <g id="text_7">
      <!-- 0 -->
      <g transform="translate(49.48 245.09075)scale(0.16 -0.16)">
       <use xlink:href="#DejaVuSans-48"/>
      </g>
     </g>
    </g>
    <g id="ytick_2">
     <g id="line2d_7">
      <g>
       <use style="stroke:#000000;stroke-width:0.8;" x="66.66" xlink:href="#me47924e0b0" y="197.500727"/>
      </g>
     </g>
     <g id="text_8">
      <!-- 100 -->
      <g transform="translate(29.12 203.579477)scale(0.16 -0.16)">
       <use xlink:href="#DejaVuSans-49"/>
       <use x="63.623047" xlink:href="#DejaVuSans-48"/>
       <use x="127.246094" xlink:href="#DejaVuSans-48"/>
      </g>
     </g>
    </g>
    <g id="ytick_3">
     <g id="line2d_8">
      <g>
       <use style="stroke:#000000;stroke-width:0.8;" x="66.66" xlink:href="#me47924e0b0" y="155.989455"/>
      </g>
     </g>
     <g id="text_9">
      <!-- 200 -->
      <g transform="translate(29.12 162.068205)scale(0.16 -0.16)">
       <use xlink:href="#DejaVuSans-50"/>
       <use x="63.623047" xlink:href="#DejaVuSans-48"/>
       <use x="127.246094" xlink:href="#DejaVuSans-48"/>
      </g>
     </g>
    </g>
    <g id="ytick_4">
     <g id="line2d_9">
      <g>
       <use style="stroke:#000000;stroke-width:0.8;" x="66.66" xlink:href="#me47924e0b0" y="114.478182"/>
      </g>
     </g>
     <g id="text_10">
      <!-- 300 -->
      <g transform="translate(29.12 120.556932)scale(0.16 -0.16)">
       <use xlink:href="#DejaVuSans-51"/>
       <use x="63.623047" xlink:href="#DejaVuSans-48"/>
       <use x="127.246094" xlink:href="#DejaVuSans-48"/>
      </g>
     </g>
    </g>
    <g id="ytick_5">
     <g id="line2d_10">
      <g>
       <use style="stroke:#000000;stroke-width:0.8;" x="66.66" xlink:href="#me47924e0b0" y="72.966909"/>
      </g>
     </g>
     <g id="text_11">
      <!-- 400 -->
      <g transform="translate(29.12 79.045659)scale(0.16 -0.16)">
       <use xlink:href="#DejaVuSans-52"/>
       <use x="63.623047" xlink:href="#DejaVuSans-48"/>
       <use x="127.246094" xlink:href="#DejaVuSans-48"/>
      </g>
     </g>
    </g>
    <g id="ytick_6">
     <g id="line2d_11">
      <g>
       <use style="stroke:#000000;stroke-width:0.8;" x="66.66" xlink:href="#me47924e0b0" y="31.455636"/>
      </g>
     </g>
     <g id="text_12">
      <!-- 500 -->
      <defs>
       <path d="M 10.796875 72.90625 
L 49.515625 72.90625 
L 49.515625 64.59375 
L 19.828125 64.59375 
L 19.828125 46.734375 
Q 21.96875 47.46875 24.109375 47.828125 
Q 26.265625 48.1875 28.421875 48.1875 
Q 40.625 48.1875 47.75 41.5 
Q 54.890625 34.8125 54.890625 23.390625 
Q 54.890625 11.625 47.5625 5.09375 
Q 40.234375 -1.421875 26.90625 -1.421875 
Q 22.3125 -1.421875 17.546875 -0.640625 
Q 12.796875 0.140625 7.71875 1.703125 
L 7.71875 11.625 
Q 12.109375 9.234375 16.796875 8.0625 
Q 21.484375 6.890625 26.703125 6.890625 
Q 35.15625 6.890625 40.078125 11.328125 
Q 45.015625 15.765625 45.015625 23.390625 
Q 45.015625 31 40.078125 35.4375 
Q 35.15625 39.890625 26.703125 39.890625 
Q 22.75 39.890625 18.8125 39.015625 
Q 14.890625 38.140625 10.796875 36.28125 
z
" id="DejaVuSans-53"/>
      </defs>
      <g transform="translate(29.12 37.534386)scale(0.16 -0.16)">
       <use xlink:href="#DejaVuSans-53"/>
       <use x="63.623047" xlink:href="#DejaVuSans-48"/>
       <use x="127.246094" xlink:href="#DejaVuSans-48"/>
      </g>
     </g>
    </g>
    <g id="text_13">
     <!-- $\rho \;[1/\mu m^2]$ -->
     <defs>
      <path d="M 18.796875 44.921875 
Q 22.703125 49.90625 30.953125 54.296875 
Q 34.1875 56 43.0625 56 
Q 53.03125 56 57.71875 48.09375 
Q 62.40625 40.1875 59.90625 27.296875 
Q 57.375 14.40625 49.609375 6.484375 
Q 41.84375 -1.421875 31.890625 -1.421875 
Q 25.875 -1.421875 22.015625 0.984375 
Q 18.171875 3.328125 16.3125 8.203125 
L 10.640625 -20.796875 
L 1.609375 -20.796875 
L 10.890625 26.8125 
Q 13.09375 38.09375 18.796875 44.921875 
z
M 50.59375 27.296875 
Q 52.484375 37.203125 49.515625 42.875 
Q 46.53125 48.484375 39.40625 48.484375 
Q 32.28125 48.484375 27.09375 42.875 
Q 21.921875 37.203125 20.015625 27.296875 
Q 18.0625 17.390625 21.046875 11.71875 
Q 24.03125 6.109375 31.15625 6.109375 
Q 38.28125 6.109375 43.453125 11.71875 
Q 48.640625 17.390625 50.59375 27.296875 
z
" id="DejaVuSans-Oblique-961"/>
      <path d="M 25.390625 72.90625 
L 33.6875 72.90625 
L 8.296875 -9.28125 
L 0 -9.28125 
z
" id="DejaVuSans-47"/>
     </defs>
     <g transform="translate(21.76 163.176)rotate(-90)scale(0.16 -0.16)">
      <use transform="translate(0 0.765625)" xlink:href="#DejaVuSans-Oblique-961"/>
      <use transform="translate(90.535698 0.765625)" xlink:href="#DejaVuSans-91"/>
      <use transform="translate(129.54937 0.765625)" xlink:href="#DejaVuSans-49"/>
      <use transform="translate(193.172417 0.765625)" xlink:href="#DejaVuSans-47"/>
      <use transform="translate(226.863823 0.765625)" xlink:href="#DejaVuSans-Oblique-956"/>
      <use transform="translate(290.48687 0.765625)" xlink:href="#DejaVuSans-Oblique-109"/>
      <use transform="translate(392.548875 39.046875)scale(0.7)" xlink:href="#DejaVuSans-50"/>
      <use transform="translate(439.819383 0.765625)" xlink:href="#DejaVuSans-93"/>
     </g>
    </g>
   </g>
   <g id="line2d_12">
    <path clip-path="url(#pa7830caf08)" d="M 66.66 170.021578 
L 70.124302 170.211316 
L 73.588603 170.730841 
L 77.052905 171.479488 
L 80.517206 172.410882 
L 83.981508 173.495247 
L 87.445809 174.716251 
L 90.910111 176.056533 
L 94.374412 177.511714 
L 97.838714 179.079134 
L 101.303016 180.757753 
L 104.767317 182.545273 
L 108.231619 184.437651 
L 111.69592 186.428346 
L 115.160222 188.50781 
L 118.624523 190.663096 
L 122.088825 192.879008 
L 125.553126 195.138176 
L 129.017428 197.421522 
L 132.481729 199.70888 
L 135.946031 201.979735 
L 139.410333 204.21395 
L 142.874634 206.392467 
L 146.338936 208.497936 
L 149.803237 210.515227 
L 153.267539 212.431799 
L 156.73184 214.2379 
L 160.196142 215.926611 
L 163.660443 217.493727 
L 167.124745 218.937513 
L 170.589047 220.258364 
L 174.053348 221.458399 
L 177.51765 222.54103 
L 180.981951 223.510531 
L 184.446253 224.371624 
L 187.910554 225.129108 
L 191.374856 225.787526 
L 194.839157 226.350873 
L 198.303459 226.822348 
L 201.767761 227.204136 
L 205.232062 227.497223 
L 208.696364 227.701238 
L 212.160665 227.814346 
L 215.624967 227.833218 
L 219.089268 227.753147 
L 222.55357 227.56846 
L 226.017871 227.273427 
L 229.482173 226.864052 
L 232.946475 226.341198 
L 236.410776 225.715498 
L 239.875078 225.013999 
L 243.339379 224.286981 
L 246.803681 223.610831 
L 250.267982 223.080637 
L 253.732284 222.788253 
L 257.196585 222.791168 
L 260.660887 223.088874 
L 264.125188 223.623054 
L 267.58949 224.301462 
L 271.053792 225.029062 
L 274.518093 225.729791 
L 277.982395 226.353773 
L 281.446696 226.874323 
L 284.910998 227.281076 
L 288.375299 227.573341 
L 291.839601 227.75521 
L 295.303902 227.832452 
L 298.768204 227.810743 
L 302.232506 227.69477 
L 305.696807 227.487829 
L 309.161109 227.191712 
L 312.62541 226.806743 
L 316.089712 226.331889 
L 319.554013 225.764916 
L 323.018315 225.102577 
L 326.482616 224.340832 
L 329.946918 223.4751 
L 333.41122 222.500551 
L 336.875521 221.412439 
L 340.339823 220.206483 
L 343.804124 218.879278 
L 347.268426 217.428728 
L 350.732727 215.854484 
L 354.197029 214.158343 
L 357.66133 212.344596 
L 361.125632 210.420265 
L 364.589933 208.395215 
L 368.054235 206.282114 
L 371.518537 204.096217 
L 374.982838 201.854998 
L 378.44714 199.577626 
L 381.911441 197.284338 
L 385.375743 194.995723 
L 388.840044 192.732003 
L 392.304346 190.512286 
L 395.768647 188.353948 
L 399.232949 186.272172 
L 402.697251 184.279873 
L 406.161552 182.386556 
L 409.625854 180.598704 
L 413.090155 178.920297 
L 416.554457 177.35357 
L 420.018758 175.899502 
L 423.48306 174.560696 
L 426.947361 173.341472 
L 430.411663 172.259181 
L 433.875965 171.330057 
L 437.340266 170.583745 
L 440.804568 170.066453 
L 444.268869 169.879213 
L 447.733171 169.879213 
" style="fill:none;stroke:#1f77b4;stroke-linecap:square;stroke-width:1.5;"/>
   </g>
   <g id="line2d_13">
    <path clip-path="url(#pa7830caf08)" d="M 66.66 205.523071 
L 70.124302 205.122547 
L 73.588603 204.801489 
L 77.052905 204.444621 
L 80.517206 204.05114 
L 83.981508 203.624041 
L 87.445809 203.170118 
L 90.910111 202.674395 
L 94.374412 202.141857 
L 97.838714 201.575313 
L 101.303016 200.98192 
L 104.767317 200.368645 
L 108.231619 199.744609 
L 111.69592 199.120881 
L 115.160222 198.508686 
L 118.624523 197.913123 
L 122.088825 197.343812 
L 125.553126 196.811317 
L 129.017428 196.325203 
L 132.481729 195.893344 
L 135.946031 195.522332 
L 139.410333 195.217075 
L 142.874634 194.980469 
L 146.338936 194.813143 
L 149.803237 194.713294 
L 153.267539 194.676625 
L 156.73184 194.696369 
L 160.196142 194.763416 
L 163.660443 194.86649 
L 167.124745 194.992363 
L 170.589047 195.126075 
L 174.053348 195.251101 
L 177.51765 195.349463 
L 180.981951 195.401728 
L 184.446253 195.386895 
L 187.910554 195.282125 
L 191.374856 195.062327 
L 194.839157 194.699561 
L 198.303459 194.162278 
L 201.767761 193.414378 
L 205.232062 192.414128 
L 208.696364 191.113004 
L 212.160665 189.454605 
L 215.624967 187.373981 
L 219.089268 184.797976 
L 222.55357 181.647725 
L 226.017871 177.845263 
L 229.482173 173.327329 
L 232.946475 168.070627 
L 236.410776 162.132829 
L 239.875078 155.709574 
L 243.339379 149.195208 
L 246.803681 143.212081 
L 250.267982 138.552135 
L 253.732284 135.990859 
L 257.196585 136.017205 
L 260.660887 138.62665 
L 264.125188 143.322958 
L 267.58949 149.327456 
L 271.053792 155.849051 
L 274.518093 162.268626 
L 277.982395 168.195644 
L 281.446696 173.437757 
L 284.910998 177.93967 
L 288.375299 181.726185 
L 291.839601 184.861408 
L 295.303902 187.4237 
L 298.768204 189.492052 
L 302.232506 191.139593 
L 305.696807 192.431176 
L 309.161109 193.423072 
L 312.62541 194.16368 
L 316.089712 194.694618 
L 319.554013 195.05189 
L 323.018315 195.266971 
L 326.482616 195.367743 
L 329.946918 195.37926 
L 333.41122 195.324333 
L 336.875521 195.22395 
L 340.339823 195.097531 
L 343.804124 194.963047 
L 347.268426 194.837008 
L 350.732727 194.734359 
L 354.197029 194.668294 
L 357.66133 194.650051 
L 361.125632 194.688687 
L 364.589933 194.7909 
L 368.054235 194.960913 
L 371.518537 195.200447 
L 374.982838 195.508785 
L 378.44714 195.882946 
L 381.911441 196.317944 
L 385.375743 196.807115 
L 388.840044 197.342526 
L 392.304346 197.914567 
L 395.768647 198.512638 
L 399.232949 199.127102 
L 402.697251 199.752864 
L 406.161552 200.378701 
L 409.625854 200.993558 
L 413.090155 201.588338 
L 416.554457 202.156102 
L 420.018758 202.689727 
L 423.48306 203.186434 
L 426.947361 203.641267 
L 430.411663 204.069225 
L 433.875965 204.463513 
L 437.340266 204.821114 
L 440.804568 205.142777 
L 444.268869 205.543763 
L 447.733171 205.543763 
" style="fill:none;stroke:#ff7f0e;stroke-linecap:square;stroke-width:1.5;"/>
   </g>
   <g id="patch_3">
    <path d="M 66.66 239.012 
L 66.66 10.7 
" style="fill:none;stroke:#000000;stroke-linecap:square;stroke-linejoin:miter;stroke-width:0.8;"/>
   </g>
   <g id="patch_4">
    <path d="M 447.733171 239.012 
L 447.733171 10.7 
" style="fill:none;stroke:#000000;stroke-linecap:square;stroke-linejoin:miter;stroke-width:0.8;"/>
   </g>
   <g id="patch_5">
    <path d="M 66.66 239.012 
L 447.733171 239.012 
" style="fill:none;stroke:#000000;stroke-linecap:square;stroke-linejoin:miter;stroke-width:0.8;"/>
   </g>
   <g id="patch_6">
    <path d="M 66.66 10.7 
L 447.733171 10.7 
" style="fill:none;stroke:#000000;stroke-linecap:square;stroke-linejoin:miter;stroke-width:0.8;"/>
   </g>
   <g id="text_14">
    <!-- t &lt; 250 s -->
    <defs>
     <path d="M 18.3125 70.21875 
L 18.3125 54.6875 
L 36.8125 54.6875 
L 36.8125 47.703125 
L 18.3125 47.703125 
L 18.3125 18.015625 
Q 18.3125 11.328125 20.140625 9.421875 
Q 21.96875 7.515625 27.59375 7.515625 
L 36.8125 7.515625 
L 36.8125 0 
L 27.59375 0 
Q 17.1875 0 13.234375 3.875 
Q 9.28125 7.765625 9.28125 18.015625 
L 9.28125 47.703125 
L 2.6875 47.703125 
L 2.6875 54.6875 
L 9.28125 54.6875 
L 9.28125 70.21875 
z
" id="DejaVuSans-116"/>
     <path id="DejaVuSans-32"/>
     <path d="M 73.1875 49.21875 
L 22.796875 31.296875 
L 73.1875 13.484375 
L 73.1875 4.59375 
L 10.59375 27.296875 
L 10.59375 35.40625 
L 73.1875 58.109375 
z
" id="DejaVuSans-60"/>
     <path d="M 44.28125 53.078125 
L 44.28125 44.578125 
Q 40.484375 46.53125 36.375 47.5 
Q 32.28125 48.484375 27.875 48.484375 
Q 21.1875 48.484375 17.84375 46.4375 
Q 14.5 44.390625 14.5 40.28125 
Q 14.5 37.15625 16.890625 35.375 
Q 19.28125 33.59375 26.515625 31.984375 
L 29.59375 31.296875 
Q 39.15625 29.25 43.1875 25.515625 
Q 47.21875 21.78125 47.21875 15.09375 
Q 47.21875 7.46875 41.1875 3.015625 
Q 35.15625 -1.421875 24.609375 -1.421875 
Q 20.21875 -1.421875 15.453125 -0.5625 
Q 10.6875 0.296875 5.421875 2 
L 5.421875 11.28125 
Q 10.40625 8.6875 15.234375 7.390625 
Q 20.0625 6.109375 24.8125 6.109375 
Q 31.15625 6.109375 34.5625 8.28125 
Q 37.984375 10.453125 37.984375 14.40625 
Q 37.984375 18.0625 35.515625 20.015625 
Q 33.0625 21.96875 24.703125 23.78125 
L 21.578125 24.515625 
Q 13.234375 26.265625 9.515625 29.90625 
Q 5.8125 33.546875 5.8125 39.890625 
Q 5.8125 47.609375 11.28125 51.796875 
Q 16.75 56 26.8125 56 
Q 31.78125 56 36.171875 55.265625 
Q 40.578125 54.546875 44.28125 53.078125 
z
" id="DejaVuSans-115"/>
    </defs>
    <g transform="translate(85.713659 31.455636)scale(0.16 -0.16)">
     <use xlink:href="#DejaVuSans-116"/>
     <use x="39.208984" xlink:href="#DejaVuSans-32"/>
     <use x="70.996094" xlink:href="#DejaVuSans-60"/>
     <use x="154.785156" xlink:href="#DejaVuSans-32"/>
     <use x="186.572266" xlink:href="#DejaVuSans-50"/>
     <use x="250.195312" xlink:href="#DejaVuSans-53"/>
     <use x="313.818359" xlink:href="#DejaVuSans-48"/>
     <use x="377.441406" xlink:href="#DejaVuSans-32"/>
     <use x="409.228516" xlink:href="#DejaVuSans-115"/>
    </g>
   </g>
   <g id="legend_1">
    <g id="patch_7">
     <path d="M 292.625671 67.27 
L 436.533171 67.27 
Q 439.733171 67.27 439.733171 64.07 
L 439.733171 21.9 
Q 439.733171 18.7 436.533171 18.7 
L 292.625671 18.7 
Q 289.425671 18.7 289.425671 21.9 
L 289.425671 64.07 
Q 289.425671 67.27 292.625671 67.27 
z
" style="fill:#ffffff;opacity:0.8;stroke:#cccccc;stroke-linejoin:miter;"/>
    </g>
    <g id="line2d_14">
     <path d="M 295.825671 31.6575 
L 327.825671 31.6575 
" style="fill:none;stroke:#1f77b4;stroke-linecap:square;stroke-width:1.5;"/>
    </g>
    <g id="line2d_15"/>
    <g id="text_15">
     <!-- MinD-ATP -->
     <defs>
      <path d="M 9.8125 72.90625 
L 24.515625 72.90625 
L 43.109375 23.296875 
L 61.8125 72.90625 
L 76.515625 72.90625 
L 76.515625 0 
L 66.890625 0 
L 66.890625 64.015625 
L 48.09375 14.015625 
L 38.1875 14.015625 
L 19.390625 64.015625 
L 19.390625 0 
L 9.8125 0 
z
" id="DejaVuSans-77"/>
      <path d="M 9.421875 54.6875 
L 18.40625 54.6875 
L 18.40625 0 
L 9.421875 0 
z
M 9.421875 75.984375 
L 18.40625 75.984375 
L 18.40625 64.59375 
L 9.421875 64.59375 
z
" id="DejaVuSans-105"/>
      <path d="M 54.890625 33.015625 
L 54.890625 0 
L 45.90625 0 
L 45.90625 32.71875 
Q 45.90625 40.484375 42.875 44.328125 
Q 39.84375 48.1875 33.796875 48.1875 
Q 26.515625 48.1875 22.3125 43.546875 
Q 18.109375 38.921875 18.109375 30.90625 
L 18.109375 0 
L 9.078125 0 
L 9.078125 54.6875 
L 18.109375 54.6875 
L 18.109375 46.1875 
Q 21.34375 51.125 25.703125 53.5625 
Q 30.078125 56 35.796875 56 
Q 45.21875 56 50.046875 50.171875 
Q 54.890625 44.34375 54.890625 33.015625 
z
" id="DejaVuSans-110"/>
      <path d="M 19.671875 64.796875 
L 19.671875 8.109375 
L 31.59375 8.109375 
Q 46.6875 8.109375 53.6875 14.9375 
Q 60.6875 21.78125 60.6875 36.53125 
Q 60.6875 51.171875 53.6875 57.984375 
Q 46.6875 64.796875 31.59375 64.796875 
z
M 9.8125 72.90625 
L 30.078125 72.90625 
Q 51.265625 72.90625 61.171875 64.09375 
Q 71.09375 55.28125 71.09375 36.53125 
Q 71.09375 17.671875 61.125 8.828125 
Q 51.171875 0 30.078125 0 
L 9.8125 0 
z
" id="DejaVuSans-68"/>
      <path d="M 4.890625 31.390625 
L 31.203125 31.390625 
L 31.203125 23.390625 
L 4.890625 23.390625 
z
" id="DejaVuSans-45"/>
      <path d="M 34.1875 63.1875 
L 20.796875 26.90625 
L 47.609375 26.90625 
z
M 28.609375 72.90625 
L 39.796875 72.90625 
L 67.578125 0 
L 57.328125 0 
L 50.6875 18.703125 
L 17.828125 18.703125 
L 11.1875 0 
L 0.78125 0 
z
" id="DejaVuSans-65"/>
      <path d="M -0.296875 72.90625 
L 61.375 72.90625 
L 61.375 64.59375 
L 35.5 64.59375 
L 35.5 0 
L 25.59375 0 
L 25.59375 64.59375 
L -0.296875 64.59375 
z
" id="DejaVuSans-84"/>
      <path d="M 19.671875 64.796875 
L 19.671875 37.40625 
L 32.078125 37.40625 
Q 38.96875 37.40625 42.71875 40.96875 
Q 46.484375 44.53125 46.484375 51.125 
Q 46.484375 57.671875 42.71875 61.234375 
Q 38.96875 64.796875 32.078125 64.796875 
z
M 9.8125 72.90625 
L 32.078125 72.90625 
Q 44.34375 72.90625 50.609375 67.359375 
Q 56.890625 61.8125 56.890625 51.125 
Q 56.890625 40.328125 50.609375 34.8125 
Q 44.34375 29.296875 32.078125 29.296875 
L 19.671875 29.296875 
L 19.671875 0 
L 9.8125 0 
z
" id="DejaVuSans-80"/>
     </defs>
     <g transform="translate(340.625671 37.2575)scale(0.16 -0.16)">
      <use xlink:href="#DejaVuSans-77"/>
      <use x="86.279297" xlink:href="#DejaVuSans-105"/>
      <use x="114.0625" xlink:href="#DejaVuSans-110"/>
      <use x="177.441406" xlink:href="#DejaVuSans-68"/>
      <use x="254.443359" xlink:href="#DejaVuSans-45"/>
      <use x="290.496094" xlink:href="#DejaVuSans-65"/>
      <use x="358.794922" xlink:href="#DejaVuSans-84"/>
      <use x="419.878906" xlink:href="#DejaVuSans-80"/>
     </g>
    </g>
    <g id="line2d_16">
     <path d="M 295.825671 51.9425 
L 327.825671 51.9425 
" style="fill:none;stroke:#ff7f0e;stroke-linecap:square;stroke-width:1.5;"/>
    </g>
    <g id="line2d_17"/>
    <g id="text_16">
     <!-- E-MinD-ATP -->
     <defs>
      <path d="M 9.8125 72.90625 
L 55.90625 72.90625 
L 55.90625 64.59375 
L 19.671875 64.59375 
L 19.671875 43.015625 
L 54.390625 43.015625 
L 54.390625 34.71875 
L 19.671875 34.71875 
L 19.671875 8.296875 
L 56.78125 8.296875 
L 56.78125 0 
L 9.8125 0 
z
" id="DejaVuSans-69"/>
     </defs>
     <g transform="translate(340.625671 57.5425)scale(0.16 -0.16)">
      <use xlink:href="#DejaVuSans-69"/>
      <use x="63.183594" xlink:href="#DejaVuSans-45"/>
      <use x="99.267578" xlink:href="#DejaVuSans-77"/>
      <use x="185.546875" xlink:href="#DejaVuSans-105"/>
      <use x="213.330078" xlink:href="#DejaVuSans-110"/>
      <use x="276.708984" xlink:href="#DejaVuSans-68"/>
      <use x="353.710938" xlink:href="#DejaVuSans-45"/>
      <use x="389.763672" xlink:href="#DejaVuSans-65"/>
      <use x="458.0625" xlink:href="#DejaVuSans-84"/>
      <use x="519.146484" xlink:href="#DejaVuSans-80"/>
     </g>
    </g>
   </g>
  </g>
  <g id="axes_2">
   <g id="patch_8">
    <path d="M 466.786829 239.012 
L 847.86 239.012 
L 847.86 10.7 
L 466.786829 10.7 
z
" style="fill:#ffffff;"/>
   </g>
   <g id="matplotlib.axis_3">
    <g id="xtick_6">
     <g id="line2d_18">
      <g>
       <use style="stroke:#000000;stroke-width:0.8;" x="466.786829" xlink:href="#m10d893dc00" y="239.012"/>
      </g>
     </g>
     <g id="text_17">
      <!-- 0 -->
      <g transform="translate(461.696829 258.1695)scale(0.16 -0.16)">
       <use xlink:href="#DejaVuSans-48"/>
      </g>
     </g>
    </g>
    <g id="xtick_7">
     <g id="line2d_19">
      <g>
       <use style="stroke:#000000;stroke-width:0.8;" x="562.055122" xlink:href="#m10d893dc00" y="239.012"/>
      </g>
     </g>
     <g id="text_18">
      <!-- 1 -->
      <g transform="translate(556.965122 258.1695)scale(0.16 -0.16)">
       <use xlink:href="#DejaVuSans-49"/>
      </g>
     </g>
    </g>
    <g id="xtick_8">
     <g id="line2d_20">
      <g>
       <use style="stroke:#000000;stroke-width:0.8;" x="657.323415" xlink:href="#m10d893dc00" y="239.012"/>
      </g>
     </g>
     <g id="text_19">
      <!-- 2 -->
      <g transform="translate(652.233415 258.1695)scale(0.16 -0.16)">
       <use xlink:href="#DejaVuSans-50"/>
      </g>
     </g>
    </g>
    <g id="xtick_9">
     <g id="line2d_21">
      <g>
       <use style="stroke:#000000;stroke-width:0.8;" x="752.591707" xlink:href="#m10d893dc00" y="239.012"/>
      </g>
     </g>
     <g id="text_20">
      <!-- 3 -->
      <g transform="translate(747.501707 258.1695)scale(0.16 -0.16)">
       <use xlink:href="#DejaVuSans-51"/>
      </g>
     </g>
    </g>
    <g id="xtick_10">
     <g id="line2d_22">
      <g>
       <use style="stroke:#000000;stroke-width:0.8;" x="847.86" xlink:href="#m10d893dc00" y="239.012"/>
      </g>
     </g>
     <g id="text_21">
      <!-- 4 -->
      <g transform="translate(842.77 258.1695)scale(0.16 -0.16)">
       <use xlink:href="#DejaVuSans-52"/>
      </g>
     </g>
    </g>
    <g id="text_22">
     <!-- $z \;[\mu m]$ -->
     <g transform="translate(631.803415 277.657)scale(0.16 -0.16)">
      <use transform="translate(0 0.015625)" xlink:href="#DejaVuSans-Oblique-122"/>
      <use transform="translate(79.54937 0.015625)" xlink:href="#DejaVuSans-91"/>
      <use transform="translate(118.563042 0.015625)" xlink:href="#DejaVuSans-Oblique-956"/>
      <use transform="translate(182.186089 0.015625)" xlink:href="#DejaVuSans-Oblique-109"/>
      <use transform="translate(279.598198 0.015625)" xlink:href="#DejaVuSans-93"/>
     </g>
    </g>
   </g>
   <g id="matplotlib.axis_4">
    <g id="ytick_7">
     <g id="line2d_23">
      <g>
       <use style="stroke:#000000;stroke-width:0.8;" x="466.786829" xlink:href="#me47924e0b0" y="239.012"/>
      </g>
     </g>
    </g>
    <g id="ytick_8">
     <g id="line2d_24">
      <g>
       <use style="stroke:#000000;stroke-width:0.8;" x="466.786829" xlink:href="#me47924e0b0" y="197.500727"/>
      </g>
     </g>
    </g>
    <g id="ytick_9">
     <g id="line2d_25">
      <g>
       <use style="stroke:#000000;stroke-width:0.8;" x="466.786829" xlink:href="#me47924e0b0" y="155.989455"/>
      </g>
     </g>
    </g>
    <g id="ytick_10">
     <g id="line2d_26">
      <g>
       <use style="stroke:#000000;stroke-width:0.8;" x="466.786829" xlink:href="#me47924e0b0" y="114.478182"/>
      </g>
     </g>
    </g>
    <g id="ytick_11">
     <g id="line2d_27">
      <g>
       <use style="stroke:#000000;stroke-width:0.8;" x="466.786829" xlink:href="#me47924e0b0" y="72.966909"/>
      </g>
     </g>
    </g>
    <g id="ytick_12">
     <g id="line2d_28">
      <g>
       <use style="stroke:#000000;stroke-width:0.8;" x="466.786829" xlink:href="#me47924e0b0" y="31.455636"/>
      </g>
     </g>
    </g>
   </g>
   <g id="line2d_29"/>
   <g id="line2d_30">
    <path clip-path="url(#pb6241f41a3)" d="M 466.786829 14.522365 
L 470.251131 28.862411 
L 473.715432 45.151123 
L 477.179734 64.347604 
L 480.644035 85.162252 
L 484.108337 106.504355 
L 487.572639 127.308588 
L 491.03694 146.773393 
L 494.501242 163.977049 
L 497.965543 178.385525 
L 501.429845 189.88587 
L 504.894146 198.742735 
L 508.358448 205.42121 
L 511.822749 210.426266 
L 515.287051 214.201422 
L 518.751353 217.090486 
L 522.215654 219.342151 
L 525.679956 221.130795 
L 529.144257 222.577047 
L 532.608559 223.764517 
L 536.07286 224.751995 
L 539.537162 225.581635 
L 543.001463 226.28433 
L 546.465765 226.883216 
L 549.930067 227.395978 
L 553.394368 227.836382 
L 556.85867 228.215324 
L 560.322971 228.541552 
L 563.787273 228.822185 
L 567.251574 229.063078 
L 570.715876 229.269103 
L 574.180177 229.444346 
L 577.644479 229.592269 
L 581.10878 229.715826 
L 584.573082 229.817557 
L 588.037384 229.899662 
L 591.501685 229.964062 
L 594.965987 230.012439 
L 598.430288 230.046285 
L 601.89459 230.066922 
L 605.358891 230.075535 
L 608.823193 230.073192 
L 612.287494 230.06086 
L 615.751796 230.03942 
L 619.216098 230.009681 
L 622.680399 229.972389 
L 626.144701 229.928238 
L 629.609002 229.877875 
L 633.073304 229.821906 
L 636.537605 229.760907 
L 640.001907 229.69542 
L 643.466208 229.625964 
L 646.93051 229.553035 
L 650.394812 229.47711 
L 653.859113 229.398648 
L 657.323415 229.318092 
L 660.787716 229.235872 
L 664.252018 229.152406 
L 667.716319 229.068098 
L 671.180621 228.983343 
L 674.644922 228.898524 
L 678.109224 228.814014 
L 681.573525 228.730176 
L 685.037827 228.647364 
L 688.502129 228.565918 
L 691.96643 228.48617 
L 695.430732 228.40844 
L 698.895033 228.333038 
L 702.359335 228.260259 
L 705.823636 228.190388 
L 709.287938 228.123696 
L 712.752239 228.06044 
L 716.216541 228.000863 
L 719.680843 227.94519 
L 723.145144 227.893633 
L 726.609446 227.846384 
L 730.073747 227.803618 
L 733.538049 227.765489 
L 737.00235 227.732131 
L 740.466652 227.703654 
L 743.930953 227.680145 
L 747.395255 227.661666 
L 750.859557 227.648246 
L 754.323858 227.639888 
L 757.78816 227.636555 
L 761.252461 227.638174 
L 764.716763 227.644627 
L 768.181064 227.655743 
L 771.645366 227.671293 
L 775.109667 227.690975 
L 778.573969 227.714402 
L 782.038271 227.741084 
L 785.502572 227.770398 
L 788.966874 227.801567 
L 792.431175 227.833532 
L 795.895477 227.864938 
L 799.359778 227.894209 
L 802.82408 227.919702 
L 806.288381 227.938521 
L 809.752683 227.946945 
L 813.216984 227.940327 
L 816.681286 227.91277 
L 820.145588 227.856594 
L 823.609889 227.762506 
L 827.074191 227.619333 
L 830.538492 227.416438 
L 834.002794 227.145309 
L 837.467095 226.812394 
L 840.931397 226.456077 
L 844.395698 226.114043 
L 847.86 226.114043 
" style="fill:none;stroke:#1f77b4;stroke-linecap:square;stroke-width:1.5;"/>
   </g>
   <g id="line2d_31">
    <path clip-path="url(#pb6241f41a3)" d="M 466.786829 152.60966 
L 470.251131 147.178701 
L 473.715432 141.501584 
L 477.179734 135.015229 
L 480.644035 128.411852 
L 484.108337 122.486449 
L 487.572639 118.018501 
L 491.03694 115.65492 
L 494.501242 115.790684 
L 497.965543 118.416551 
L 501.429845 123.119049 
L 504.894146 129.254558 
L 508.358448 136.139754 
L 511.822749 143.203331 
L 515.287051 150.052632 
L 518.751353 156.474897 
L 522.215654 162.358982 
L 525.679956 167.671443 
L 529.144257 172.426998 
L 532.608559 176.66478 
L 536.07286 180.432751 
L 539.537162 183.780264 
L 543.001463 186.754259 
L 546.465765 189.397602 
L 549.930067 191.748566 
L 553.394368 193.840904 
L 556.85867 195.704188 
L 560.322971 197.36425 
L 563.787273 198.843639 
L 567.251574 200.162047 
L 570.715876 201.3367 
L 574.180177 202.382698 
L 577.644479 203.313307 
L 581.10878 204.140217 
L 584.573082 204.873757 
L 588.037384 205.523079 
L 591.501685 206.09632 
L 594.965987 206.600732 
L 598.430288 207.042803 
L 601.89459 207.428352 
L 605.358891 207.762616 
L 608.823193 208.050324 
L 612.287494 208.295757 
L 615.751796 208.502804 
L 619.216098 208.675008 
L 622.680399 208.815609 
L 626.144701 208.927578 
L 629.609002 209.013646 
L 633.073304 209.076334 
L 636.537605 209.117973 
L 640.001907 209.140727 
L 643.466208 209.146605 
L 646.93051 209.137485 
L 650.394812 209.115118 
L 653.859113 209.081147 
L 657.323415 209.037111 
L 660.787716 208.984459 
L 664.252018 208.924553 
L 667.716319 208.858677 
L 671.180621 208.788041 
L 674.644922 208.713787 
L 678.109224 208.636995 
L 681.573525 208.55868 
L 685.037827 208.479802 
L 688.502129 208.401265 
L 691.96643 208.323918 
L 695.430732 208.248561 
L 698.895033 208.175942 
L 702.359335 208.106761 
L 705.823636 208.041672 
L 709.287938 207.98128 
L 712.752239 207.926145 
L 716.216541 207.876779 
L 719.680843 207.833648 
L 723.145144 207.79717 
L 726.609446 207.767717 
L 730.073747 207.745609 
L 733.538049 207.731116 
L 737.00235 207.724455 
L 740.466652 207.725786 
L 743.930953 207.73521 
L 747.395255 207.752761 
L 750.859557 207.778403 
L 754.323858 207.812018 
L 757.78816 207.853402 
L 761.252461 207.902245 
L 764.716763 207.958118 
L 768.181064 208.020452 
L 771.645366 208.088508 
L 775.109667 208.161338 
L 778.573969 208.237743 
L 782.038271 208.316209 
L 785.502572 208.394821 
L 788.966874 208.471169 
L 792.431175 208.541971 
L 795.895477 208.603012 
L 799.359778 208.649322 
L 802.82408 208.675567 
L 806.288381 208.672536 
L 809.752683 208.628336 
L 813.216984 208.527972 
L 816.681286 208.352295 
L 820.145588 208.076338 
L 823.609889 207.66971 
L 827.074191 207.096107 
L 830.538492 206.320167 
L 834.002794 205.315684 
L 837.467095 204.107647 
L 840.931397 202.829586 
L 844.395698 201.599149 
L 847.86 201.599149 
" style="fill:none;stroke:#ff7f0e;stroke-linecap:square;stroke-width:1.5;"/>
   </g>
   <g id="line2d_32"/>
   <g id="line2d_33">
    <path clip-path="url(#pb6241f41a3)" d="M 466.786925 75.528155 
L 470.597561 102.219903 
L 474.408293 115.565777 
L 478.219024 118.903283 
L 482.029756 125.574145 
L 485.840488 118.903283 
L 489.65122 135.582513 
L 493.461951 132.249158 
L 497.272683 132.249158 
L 501.083415 115.565777 
L 504.894146 138.920019 
L 508.704878 148.928387 
L 512.51561 155.6034 
L 516.326341 172.282629 
L 520.137073 168.949274 
L 523.947805 168.949274 
L 527.758537 188.96601 
L 531.569268 182.295148 
L 535.38 175.620135 
L 539.190732 195.636871 
L 543.001463 165.611768 
L 546.812195 215.657343 
L 550.622927 212.320667 
L 554.433659 208.984406 
L 558.24439 202.311469 
L 562.055122 192.303516 
L 565.865854 215.657343 
L 569.676585 225.666541 
L 573.487317 225.666541 
L 577.298049 212.320667 
L 581.10878 229.002802 
L 584.919512 222.329865 
L 588.730244 222.329865 
L 592.540976 235.675614 
L 596.351707 229.002802 
L 600.162439 232.339063 
L 603.973171 218.993604 
L 607.783902 232.339063 
L 611.594634 239.012 
L 615.405366 232.339063 
L 619.216098 225.666541 
L 623.026829 239.012 
L 626.837561 229.002802 
L 630.648293 229.002802 
L 634.459024 235.675614 
L 638.269756 229.002802 
L 642.080488 235.675614 
L 645.89122 235.675614 
L 649.701951 232.339063 
L 653.512683 232.339063 
L 657.323415 229.002802 
L 661.134146 235.675614 
L 664.944878 229.002802 
L 668.75561 235.675614 
L 672.566341 235.675614 
L 676.377073 232.339063 
L 680.187805 235.675614 
L 683.998537 239.012 
L 687.809268 235.675614 
L 691.62 239.012 
L 695.430732 232.339063 
L 699.241463 235.675614 
L 703.052195 232.339063 
L 706.862927 239.012 
L 710.673659 239.012 
L 714.48439 239.012 
L 718.295122 232.339063 
L 722.105854 235.675614 
L 725.916585 232.339063 
L 729.727317 235.675614 
L 733.538049 232.339063 
L 737.34878 229.002802 
L 741.159512 232.339063 
L 744.970244 232.339063 
L 748.780976 235.675614 
L 752.591707 235.675614 
L 756.402439 222.329865 
L 760.213171 239.012 
L 764.023902 232.339063 
L 767.834634 232.339063 
L 771.645366 239.012 
L 775.456098 235.675614 
L 779.266829 235.675614 
L 783.077561 232.339063 
L 786.888293 239.012 
L 790.699024 239.012 
L 794.509756 235.675614 
L 798.320488 239.012 
L 802.13122 229.002802 
L 805.941951 239.012 
L 809.752683 232.339063 
L 813.563415 232.339063 
L 817.374146 235.675614 
L 821.184878 232.339063 
L 824.99561 239.012 
L 828.806341 239.012 
L 832.617073 239.012 
L 836.427805 232.339063 
L 840.238537 235.675614 
L 844.049268 225.666541 
" style="fill:none;stroke:#0000ff;stroke-linecap:square;stroke-width:1.5;"/>
   </g>
   <g id="line2d_34">
    <path clip-path="url(#pb6241f41a3)" d="M 466.786925 172.282629 
L 470.597561 172.282629 
L 474.408293 195.636871 
L 478.219024 162.274261 
L 482.029756 188.96601 
L 485.840488 185.628503 
L 489.65122 178.957642 
L 493.461951 172.282629 
L 497.272683 195.636871 
L 501.083415 172.282629 
L 504.894146 168.949274 
L 508.704878 172.282629 
L 512.51561 162.274261 
L 516.326341 168.949274 
L 520.137073 175.620135 
L 523.947805 162.274261 
L 527.758537 165.611768 
L 531.569268 175.620135 
L 535.38 175.620135 
L 539.190732 188.96601 
L 543.001463 182.295148 
L 546.812195 155.6034 
L 550.622927 178.957642 
L 554.433659 178.957642 
L 558.24439 172.282629 
L 562.055122 165.611768 
L 565.865854 192.303516 
L 569.676585 175.620135 
L 573.487317 195.636871 
L 577.298049 198.975208 
L 581.10878 185.628503 
L 584.919512 202.311469 
L 588.730244 188.96601 
L 592.540976 178.957642 
L 596.351707 202.311469 
L 600.162439 198.975208 
L 603.973171 185.628503 
L 607.783902 182.295148 
L 611.594634 208.984406 
L 615.405366 215.657343 
L 619.216098 208.984406 
L 623.026829 212.320667 
L 626.837561 192.303516 
L 630.648293 229.002802 
L 634.459024 208.984406 
L 638.269756 188.96601 
L 642.080488 175.620135 
L 645.89122 198.975208 
L 649.701951 185.628503 
L 653.512683 205.648145 
L 657.323415 215.657343 
L 661.134146 205.648145 
L 664.944878 205.648145 
L 668.75561 218.993604 
L 672.566341 192.303516 
L 676.377073 212.320667 
L 680.187805 205.648145 
L 683.998537 225.666541 
L 687.809268 215.657343 
L 691.62 198.975208 
L 695.430732 225.666541 
L 699.241463 208.984406 
L 703.052195 192.303516 
L 706.862927 212.320667 
L 710.673659 222.329865 
L 714.48439 215.657343 
L 718.295122 208.984406 
L 722.105854 225.666541 
L 725.916585 218.993604 
L 729.727317 202.311469 
L 733.538049 215.657343 
L 737.34878 212.320667 
L 741.159512 229.002802 
L 744.970244 225.666541 
L 748.780976 208.984406 
L 752.591707 205.648145 
L 756.402439 205.648145 
L 760.213171 215.657343 
L 764.023902 229.002802 
L 767.834634 218.993604 
L 771.645366 218.993604 
L 775.456098 202.311469 
L 779.266829 225.666541 
L 783.077561 239.012 
L 786.888293 222.329865 
L 790.699024 205.648145 
L 794.509756 212.320667 
L 798.320488 215.657343 
L 802.13122 212.320667 
L 805.941951 222.329865 
L 809.752683 212.320667 
L 813.563415 215.657343 
L 817.374146 225.666541 
L 821.184878 215.657343 
L 824.99561 215.657343 
L 828.806341 222.329865 
L 832.617073 215.657343 
L 836.427805 208.984406 
L 840.238537 218.993604 
L 844.049268 215.657343 
" style="fill:none;stroke:#ff0000;stroke-linecap:square;stroke-width:1.5;"/>
   </g>
   <g id="patch_9">
    <path d="M 466.786829 239.012 
L 466.786829 10.7 
" style="fill:none;stroke:#000000;stroke-linecap:square;stroke-linejoin:miter;stroke-width:0.8;"/>
   </g>
   <g id="patch_10">
    <path d="M 847.86 239.012 
L 847.86 10.7 
" style="fill:none;stroke:#000000;stroke-linecap:square;stroke-linejoin:miter;stroke-width:0.8;"/>
   </g>
   <g id="patch_11">
    <path d="M 466.786829 239.012 
L 847.86 239.012 
" style="fill:none;stroke:#000000;stroke-linecap:square;stroke-linejoin:miter;stroke-width:0.8;"/>
   </g>
   <g id="patch_12">
    <path d="M 466.786829 10.7 
L 847.86 10.7 
" style="fill:none;stroke:#000000;stroke-linecap:square;stroke-linejoin:miter;stroke-width:0.8;"/>
   </g>
   <g id="text_23">
    <!-- t &gt; 250 s -->
    <defs>
     <path d="M 10.59375 49.21875 
L 10.59375 58.109375 
L 73.1875 35.40625 
L 73.1875 27.296875 
L 10.59375 4.59375 
L 10.59375 13.484375 
L 60.890625 31.296875 
z
" id="DejaVuSans-62"/>
    </defs>
    <g transform="translate(485.840488 31.455636)scale(0.16 -0.16)">
     <use xlink:href="#DejaVuSans-116"/>
     <use x="39.208984" xlink:href="#DejaVuSans-32"/>
     <use x="70.996094" xlink:href="#DejaVuSans-62"/>
     <use x="154.785156" xlink:href="#DejaVuSans-32"/>
     <use x="186.572266" xlink:href="#DejaVuSans-50"/>
     <use x="250.195312" xlink:href="#DejaVuSans-53"/>
     <use x="313.818359" xlink:href="#DejaVuSans-48"/>
     <use x="377.441406" xlink:href="#DejaVuSans-32"/>
     <use x="409.228516" xlink:href="#DejaVuSans-115"/>
    </g>
   </g>
   <g id="legend_2">
    <g id="patch_13">
     <path d="M 692.7525 148.41 
L 836.66 148.41 
Q 839.86 148.41 839.86 145.21 
L 839.86 21.9 
Q 839.86 18.7 836.66 18.7 
L 692.7525 18.7 
Q 689.5525 18.7 689.5525 21.9 
L 689.5525 145.21 
Q 689.5525 148.41 692.7525 148.41 
z
" style="fill:#ffffff;opacity:0.8;stroke:#cccccc;stroke-linejoin:miter;"/>
    </g>
    <g id="line2d_35"/>
    <g id="line2d_36"/>
    <g id="text_24">
     <!-- PDE -->
     <g transform="translate(740.7525 37.2575)scale(0.16 -0.16)">
      <use xlink:href="#DejaVuSans-80"/>
      <use x="60.302734" xlink:href="#DejaVuSans-68"/>
      <use x="137.304688" xlink:href="#DejaVuSans-69"/>
     </g>
    </g>
    <g id="line2d_37">
     <path d="M 695.9525 51.9425 
L 727.9525 51.9425 
" style="fill:none;stroke:#1f77b4;stroke-linecap:square;stroke-width:1.5;"/>
    </g>
    <g id="line2d_38"/>
    <g id="text_25">
     <!-- MinD-ATP -->
     <g transform="translate(740.7525 57.5425)scale(0.16 -0.16)">
      <use xlink:href="#DejaVuSans-77"/>
      <use x="86.279297" xlink:href="#DejaVuSans-105"/>
      <use x="114.0625" xlink:href="#DejaVuSans-110"/>
      <use x="177.441406" xlink:href="#DejaVuSans-68"/>
      <use x="254.443359" xlink:href="#DejaVuSans-45"/>
      <use x="290.496094" xlink:href="#DejaVuSans-65"/>
      <use x="358.794922" xlink:href="#DejaVuSans-84"/>
      <use x="419.878906" xlink:href="#DejaVuSans-80"/>
     </g>
    </g>
    <g id="line2d_39">
     <path d="M 695.9525 72.2275 
L 727.9525 72.2275 
" style="fill:none;stroke:#ff7f0e;stroke-linecap:square;stroke-width:1.5;"/>
    </g>
    <g id="line2d_40"/>
    <g id="text_26">
     <!-- E-MinD-ATP -->
     <g transform="translate(740.7525 77.8275)scale(0.16 -0.16)">
      <use xlink:href="#DejaVuSans-69"/>
      <use x="63.183594" xlink:href="#DejaVuSans-45"/>
      <use x="99.267578" xlink:href="#DejaVuSans-77"/>
      <use x="185.546875" xlink:href="#DejaVuSans-105"/>
      <use x="213.330078" xlink:href="#DejaVuSans-110"/>
      <use x="276.708984" xlink:href="#DejaVuSans-68"/>
      <use x="353.710938" xlink:href="#DejaVuSans-45"/>
      <use x="389.763672" xlink:href="#DejaVuSans-65"/>
      <use x="458.0625" xlink:href="#DejaVuSans-84"/>
      <use x="519.146484" xlink:href="#DejaVuSans-80"/>
     </g>
    </g>
    <g id="line2d_41"/>
    <g id="line2d_42"/>
    <g id="text_27">
     <!-- Smoldyn -->
     <defs>
      <path d="M 53.515625 70.515625 
L 53.515625 60.890625 
Q 47.90625 63.578125 42.921875 64.890625 
Q 37.9375 66.21875 33.296875 66.21875 
Q 25.25 66.21875 20.875 63.09375 
Q 16.5 59.96875 16.5 54.203125 
Q 16.5 49.359375 19.40625 46.890625 
Q 22.3125 44.4375 30.421875 42.921875 
L 36.375 41.703125 
Q 47.40625 39.59375 52.65625 34.296875 
Q 57.90625 29 57.90625 20.125 
Q 57.90625 9.515625 50.796875 4.046875 
Q 43.703125 -1.421875 29.984375 -1.421875 
Q 24.8125 -1.421875 18.96875 -0.25 
Q 13.140625 0.921875 6.890625 3.21875 
L 6.890625 13.375 
Q 12.890625 10.015625 18.65625 8.296875 
Q 24.421875 6.59375 29.984375 6.59375 
Q 38.421875 6.59375 43.015625 9.90625 
Q 47.609375 13.234375 47.609375 19.390625 
Q 47.609375 24.75 44.3125 27.78125 
Q 41.015625 30.8125 33.5 32.328125 
L 27.484375 33.5 
Q 16.453125 35.6875 11.515625 40.375 
Q 6.59375 45.0625 6.59375 53.421875 
Q 6.59375 63.09375 13.40625 68.65625 
Q 20.21875 74.21875 32.171875 74.21875 
Q 37.3125 74.21875 42.625 73.28125 
Q 47.953125 72.359375 53.515625 70.515625 
z
" id="DejaVuSans-83"/>
      <path d="M 52 44.1875 
Q 55.375 50.25 60.0625 53.125 
Q 64.75 56 71.09375 56 
Q 79.640625 56 84.28125 50.015625 
Q 88.921875 44.046875 88.921875 33.015625 
L 88.921875 0 
L 79.890625 0 
L 79.890625 32.71875 
Q 79.890625 40.578125 77.09375 44.375 
Q 74.3125 48.1875 68.609375 48.1875 
Q 61.625 48.1875 57.5625 43.546875 
Q 53.515625 38.921875 53.515625 30.90625 
L 53.515625 0 
L 44.484375 0 
L 44.484375 32.71875 
Q 44.484375 40.625 41.703125 44.40625 
Q 38.921875 48.1875 33.109375 48.1875 
Q 26.21875 48.1875 22.15625 43.53125 
Q 18.109375 38.875 18.109375 30.90625 
L 18.109375 0 
L 9.078125 0 
L 9.078125 54.6875 
L 18.109375 54.6875 
L 18.109375 46.1875 
Q 21.1875 51.21875 25.484375 53.609375 
Q 29.78125 56 35.6875 56 
Q 41.65625 56 45.828125 52.96875 
Q 50 49.953125 52 44.1875 
z
" id="DejaVuSans-109"/>
      <path d="M 30.609375 48.390625 
Q 23.390625 48.390625 19.1875 42.75 
Q 14.984375 37.109375 14.984375 27.296875 
Q 14.984375 17.484375 19.15625 11.84375 
Q 23.34375 6.203125 30.609375 6.203125 
Q 37.796875 6.203125 41.984375 11.859375 
Q 46.1875 17.53125 46.1875 27.296875 
Q 46.1875 37.015625 41.984375 42.703125 
Q 37.796875 48.390625 30.609375 48.390625 
z
M 30.609375 56 
Q 42.328125 56 49.015625 48.375 
Q 55.71875 40.765625 55.71875 27.296875 
Q 55.71875 13.875 49.015625 6.21875 
Q 42.328125 -1.421875 30.609375 -1.421875 
Q 18.84375 -1.421875 12.171875 6.21875 
Q 5.515625 13.875 5.515625 27.296875 
Q 5.515625 40.765625 12.171875 48.375 
Q 18.84375 56 30.609375 56 
z
" id="DejaVuSans-111"/>
      <path d="M 9.421875 75.984375 
L 18.40625 75.984375 
L 18.40625 0 
L 9.421875 0 
z
" id="DejaVuSans-108"/>
      <path d="M 45.40625 46.390625 
L 45.40625 75.984375 
L 54.390625 75.984375 
L 54.390625 0 
L 45.40625 0 
L 45.40625 8.203125 
Q 42.578125 3.328125 38.25 0.953125 
Q 33.9375 -1.421875 27.875 -1.421875 
Q 17.96875 -1.421875 11.734375 6.484375 
Q 5.515625 14.40625 5.515625 27.296875 
Q 5.515625 40.1875 11.734375 48.09375 
Q 17.96875 56 27.875 56 
Q 33.9375 56 38.25 53.625 
Q 42.578125 51.265625 45.40625 46.390625 
z
M 14.796875 27.296875 
Q 14.796875 17.390625 18.875 11.75 
Q 22.953125 6.109375 30.078125 6.109375 
Q 37.203125 6.109375 41.296875 11.75 
Q 45.40625 17.390625 45.40625 27.296875 
Q 45.40625 37.203125 41.296875 42.84375 
Q 37.203125 48.484375 30.078125 48.484375 
Q 22.953125 48.484375 18.875 42.84375 
Q 14.796875 37.203125 14.796875 27.296875 
z
" id="DejaVuSans-100"/>
      <path d="M 32.171875 -5.078125 
Q 28.375 -14.84375 24.75 -17.8125 
Q 21.140625 -20.796875 15.09375 -20.796875 
L 7.90625 -20.796875 
L 7.90625 -13.28125 
L 13.1875 -13.28125 
Q 16.890625 -13.28125 18.9375 -11.515625 
Q 21 -9.765625 23.484375 -3.21875 
L 25.09375 0.875 
L 2.984375 54.6875 
L 12.5 54.6875 
L 29.59375 11.921875 
L 46.6875 54.6875 
L 56.203125 54.6875 
z
" id="DejaVuSans-121"/>
     </defs>
     <g transform="translate(740.7525 98.1125)scale(0.16 -0.16)">
      <use xlink:href="#DejaVuSans-83"/>
      <use x="63.476562" xlink:href="#DejaVuSans-109"/>
      <use x="160.888672" xlink:href="#DejaVuSans-111"/>
      <use x="222.070312" xlink:href="#DejaVuSans-108"/>
      <use x="249.853516" xlink:href="#DejaVuSans-100"/>
      <use x="313.330078" xlink:href="#DejaVuSans-121"/>
      <use x="372.509766" xlink:href="#DejaVuSans-110"/>
     </g>
    </g>
    <g id="line2d_43">
     <path d="M 695.9525 112.7975 
L 727.9525 112.7975 
" style="fill:none;stroke:#0000ff;stroke-linecap:square;stroke-width:1.5;"/>
    </g>
    <g id="line2d_44"/>
    <g id="text_28">
     <!-- MinD-ATP -->
     <g transform="translate(740.7525 118.3975)scale(0.16 -0.16)">
      <use xlink:href="#DejaVuSans-77"/>
      <use x="86.279297" xlink:href="#DejaVuSans-105"/>
      <use x="114.0625" xlink:href="#DejaVuSans-110"/>
      <use x="177.441406" xlink:href="#DejaVuSans-68"/>
      <use x="254.443359" xlink:href="#DejaVuSans-45"/>
      <use x="290.496094" xlink:href="#DejaVuSans-65"/>
      <use x="358.794922" xlink:href="#DejaVuSans-84"/>
      <use x="419.878906" xlink:href="#DejaVuSans-80"/>
     </g>
    </g>
    <g id="line2d_45">
     <path d="M 695.9525 133.0825 
L 727.9525 133.0825 
" style="fill:none;stroke:#ff0000;stroke-linecap:square;stroke-width:1.5;"/>
    </g>
    <g id="line2d_46"/>
    <g id="text_29">
     <!-- E-MinD-ATP -->
     <g transform="translate(740.7525 138.6825)scale(0.16 -0.16)">
      <use xlink:href="#DejaVuSans-69"/>
      <use x="63.183594" xlink:href="#DejaVuSans-45"/>
      <use x="99.267578" xlink:href="#DejaVuSans-77"/>
      <use x="185.546875" xlink:href="#DejaVuSans-105"/>
      <use x="213.330078" xlink:href="#DejaVuSans-110"/>
      <use x="276.708984" xlink:href="#DejaVuSans-68"/>
      <use x="353.710938" xlink:href="#DejaVuSans-45"/>
      <use x="389.763672" xlink:href="#DejaVuSans-65"/>
      <use x="458.0625" xlink:href="#DejaVuSans-84"/>
      <use x="519.146484" xlink:href="#DejaVuSans-80"/>
     </g>
    </g>
   </g>
  </g>
 </g>
 <defs>
  <clipPath id="pa7830caf08">
   <rect height="228.312" width="381.073171" x="66.66" y="10.7"/>
  </clipPath>
  <clipPath id="pb6241f41a3">
   <rect height="228.312" width="381.073171" x="466.786829" y="10.7"/>
  </clipPath>
 </defs>
</svg>
