<?xml version="1.0" encoding="utf-8" standalone="no"?>
<!DOCTYPE svg PUBLIC "-//W3C//DTD SVG 1.1//EN"
  "http://www.w3.org/Graphics/SVG/1.1/DTD/svg11.dtd">
<!-- Created with matplotlib (https://matplotlib.org/) -->
<svg height="265.69625pt" version="1.1" viewBox="0 0 404.871875 265.69625" width="404.871875pt" xmlns="http://www.w3.org/2000/svg" xmlns:xlink="http://www.w3.org/1999/xlink">
 <defs>
  <style type="text/css">
*{stroke-linecap:butt;stroke-linejoin:round;}
  </style>
 </defs>
 <g id="figure_1">
  <g id="patch_1">
   <path d="M 0 265.69625 
L 404.871875 265.69625 
L 404.871875 0 
L 0 0 
z
" style="fill:#ffffff;"/>
  </g>
  <g id="axes_1">
   <g id="patch_2">
    <path d="M 53.328125 228.14 
L 388.128125 228.14 
L 388.128125 10.7 
L 53.328125 10.7 
z
" style="fill:#ffffff;"/>
   </g>
   <g id="matplotlib.axis_1">
    <g id="xtick_1">
     <g id="line2d_1">
      <defs>
       <path d="M 0 0 
L 0 3.5 
" id="m00f5263896" style="stroke:#000000;stroke-width:0.8;"/>
      </defs>
      <g>
       <use style="stroke:#000000;stroke-width:0.8;" x="53.328125" xlink:href="#m00f5263896" y="228.14"/>
      </g>
     </g>
     <g id="text_1">
      <!-- 0 -->
      <defs>
       <path d="M 31.78125 66.40625 
Q 24.171875 66.40625 20.328125 58.90625 
Q 16.5 51.421875 16.5 36.375 
Q 16.5 21.390625 20.328125 13.890625 
Q 24.171875 6.390625 31.78125 6.390625 
Q 39.453125 6.390625 43.28125 13.890625 
Q 47.125 21.390625 47.125 36.375 
Q 47.125 51.421875 43.28125 58.90625 
Q 39.453125 66.40625 31.78125 66.40625 
z
M 31.78125 74.21875 
Q 44.046875 74.21875 50.515625 64.515625 
Q 56.984375 54.828125 56.984375 36.375 
Q 56.984375 17.96875 50.515625 8.265625 
Q 44.046875 -1.421875 31.78125 -1.421875 
Q 19.53125 -1.421875 13.0625 8.265625 
Q 6.59375 17.96875 6.59375 36.375 
Q 6.59375 54.828125 13.0625 64.515625 
Q 19.53125 74.21875 31.78125 74.21875 
z
" id="DejaVuSans-48"/>
      </defs>
      <g transform="translate(50.146875 242.738437)scale(0.1 -0.1)">
       <use xlink:href="#DejaVuSans-48"/>
      </g>
     </g>
    </g>
    <g id="xtick_2">
     <g id="line2d_2">
      <g>
       <use style="stroke:#000000;stroke-width:0.8;" x="120.288125" xlink:href="#m00f5263896" y="228.14"/>
      </g>
     </g>
     <g id="text_2">
      <!-- 20 -->
      <defs>
       <path d="M 19.1875 8.296875 
L 53.609375 8.296875 
L 53.609375 0 
L 7.328125 0 
L 7.328125 8.296875 
Q 12.9375 14.109375 22.625 23.890625 
Q 32.328125 33.6875 34.8125 36.53125 
Q 39.546875 41.84375 41.421875 45.53125 
Q 43.3125 49.21875 43.3125 52.78125 
Q 43.3125 58.59375 39.234375 62.25 
Q 35.15625 65.921875 28.609375 65.921875 
Q 23.96875 65.921875 18.8125 64.3125 
Q 13.671875 62.703125 7.8125 59.421875 
L 7.8125 69.390625 
Q 13.765625 71.78125 18.9375 73 
Q 24.125 74.21875 28.421875 74.21875 
Q 39.75 74.21875 46.484375 68.546875 
Q 53.21875 62.890625 53.21875 53.421875 
Q 53.21875 48.921875 51.53125 44.890625 
Q 49.859375 40.875 45.40625 35.40625 
Q 44.1875 33.984375 37.640625 27.21875 
Q 31.109375 20.453125 19.1875 8.296875 
z
" id="DejaVuSans-50"/>
      </defs>
      <g transform="translate(113.925625 242.738437)scale(0.1 -0.1)">
       <use xlink:href="#DejaVuSans-50"/>
       <use x="63.623047" xlink:href="#DejaVuSans-48"/>
      </g>
     </g>
    </g>
    <g id="xtick_3">
     <g id="line2d_3">
      <g>
       <use style="stroke:#000000;stroke-width:0.8;" x="187.248125" xlink:href="#m00f5263896" y="228.14"/>
      </g>
     </g>
     <g id="text_3">
      <!-- 40 -->
      <defs>
       <path d="M 37.796875 64.3125 
L 12.890625 25.390625 
L 37.796875 25.390625 
z
M 35.203125 72.90625 
L 47.609375 72.90625 
L 47.609375 25.390625 
L 58.015625 25.390625 
L 58.015625 17.1875 
L 47.609375 17.1875 
L 47.609375 0 
L 37.796875 0 
L 37.796875 17.1875 
L 4.890625 17.1875 
L 4.890625 26.703125 
z
" id="DejaVuSans-52"/>
      </defs>
      <g transform="translate(180.885625 242.738437)scale(0.1 -0.1)">
       <use xlink:href="#DejaVuSans-52"/>
       <use x="63.623047" xlink:href="#DejaVuSans-48"/>
      </g>
     </g>
    </g>
    <g id="xtick_4">
     <g id="line2d_4">
      <g>
       <use style="stroke:#000000;stroke-width:0.8;" x="254.208125" xlink:href="#m00f5263896" y="228.14"/>
      </g>
     </g>
     <g id="text_4">
      <!-- 60 -->
      <defs>
       <path d="M 33.015625 40.375 
Q 26.375 40.375 22.484375 35.828125 
Q 18.609375 31.296875 18.609375 23.390625 
Q 18.609375 15.53125 22.484375 10.953125 
Q 26.375 6.390625 33.015625 6.390625 
Q 39.65625 6.390625 43.53125 10.953125 
Q 47.40625 15.53125 47.40625 23.390625 
Q 47.40625 31.296875 43.53125 35.828125 
Q 39.65625 40.375 33.015625 40.375 
z
M 52.59375 71.296875 
L 52.59375 62.3125 
Q 48.875 64.0625 45.09375 64.984375 
Q 41.3125 65.921875 37.59375 65.921875 
Q 27.828125 65.921875 22.671875 59.328125 
Q 17.53125 52.734375 16.796875 39.40625 
Q 19.671875 43.65625 24.015625 45.921875 
Q 28.375 48.1875 33.59375 48.1875 
Q 44.578125 48.1875 50.953125 41.515625 
Q 57.328125 34.859375 57.328125 23.390625 
Q 57.328125 12.15625 50.6875 5.359375 
Q 44.046875 -1.421875 33.015625 -1.421875 
Q 20.359375 -1.421875 13.671875 8.265625 
Q 6.984375 17.96875 6.984375 36.375 
Q 6.984375 53.65625 15.1875 63.9375 
Q 23.390625 74.21875 37.203125 74.21875 
Q 40.921875 74.21875 44.703125 73.484375 
Q 48.484375 72.75 52.59375 71.296875 
z
" id="DejaVuSans-54"/>
      </defs>
      <g transform="translate(247.845625 242.738437)scale(0.1 -0.1)">
       <use xlink:href="#DejaVuSans-54"/>
       <use x="63.623047" xlink:href="#DejaVuSans-48"/>
      </g>
     </g>
    </g>
    <g id="xtick_5">
     <g id="line2d_5">
      <g>
       <use style="stroke:#000000;stroke-width:0.8;" x="321.168125" xlink:href="#m00f5263896" y="228.14"/>
      </g>
     </g>
     <g id="text_5">
      <!-- 80 -->
      <defs>
       <path d="M 31.78125 34.625 
Q 24.75 34.625 20.71875 30.859375 
Q 16.703125 27.09375 16.703125 20.515625 
Q 16.703125 13.921875 20.71875 10.15625 
Q 24.75 6.390625 31.78125 6.390625 
Q 38.8125 6.390625 42.859375 10.171875 
Q 46.921875 13.96875 46.921875 20.515625 
Q 46.921875 27.09375 42.890625 30.859375 
Q 38.875 34.625 31.78125 34.625 
z
M 21.921875 38.8125 
Q 15.578125 40.375 12.03125 44.71875 
Q 8.5 49.078125 8.5 55.328125 
Q 8.5 64.0625 14.71875 69.140625 
Q 20.953125 74.21875 31.78125 74.21875 
Q 42.671875 74.21875 48.875 69.140625 
Q 55.078125 64.0625 55.078125 55.328125 
Q 55.078125 49.078125 51.53125 44.71875 
Q 48 40.375 41.703125 38.8125 
Q 48.828125 37.15625 52.796875 32.3125 
Q 56.78125 27.484375 56.78125 20.515625 
Q 56.78125 9.90625 50.3125 4.234375 
Q 43.84375 -1.421875 31.78125 -1.421875 
Q 19.734375 -1.421875 13.25 4.234375 
Q 6.78125 9.90625 6.78125 20.515625 
Q 6.78125 27.484375 10.78125 32.3125 
Q 14.796875 37.15625 21.921875 38.8125 
z
M 18.3125 54.390625 
Q 18.3125 48.734375 21.84375 45.5625 
Q 25.390625 42.390625 31.78125 42.390625 
Q 38.140625 42.390625 41.71875 45.5625 
Q 45.3125 48.734375 45.3125 54.390625 
Q 45.3125 60.0625 41.71875 63.234375 
Q 38.140625 66.40625 31.78125 66.40625 
Q 25.390625 66.40625 21.84375 63.234375 
Q 18.3125 60.0625 18.3125 54.390625 
z
" id="DejaVuSans-56"/>
      </defs>
      <g transform="translate(314.805625 242.738437)scale(0.1 -0.1)">
       <use xlink:href="#DejaVuSans-56"/>
       <use x="63.623047" xlink:href="#DejaVuSans-48"/>
      </g>
     </g>
    </g>
    <g id="xtick_6">
     <g id="line2d_6">
      <g>
       <use style="stroke:#000000;stroke-width:0.8;" x="388.128125" xlink:href="#m00f5263896" y="228.14"/>
      </g>
     </g>
     <g id="text_6">
      <!-- 100 -->
      <defs>
       <path d="M 12.40625 8.296875 
L 28.515625 8.296875 
L 28.515625 63.921875 
L 10.984375 60.40625 
L 10.984375 69.390625 
L 28.421875 72.90625 
L 38.28125 72.90625 
L 38.28125 8.296875 
L 54.390625 8.296875 
L 54.390625 0 
L 12.40625 0 
z
" id="DejaVuSans-49"/>
      </defs>
      <g transform="translate(378.584375 242.738437)scale(0.1 -0.1)">
       <use xlink:href="#DejaVuSans-49"/>
       <use x="63.623047" xlink:href="#DejaVuSans-48"/>
       <use x="127.246094" xlink:href="#DejaVuSans-48"/>
      </g>
     </g>
    </g>
    <g id="text_7">
     <!-- time [s] -->
     <defs>
      <path d="M 18.3125 70.21875 
L 18.3125 54.6875 
L 36.8125 54.6875 
L 36.8125 47.703125 
L 18.3125 47.703125 
L 18.3125 18.015625 
Q 18.3125 11.328125 20.140625 9.421875 
Q 21.96875 7.515625 27.59375 7.515625 
L 36.8125 7.515625 
L 36.8125 0 
L 27.59375 0 
Q 17.1875 0 13.234375 3.875 
Q 9.28125 7.765625 9.28125 18.015625 
L 9.28125 47.703125 
L 2.6875 47.703125 
L 2.6875 54.6875 
L 9.28125 54.6875 
L 9.28125 70.21875 
z
" id="DejaVuSans-116"/>
      <path d="M 9.421875 54.6875 
L 18.40625 54.6875 
L 18.40625 0 
L 9.421875 0 
z
M 9.421875 75.984375 
L 18.40625 75.984375 
L 18.40625 64.59375 
L 9.421875 64.59375 
z
" id="DejaVuSans-105"/>
      <path d="M 52 44.1875 
Q 55.375 50.25 60.0625 53.125 
Q 64.75 56 71.09375 56 
Q 79.640625 56 84.28125 50.015625 
Q 88.921875 44.046875 88.921875 33.015625 
L 88.921875 0 
L 79.890625 0 
L 79.890625 32.71875 
Q 79.890625 40.578125 77.09375 44.375 
Q 74.3125 48.1875 68.609375 48.1875 
Q 61.625 48.1875 57.5625 43.546875 
Q 53.515625 38.921875 53.515625 30.90625 
L 53.515625 0 
L 44.484375 0 
L 44.484375 32.71875 
Q 44.484375 40.625 41.703125 44.40625 
Q 38.921875 48.1875 33.109375 48.1875 
Q 26.21875 48.1875 22.15625 43.53125 
Q 18.109375 38.875 18.109375 30.90625 
L 18.109375 0 
L 9.078125 0 
L 9.078125 54.6875 
L 18.109375 54.6875 
L 18.109375 46.1875 
Q 21.1875 51.21875 25.484375 53.609375 
Q 29.78125 56 35.6875 56 
Q 41.65625 56 45.828125 52.96875 
Q 50 49.953125 52 44.1875 
z
" id="DejaVuSans-109"/>
      <path d="M 56.203125 29.59375 
L 56.203125 25.203125 
L 14.890625 25.203125 
Q 15.484375 15.921875 20.484375 11.0625 
Q 25.484375 6.203125 34.421875 6.203125 
Q 39.59375 6.203125 44.453125 7.46875 
Q 49.3125 8.734375 54.109375 11.28125 
L 54.109375 2.78125 
Q 49.265625 0.734375 44.1875 -0.34375 
Q 39.109375 -1.421875 33.890625 -1.421875 
Q 20.796875 -1.421875 13.15625 6.1875 
Q 5.515625 13.8125 5.515625 26.8125 
Q 5.515625 40.234375 12.765625 48.109375 
Q 20.015625 56 32.328125 56 
Q 43.359375 56 49.78125 48.890625 
Q 56.203125 41.796875 56.203125 29.59375 
z
M 47.21875 32.234375 
Q 47.125 39.59375 43.09375 43.984375 
Q 39.0625 48.390625 32.421875 48.390625 
Q 24.90625 48.390625 20.390625 44.140625 
Q 15.875 39.890625 15.1875 32.171875 
z
" id="DejaVuSans-101"/>
      <path id="DejaVuSans-32"/>
      <path d="M 8.59375 75.984375 
L 29.296875 75.984375 
L 29.296875 69 
L 17.578125 69 
L 17.578125 -6.203125 
L 29.296875 -6.203125 
L 29.296875 -13.1875 
L 8.59375 -13.1875 
z
" id="DejaVuSans-91"/>
      <path d="M 44.28125 53.078125 
L 44.28125 44.578125 
Q 40.484375 46.53125 36.375 47.5 
Q 32.28125 48.484375 27.875 48.484375 
Q 21.1875 48.484375 17.84375 46.4375 
Q 14.5 44.390625 14.5 40.28125 
Q 14.5 37.15625 16.890625 35.375 
Q 19.28125 33.59375 26.515625 31.984375 
L 29.59375 31.296875 
Q 39.15625 29.25 43.1875 25.515625 
Q 47.21875 21.78125 47.21875 15.09375 
Q 47.21875 7.46875 41.1875 3.015625 
Q 35.15625 -1.421875 24.609375 -1.421875 
Q 20.21875 -1.421875 15.453125 -0.5625 
Q 10.6875 0.296875 5.421875 2 
L 5.421875 11.28125 
Q 10.40625 8.6875 15.234375 7.390625 
Q 20.0625 6.109375 24.8125 6.109375 
Q 31.15625 6.109375 34.5625 8.28125 
Q 37.984375 10.453125 37.984375 14.40625 
Q 37.984375 18.0625 35.515625 20.015625 
Q 33.0625 21.96875 24.703125 23.78125 
L 21.578125 24.515625 
Q 13.234375 26.265625 9.515625 29.90625 
Q 5.8125 33.546875 5.8125 39.890625 
Q 5.8125 47.609375 11.28125 51.796875 
Q 16.75 56 26.8125 56 
Q 31.78125 56 36.171875 55.265625 
Q 40.578125 54.546875 44.28125 53.078125 
z
" id="DejaVuSans-115"/>
      <path d="M 30.421875 75.984375 
L 30.421875 -13.1875 
L 9.71875 -13.1875 
L 9.71875 -6.203125 
L 21.390625 -6.203125 
L 21.390625 69 
L 9.71875 69 
L 9.71875 75.984375 
z
" id="DejaVuSans-93"/>
     </defs>
     <g transform="translate(201.336719 256.416562)scale(0.1 -0.1)">
      <use xlink:href="#DejaVuSans-116"/>
      <use x="39.208984" xlink:href="#DejaVuSans-105"/>
      <use x="66.992188" xlink:href="#DejaVuSans-109"/>
      <use x="164.404297" xlink:href="#DejaVuSans-101"/>
      <use x="225.927734" xlink:href="#DejaVuSans-32"/>
      <use x="257.714844" xlink:href="#DejaVuSans-91"/>
      <use x="296.728516" xlink:href="#DejaVuSans-115"/>
      <use x="348.828125" xlink:href="#DejaVuSans-93"/>
     </g>
    </g>
   </g>
   <g id="matplotlib.axis_2">
    <g id="ytick_1">
     <g id="line2d_7">
      <defs>
       <path d="M 0 0 
L -3.5 0 
" id="m71fdf3c6a3" style="stroke:#000000;stroke-width:0.8;"/>
      </defs>
      <g>
       <use style="stroke:#000000;stroke-width:0.8;" x="53.328125" xlink:href="#m71fdf3c6a3" y="228.14"/>
      </g>
     </g>
     <g id="text_8">
      <!-- 0 -->
      <g transform="translate(39.965625 231.939219)scale(0.1 -0.1)">
       <use xlink:href="#DejaVuSans-48"/>
      </g>
     </g>
    </g>
    <g id="ytick_2">
     <g id="line2d_8">
      <g>
       <use style="stroke:#000000;stroke-width:0.8;" x="53.328125" xlink:href="#m71fdf3c6a3" y="199.529474"/>
      </g>
     </g>
     <g id="text_9">
      <!-- 250 -->
      <defs>
       <path d="M 10.796875 72.90625 
L 49.515625 72.90625 
L 49.515625 64.59375 
L 19.828125 64.59375 
L 19.828125 46.734375 
Q 21.96875 47.46875 24.109375 47.828125 
Q 26.265625 48.1875 28.421875 48.1875 
Q 40.625 48.1875 47.75 41.5 
Q 54.890625 34.8125 54.890625 23.390625 
Q 54.890625 11.625 47.5625 5.09375 
Q 40.234375 -1.421875 26.90625 -1.421875 
Q 22.3125 -1.421875 17.546875 -0.640625 
Q 12.796875 0.140625 7.71875 1.703125 
L 7.71875 11.625 
Q 12.109375 9.234375 16.796875 8.0625 
Q 21.484375 6.890625 26.703125 6.890625 
Q 35.15625 6.890625 40.078125 11.328125 
Q 45.015625 15.765625 45.015625 23.390625 
Q 45.015625 31 40.078125 35.4375 
Q 35.15625 39.890625 26.703125 39.890625 
Q 22.75 39.890625 18.8125 39.015625 
Q 14.890625 38.140625 10.796875 36.28125 
z
" id="DejaVuSans-53"/>
      </defs>
      <g transform="translate(27.240625 203.328692)scale(0.1 -0.1)">
       <use xlink:href="#DejaVuSans-50"/>
       <use x="63.623047" xlink:href="#DejaVuSans-53"/>
       <use x="127.246094" xlink:href="#DejaVuSans-48"/>
      </g>
     </g>
    </g>
    <g id="ytick_3">
     <g id="line2d_9">
      <g>
       <use style="stroke:#000000;stroke-width:0.8;" x="53.328125" xlink:href="#m71fdf3c6a3" y="170.918947"/>
      </g>
     </g>
     <g id="text_10">
      <!-- 500 -->
      <g transform="translate(27.240625 174.718166)scale(0.1 -0.1)">
       <use xlink:href="#DejaVuSans-53"/>
       <use x="63.623047" xlink:href="#DejaVuSans-48"/>
       <use x="127.246094" xlink:href="#DejaVuSans-48"/>
      </g>
     </g>
    </g>
    <g id="ytick_4">
     <g id="line2d_10">
      <g>
       <use style="stroke:#000000;stroke-width:0.8;" x="53.328125" xlink:href="#m71fdf3c6a3" y="142.308421"/>
      </g>
     </g>
     <g id="text_11">
      <!-- 750 -->
      <defs>
       <path d="M 8.203125 72.90625 
L 55.078125 72.90625 
L 55.078125 68.703125 
L 28.609375 0 
L 18.3125 0 
L 43.21875 64.59375 
L 8.203125 64.59375 
z
" id="DejaVuSans-55"/>
      </defs>
      <g transform="translate(27.240625 146.10764)scale(0.1 -0.1)">
       <use xlink:href="#DejaVuSans-55"/>
       <use x="63.623047" xlink:href="#DejaVuSans-53"/>
       <use x="127.246094" xlink:href="#DejaVuSans-48"/>
      </g>
     </g>
    </g>
    <g id="ytick_5">
     <g id="line2d_11">
      <g>
       <use style="stroke:#000000;stroke-width:0.8;" x="53.328125" xlink:href="#m71fdf3c6a3" y="113.697895"/>
      </g>
     </g>
     <g id="text_12">
      <!-- 1000 -->
      <g transform="translate(20.878125 117.497113)scale(0.1 -0.1)">
       <use xlink:href="#DejaVuSans-49"/>
       <use x="63.623047" xlink:href="#DejaVuSans-48"/>
       <use x="127.246094" xlink:href="#DejaVuSans-48"/>
       <use x="190.869141" xlink:href="#DejaVuSans-48"/>
      </g>
     </g>
    </g>
    <g id="ytick_6">
     <g id="line2d_12">
      <g>
       <use style="stroke:#000000;stroke-width:0.8;" x="53.328125" xlink:href="#m71fdf3c6a3" y="85.087368"/>
      </g>
     </g>
     <g id="text_13">
      <!-- 1250 -->
      <g transform="translate(20.878125 88.886587)scale(0.1 -0.1)">
       <use xlink:href="#DejaVuSans-49"/>
       <use x="63.623047" xlink:href="#DejaVuSans-50"/>
       <use x="127.246094" xlink:href="#DejaVuSans-53"/>
       <use x="190.869141" xlink:href="#DejaVuSans-48"/>
      </g>
     </g>
    </g>
    <g id="ytick_7">
     <g id="line2d_13">
      <g>
       <use style="stroke:#000000;stroke-width:0.8;" x="53.328125" xlink:href="#m71fdf3c6a3" y="56.476842"/>
      </g>
     </g>
     <g id="text_14">
      <!-- 1500 -->
      <g transform="translate(20.878125 60.276061)scale(0.1 -0.1)">
       <use xlink:href="#DejaVuSans-49"/>
       <use x="63.623047" xlink:href="#DejaVuSans-53"/>
       <use x="127.246094" xlink:href="#DejaVuSans-48"/>
       <use x="190.869141" xlink:href="#DejaVuSans-48"/>
      </g>
     </g>
    </g>
    <g id="ytick_8">
     <g id="line2d_14">
      <g>
       <use style="stroke:#000000;stroke-width:0.8;" x="53.328125" xlink:href="#m71fdf3c6a3" y="27.866316"/>
      </g>
     </g>
     <g id="text_15">
      <!-- 1750 -->
      <g transform="translate(20.878125 31.665535)scale(0.1 -0.1)">
       <use xlink:href="#DejaVuSans-49"/>
       <use x="63.623047" xlink:href="#DejaVuSans-55"/>
       <use x="127.246094" xlink:href="#DejaVuSans-53"/>
       <use x="190.869141" xlink:href="#DejaVuSans-48"/>
      </g>
     </g>
    </g>
    <g id="text_16">
     <!-- N(t) -->
     <defs>
      <path d="M 9.8125 72.90625 
L 23.09375 72.90625 
L 55.421875 11.921875 
L 55.421875 72.90625 
L 64.984375 72.90625 
L 64.984375 0 
L 51.703125 0 
L 19.390625 60.984375 
L 19.390625 0 
L 9.8125 0 
z
" id="DejaVuSans-78"/>
      <path d="M 31 75.875 
Q 24.46875 64.65625 21.28125 53.65625 
Q 18.109375 42.671875 18.109375 31.390625 
Q 18.109375 20.125 21.3125 9.0625 
Q 24.515625 -2 31 -13.1875 
L 23.1875 -13.1875 
Q 15.875 -1.703125 12.234375 9.375 
Q 8.59375 20.453125 8.59375 31.390625 
Q 8.59375 42.28125 12.203125 53.3125 
Q 15.828125 64.359375 23.1875 75.875 
z
" id="DejaVuSans-40"/>
      <path d="M 8.015625 75.875 
L 15.828125 75.875 
Q 23.140625 64.359375 26.78125 53.3125 
Q 30.421875 42.28125 30.421875 31.390625 
Q 30.421875 20.453125 26.78125 9.375 
Q 23.140625 -1.703125 15.828125 -13.1875 
L 8.015625 -13.1875 
Q 14.5 -2 17.703125 9.0625 
Q 20.90625 20.125 20.90625 31.390625 
Q 20.90625 42.671875 17.703125 53.65625 
Q 14.5 64.65625 8.015625 75.875 
z
" id="DejaVuSans-41"/>
     </defs>
     <g transform="translate(14.798438 129.022344)rotate(-90)scale(0.1 -0.1)">
      <use xlink:href="#DejaVuSans-78"/>
      <use x="74.804688" xlink:href="#DejaVuSans-40"/>
      <use x="113.818359" xlink:href="#DejaVuSans-116"/>
      <use x="153.027344" xlink:href="#DejaVuSans-41"/>
     </g>
    </g>
   </g>
   <g id="line2d_15">
    <path clip-path="url(#pe616ab6053)" d="M 53.328125 228.14 
L 70.068125 227.866483 
L 73.416125 227.625932 
L 75.090125 227.352814 
L 76.764125 226.563873 
L 78.438125 210.447854 
L 80.112125 142.987948 
L 81.786125 102.320957 
L 83.460125 82.80856 
L 85.134125 76.130586 
L 86.808125 77.06925 
L 88.482125 82.397724 
L 90.156125 90.124794 
L 93.504125 108.351156 
L 96.852125 126.654953 
L 100.200125 143.256207 
L 101.874125 150.74262 
L 103.548125 157.671639 
L 105.222125 164.05662 
L 106.896125 169.92114 
L 108.570125 175.294501 
L 110.244125 180.208833 
L 111.918125 184.697251 
L 113.592125 188.792684 
L 115.266125 192.527158 
L 116.940125 195.931379 
L 118.614125 199.034526 
L 120.288125 201.864188 
L 121.962125 204.446413 
L 123.636125 206.805867 
L 126.984125 210.949838 
L 130.332125 214.479598 
L 133.680125 217.59941 
L 137.028125 220.644309 
L 138.702125 222.388548 
L 140.376125 224.62024 
L 142.050125 227.0441 
L 143.724125 227.830968 
L 147.072125 227.983214 
L 153.768125 227.867628 
L 157.116125 227.681008 
L 158.790125 227.490841 
L 160.464125 227.077551 
L 162.138125 224.991734 
L 163.812125 177.932898 
L 165.486125 123.592115 
L 167.160125 95.115621 
L 168.834125 82.935356 
L 170.508125 80.518306 
L 172.182125 83.815296 
L 173.856125 90.327929 
L 175.530125 98.518656 
L 182.226125 133.998988 
L 185.574125 149.602039 
L 187.248125 156.595191 
L 188.922125 163.050575 
L 190.596125 168.98732 
L 192.270125 174.431975 
L 193.944125 179.415008 
L 195.618125 183.968565 
L 197.292125 188.125056 
L 198.966125 191.916275 
L 200.640125 195.372876 
L 202.314125 198.524095 
L 203.988125 201.397637 
L 205.662125 204.019698 
L 207.336125 206.415078 
L 210.684125 210.619554 
L 214.032125 214.194284 
L 217.380125 217.339203 
L 220.728125 220.367827 
L 222.402125 222.061589 
L 224.076125 224.184278 
L 225.750125 226.719235 
L 227.424125 227.775913 
L 229.098125 227.950026 
L 234.120125 227.959181 
L 239.142125 227.808316 
L 242.490125 227.532904 
L 244.164125 227.182512 
L 245.838125 225.818515 
L 247.512125 190.217322 
L 249.186125 130.86976 
L 250.860125 98.651275 
L 252.534125 84.202291 
L 254.208125 80.438505 
L 255.882125 82.958425 
L 257.556125 89.045122 
L 259.230125 97.025658 
L 267.600125 140.703947 
L 269.274125 148.334603 
L 270.948125 155.42206 
L 272.622125 161.969553 
L 274.296125 167.994435 
L 275.970125 173.522268 
L 277.644125 178.583031 
L 279.318125 183.208698 
L 280.992125 187.431707 
L 282.666125 191.284002 
L 284.340125 194.796464 
L 286.014125 197.998583 
L 287.688125 200.918335 
L 289.362125 203.582169 
L 291.036125 206.015114 
L 294.384125 210.282741 
L 297.732125 213.904698 
L 301.080125 217.077381 
L 304.428125 220.095733 
L 306.102125 221.747068 
L 307.776125 223.769714 
L 309.450125 226.328502 
L 311.124125 227.699835 
L 312.798125 227.936293 
L 317.820125 227.963759 
L 322.842125 227.822298 
L 326.190125 227.570316 
L 327.864125 227.268481 
L 329.538125 226.294841 
L 331.212125 202.575708 
L 332.886125 138.992817 
L 334.560125 102.710913 
L 336.234125 85.783682 
L 337.908125 80.543394 
L 339.582125 82.206168 
L 341.256125 87.817627 
L 342.930125 95.55774 
L 351.300125 139.327177 
L 352.974125 147.050766 
L 354.648125 154.23265 
L 356.322125 160.872794 
L 357.996125 166.9866 
L 359.670125 172.598524 
L 361.344125 177.737982 
L 363.018125 182.436733 
L 364.692125 186.727217 
L 366.366125 190.641515 
L 368.040125 194.210721 
L 369.714125 197.464581 
L 371.388125 200.431336 
L 373.062125 203.137694 
L 374.736125 205.608922 
L 376.410125 207.869024 
L 379.758125 211.847652 
L 383.106125 215.257683 
L 389.802125 221.443186 
L 391.476125 223.37679 
L 393.150125 225.890818 
L 394.824125 227.594015 
L 396.498125 227.917982 
L 399.846125 227.98207 
L 405.871875 227.859742 
L 405.871875 227.859742 
" style="fill:none;stroke:#1f77b4;stroke-linecap:square;stroke-width:1.5;"/>
   </g>
   <g id="line2d_16">
    <path clip-path="url(#pe616ab6053)" d="M 53.328125 228.14 
L 55.002125 205.208609 
L 56.676125 144.317601 
L 58.350125 91.075516 
L 60.024125 58.763041 
L 61.698125 43.701546 
L 63.372125 40.994718 
L 65.046125 46.854555 
L 66.720125 58.635504 
L 68.394125 74.563024 
L 70.068125 93.492035 
L 71.742125 114.753044 
L 73.416125 138.11076 
L 75.090125 163.933089 
L 76.764125 194.070073 
L 78.438125 226.862441 
L 80.112125 228.054626 
L 88.482125 228.092163 
L 113.592125 227.955748 
L 126.984125 227.683873 
L 133.680125 227.329976 
L 137.028125 226.90459 
L 138.702125 226.416923 
L 140.376125 225.022191 
L 142.050125 217.511795 
L 143.724125 187.682277 
L 145.398125 145.656767 
L 147.072125 113.526111 
L 148.746125 95.631643 
L 150.420125 89.653034 
L 152.094125 92.577564 
L 153.768125 101.974428 
L 155.442125 116.128496 
L 157.116125 133.97043 
L 158.790125 155.076424 
L 160.464125 180.00834 
L 162.138125 211.899538 
L 163.812125 227.960326 
L 167.160125 228.087471 
L 187.248125 228.041122 
L 205.662125 227.827404 
L 214.032125 227.559618 
L 219.054125 227.196141 
L 220.728125 226.959473 
L 222.402125 226.53216 
L 224.076125 225.419769 
L 225.750125 219.948522 
L 227.424125 194.568981 
L 229.098125 152.582451 
L 230.772125 118.054208 
L 232.446125 97.792941 
L 234.120125 89.97313 
L 235.794125 91.548898 
L 237.468125 99.965938 
L 239.142125 113.389178 
L 240.816125 130.641615 
L 242.490125 151.17842 
L 244.164125 175.331858 
L 245.838125 205.61599 
L 247.512125 227.844974 
L 249.186125 228.066871 
L 259.230125 228.086784 
L 284.340125 227.920271 
L 296.058125 227.644122 
L 301.080125 227.376004 
L 304.428125 227.009257 
L 306.102125 226.630862 
L 307.776125 225.724811 
L 309.450125 221.738655 
L 311.124125 200.890615 
L 312.798125 159.792881 
L 314.472125 123.025757 
L 316.146125 100.328279 
L 317.820125 90.573115 
L 319.494125 90.72338 
L 321.168125 98.105907 
L 322.842125 110.763231 
L 324.516125 127.409498 
L 326.190125 147.384807 
L 327.864125 170.825115 
L 331.212125 227.521491 
L 332.886125 228.059433 
L 341.256125 228.090332 
L 366.366125 227.945448 
L 378.084125 227.712405 
L 384.780125 227.397336 
L 388.128125 227.054675 
L 389.802125 226.716479 
L 391.476125 225.964351 
L 393.150125 223.029639 
L 394.824125 206.485578 
L 398.172125 128.441996 
L 399.846125 103.255109 
L 401.520125 91.469345 
L 403.194125 90.113311 
L 404.868125 96.402715 
L 405.871875 103.509876 
L 405.871875 103.509876 
" style="fill:none;stroke:#1f77b4;stroke-dasharray:1.5,1.5;stroke-dashoffset:0;stroke-width:1.5;"/>
   </g>
   <g id="line2d_17">
    <path clip-path="url(#pe616ab6053)" d="M 53.328125 228.14 
L 61.698125 228.082779 
L 68.394125 227.911116 
L 70.068125 227.911116 
L 73.416125 227.567789 
L 76.764125 226.881137 
L 83.460125 86.689558 
L 86.808125 90.008379 
L 90.156125 89.092842 
L 93.504125 117.016716 
L 96.852125 125.599874 
L 100.200125 147.801642 
L 103.548125 157.986989 
L 106.896125 172.750021 
L 110.244125 183.965347 
L 113.592125 194.150695 
L 116.940125 198.385053 
L 120.288125 198.957263 
L 123.636125 202.504968 
L 126.984125 214.063621 
L 130.332125 212.9192 
L 133.680125 211.317011 
L 137.028125 217.153558 
L 140.376125 220.472379 
L 143.724125 218.526863 
L 147.072125 219.213516 
L 150.420125 215.322484 
L 153.768125 227.796674 
L 158.790125 227.911116 
L 163.812125 227.911116 
L 167.160125 227.453347 
L 170.508125 226.537811 
L 173.856125 144.711705 
L 177.204125 91.1528 
L 180.552125 87.719537 
L 183.900125 106.488042 
L 187.248125 122.738821 
L 190.596125 149.8616 
L 193.944125 157.872547 
L 197.292125 167.371242 
L 203.988125 180.532084 
L 207.336125 194.265137 
L 210.684125 198.385053 
L 214.032125 201.703874 
L 217.380125 203.534947 
L 220.728125 213.834737 
L 224.076125 213.033642 
L 227.424125 223.7912 
L 230.772125 215.0936 
L 234.120125 222.303453 
L 237.468125 228.025558 
L 240.816125 221.731242 
L 244.164125 213.033642 
L 247.512125 214.750274 
L 250.860125 217.611326 
L 254.208125 214.979158 
L 257.556125 220.930147 
L 260.904125 227.453347 
L 264.252125 227.567789 
L 267.600125 228.025558 
L 270.948125 228.14 
L 275.970125 227.739453 
L 277.644125 227.567789 
L 280.992125 226.080042 
L 284.340125 115.643411 
L 287.688125 63.915579 
L 294.384125 81.425221 
L 297.732125 95.5016 
L 302.754125 127.202063 
L 304.428125 137.501853 
L 307.776125 159.589179 
L 311.124125 163.937979 
L 314.472125 174.809979 
L 317.820125 184.194232 
L 321.168125 187.970821 
L 324.516125 200.559453 
L 327.864125 211.431453 
L 331.212125 210.630358 
L 334.560125 216.352463 
L 337.908125 227.453347 
L 341.256125 228.025558 
L 344.604125 228.025558 
L 347.952125 227.796674 
L 351.300125 227.796674 
L 354.648125 227.224463 
L 357.996125 221.960126 
L 361.344125 117.932253 
L 364.692125 83.256295 
L 368.040125 94.128295 
L 371.388125 103.741432 
L 374.736125 117.016716 
L 378.084125 131.550863 
L 381.432125 157.185895 
L 384.780125 169.087874 
L 388.128125 176.068842 
L 388.128125 176.068842 
" style="fill:none;stroke:#ff7f0e;stroke-linecap:square;stroke-width:1.5;"/>
   </g>
   <g id="line2d_18">
    <path clip-path="url(#pe616ab6053)" d="M 53.328125 228.14 
L 56.676125 144.368379 
L 60.024125 34.275074 
L 63.372125 15.621011 
L 66.720125 50.525853 
L 73.416125 147.916084 
L 76.764125 182.248716 
L 80.112125 228.14 
L 90.156125 228.14 
L 93.504125 227.796674 
L 98.526125 228.082779 
L 100.200125 228.14 
L 103.548125 227.796674 
L 106.896125 228.14 
L 111.918125 228.025558 
L 115.266125 227.968337 
L 118.614125 227.796674 
L 120.288125 227.682232 
L 123.636125 228.14 
L 126.984125 227.911116 
L 130.332125 227.453347 
L 133.680125 227.796674 
L 137.028125 227.911116 
L 140.376125 226.995579 
L 143.724125 227.224463 
L 147.072125 227.682232 
L 150.420125 227.682232 
L 153.768125 211.774779 
L 157.116125 137.845179 
L 160.464125 77.190863 
L 163.812125 118.390021 
L 170.508125 188.543032 
L 173.856125 228.14 
L 185.574125 228.082779 
L 187.248125 228.025558 
L 190.596125 227.682232 
L 193.944125 228.025558 
L 202.314125 227.968337 
L 205.662125 227.911116 
L 209.010125 227.968337 
L 212.358125 228.025558 
L 217.380125 228.025558 
L 220.728125 227.567789 
L 224.076125 227.682232 
L 227.424125 226.881137 
L 230.772125 228.025558 
L 234.120125 226.308926 
L 237.468125 218.870189 
L 240.816125 227.110021 
L 245.838125 227.510568 
L 247.512125 227.682232 
L 250.860125 227.453347 
L 254.208125 227.567789 
L 257.556125 227.338905 
L 260.904125 203.077179 
L 264.252125 197.812842 
L 267.600125 124.569895 
L 270.948125 90.122821 
L 274.296125 102.368126 
L 277.644125 130.177558 
L 280.992125 198.499495 
L 284.340125 227.911116 
L 289.362125 228.025558 
L 292.710125 228.082779 
L 294.384125 228.14 
L 299.406125 228.025558 
L 302.754125 227.968337 
L 307.776125 227.796674 
L 311.124125 228.14 
L 316.146125 228.082779 
L 317.820125 228.025558 
L 322.842125 228.14 
L 324.516125 228.14 
L 327.864125 227.110021 
L 331.212125 227.338905 
L 334.560125 225.9656 
L 337.908125 211.545895 
L 341.256125 123.082148 
L 344.604125 85.545137 
L 347.952125 89.207284 
L 351.300125 115.757853 
L 354.648125 160.619158 
L 357.996125 221.845684 
L 361.344125 228.14 
L 364.692125 228.025558 
L 368.040125 228.14 
L 371.388125 227.911116 
L 374.736125 228.14 
L 378.084125 227.911116 
L 381.432125 227.911116 
L 384.780125 228.14 
L 388.128125 228.025558 
L 388.128125 228.025558 
" style="fill:none;stroke:#ff7f0e;stroke-dasharray:1.5,1.5;stroke-dashoffset:0;stroke-width:1.5;"/>
   </g>
   <g id="patch_3">
    <path d="M 53.328125 228.14 
L 53.328125 10.7 
" style="fill:none;stroke:#000000;stroke-linecap:square;stroke-linejoin:miter;stroke-width:0.8;"/>
   </g>
   <g id="patch_4">
    <path d="M 388.128125 228.14 
L 388.128125 10.7 
" style="fill:none;stroke:#000000;stroke-linecap:square;stroke-linejoin:miter;stroke-width:0.8;"/>
   </g>
   <g id="patch_5">
    <path d="M 53.328125 228.14 
L 388.128125 228.14 
" style="fill:none;stroke:#000000;stroke-linecap:square;stroke-linejoin:miter;stroke-width:0.8;"/>
   </g>
   <g id="patch_6">
    <path d="M 53.328125 10.7 
L 388.128125 10.7 
" style="fill:none;stroke:#000000;stroke-linecap:square;stroke-linejoin:miter;stroke-width:0.8;"/>
   </g>
   <g id="legend_1">
    <g id="patch_7">
     <path d="M 134.682813 46.05625 
L 306.773438 46.05625 
Q 308.773438 46.05625 308.773438 44.05625 
L 308.773438 17.7 
Q 308.773438 15.7 306.773438 15.7 
L 134.682813 15.7 
Q 132.682813 15.7 132.682813 17.7 
L 132.682813 44.05625 
Q 132.682813 46.05625 134.682813 46.05625 
z
" style="fill:#ffffff;opacity:0.8;stroke:#cccccc;stroke-linejoin:miter;"/>
    </g>
    <g id="line2d_19">
     <path d="M 136.682813 23.798437 
L 156.682813 23.798437 
" style="fill:none;stroke:#1f77b4;stroke-linecap:square;stroke-width:1.5;"/>
    </g>
    <g id="line2d_20"/>
    <g id="text_17">
     <!-- R, ODE -->
     <defs>
      <path d="M 44.390625 34.1875 
Q 47.5625 33.109375 50.5625 29.59375 
Q 53.5625 26.078125 56.59375 19.921875 
L 66.609375 0 
L 56 0 
L 46.6875 18.703125 
Q 43.0625 26.03125 39.671875 28.421875 
Q 36.28125 30.8125 30.421875 30.8125 
L 19.671875 30.8125 
L 19.671875 0 
L 9.8125 0 
L 9.8125 72.90625 
L 32.078125 72.90625 
Q 44.578125 72.90625 50.734375 67.671875 
Q 56.890625 62.453125 56.890625 51.90625 
Q 56.890625 45.015625 53.6875 40.46875 
Q 50.484375 35.9375 44.390625 34.1875 
z
M 19.671875 64.796875 
L 19.671875 38.921875 
L 32.078125 38.921875 
Q 39.203125 38.921875 42.84375 42.21875 
Q 46.484375 45.515625 46.484375 51.90625 
Q 46.484375 58.296875 42.84375 61.546875 
Q 39.203125 64.796875 32.078125 64.796875 
z
" id="DejaVuSans-82"/>
      <path d="M 11.71875 12.40625 
L 22.015625 12.40625 
L 22.015625 4 
L 14.015625 -11.625 
L 7.71875 -11.625 
L 11.71875 4 
z
" id="DejaVuSans-44"/>
      <path d="M 39.40625 66.21875 
Q 28.65625 66.21875 22.328125 58.203125 
Q 16.015625 50.203125 16.015625 36.375 
Q 16.015625 22.609375 22.328125 14.59375 
Q 28.65625 6.59375 39.40625 6.59375 
Q 50.140625 6.59375 56.421875 14.59375 
Q 62.703125 22.609375 62.703125 36.375 
Q 62.703125 50.203125 56.421875 58.203125 
Q 50.140625 66.21875 39.40625 66.21875 
z
M 39.40625 74.21875 
Q 54.734375 74.21875 63.90625 63.9375 
Q 73.09375 53.65625 73.09375 36.375 
Q 73.09375 19.140625 63.90625 8.859375 
Q 54.734375 -1.421875 39.40625 -1.421875 
Q 24.03125 -1.421875 14.8125 8.828125 
Q 5.609375 19.09375 5.609375 36.375 
Q 5.609375 53.65625 14.8125 63.9375 
Q 24.03125 74.21875 39.40625 74.21875 
z
" id="DejaVuSans-79"/>
      <path d="M 19.671875 64.796875 
L 19.671875 8.109375 
L 31.59375 8.109375 
Q 46.6875 8.109375 53.6875 14.9375 
Q 60.6875 21.78125 60.6875 36.53125 
Q 60.6875 51.171875 53.6875 57.984375 
Q 46.6875 64.796875 31.59375 64.796875 
z
M 9.8125 72.90625 
L 30.078125 72.90625 
Q 51.265625 72.90625 61.171875 64.09375 
Q 71.09375 55.28125 71.09375 36.53125 
Q 71.09375 17.671875 61.125 8.828125 
Q 51.171875 0 30.078125 0 
L 9.8125 0 
z
" id="DejaVuSans-68"/>
      <path d="M 9.8125 72.90625 
L 55.90625 72.90625 
L 55.90625 64.59375 
L 19.671875 64.59375 
L 19.671875 43.015625 
L 54.390625 43.015625 
L 54.390625 34.71875 
L 19.671875 34.71875 
L 19.671875 8.296875 
L 56.78125 8.296875 
L 56.78125 0 
L 9.8125 0 
z
" id="DejaVuSans-69"/>
     </defs>
     <g transform="translate(164.682813 27.298437)scale(0.1 -0.1)">
      <use xlink:href="#DejaVuSans-82"/>
      <use x="69.482422" xlink:href="#DejaVuSans-44"/>
      <use x="101.269531" xlink:href="#DejaVuSans-32"/>
      <use x="133.056641" xlink:href="#DejaVuSans-79"/>
      <use x="211.767578" xlink:href="#DejaVuSans-68"/>
      <use x="288.769531" xlink:href="#DejaVuSans-69"/>
     </g>
    </g>
    <g id="line2d_21">
     <path d="M 136.682813 36.476562 
L 156.682813 36.476562 
" style="fill:none;stroke:#1f77b4;stroke-dasharray:1.5,1.5;stroke-dashoffset:0;stroke-width:1.5;"/>
    </g>
    <g id="line2d_22"/>
    <g id="text_18">
     <!-- A, ODE -->
     <defs>
      <path d="M 34.1875 63.1875 
L 20.796875 26.90625 
L 47.609375 26.90625 
z
M 28.609375 72.90625 
L 39.796875 72.90625 
L 67.578125 0 
L 57.328125 0 
L 50.6875 18.703125 
L 17.828125 18.703125 
L 11.1875 0 
L 0.78125 0 
z
" id="DejaVuSans-65"/>
     </defs>
     <g transform="translate(164.682813 39.976562)scale(0.1 -0.1)">
      <use xlink:href="#DejaVuSans-65"/>
      <use x="68.408203" xlink:href="#DejaVuSans-44"/>
      <use x="100.195312" xlink:href="#DejaVuSans-32"/>
      <use x="131.982422" xlink:href="#DejaVuSans-79"/>
      <use x="210.693359" xlink:href="#DejaVuSans-68"/>
      <use x="287.695312" xlink:href="#DejaVuSans-69"/>
     </g>
    </g>
    <g id="line2d_23">
     <path d="M 219.878125 23.798437 
L 239.878125 23.798437 
" style="fill:none;stroke:#ff7f0e;stroke-linecap:square;stroke-width:1.5;"/>
    </g>
    <g id="line2d_24"/>
    <g id="text_19">
     <!-- R, Smoldyn -->
     <defs>
      <path d="M 53.515625 70.515625 
L 53.515625 60.890625 
Q 47.90625 63.578125 42.921875 64.890625 
Q 37.9375 66.21875 33.296875 66.21875 
Q 25.25 66.21875 20.875 63.09375 
Q 16.5 59.96875 16.5 54.203125 
Q 16.5 49.359375 19.40625 46.890625 
Q 22.3125 44.4375 30.421875 42.921875 
L 36.375 41.703125 
Q 47.40625 39.59375 52.65625 34.296875 
Q 57.90625 29 57.90625 20.125 
Q 57.90625 9.515625 50.796875 4.046875 
Q 43.703125 -1.421875 29.984375 -1.421875 
Q 24.8125 -1.421875 18.96875 -0.25 
Q 13.140625 0.921875 6.890625 3.21875 
L 6.890625 13.375 
Q 12.890625 10.015625 18.65625 8.296875 
Q 24.421875 6.59375 29.984375 6.59375 
Q 38.421875 6.59375 43.015625 9.90625 
Q 47.609375 13.234375 47.609375 19.390625 
Q 47.609375 24.75 44.3125 27.78125 
Q 41.015625 30.8125 33.5 32.328125 
L 27.484375 33.5 
Q 16.453125 35.6875 11.515625 40.375 
Q 6.59375 45.0625 6.59375 53.421875 
Q 6.59375 63.09375 13.40625 68.65625 
Q 20.21875 74.21875 32.171875 74.21875 
Q 37.3125 74.21875 42.625 73.28125 
Q 47.953125 72.359375 53.515625 70.515625 
z
" id="DejaVuSans-83"/>
      <path d="M 30.609375 48.390625 
Q 23.390625 48.390625 19.1875 42.75 
Q 14.984375 37.109375 14.984375 27.296875 
Q 14.984375 17.484375 19.15625 11.84375 
Q 23.34375 6.203125 30.609375 6.203125 
Q 37.796875 6.203125 41.984375 11.859375 
Q 46.1875 17.53125 46.1875 27.296875 
Q 46.1875 37.015625 41.984375 42.703125 
Q 37.796875 48.390625 30.609375 48.390625 
z
M 30.609375 56 
Q 42.328125 56 49.015625 48.375 
Q 55.71875 40.765625 55.71875 27.296875 
Q 55.71875 13.875 49.015625 6.21875 
Q 42.328125 -1.421875 30.609375 -1.421875 
Q 18.84375 -1.421875 12.171875 6.21875 
Q 5.515625 13.875 5.515625 27.296875 
Q 5.515625 40.765625 12.171875 48.375 
Q 18.84375 56 30.609375 56 
z
" id="DejaVuSans-111"/>
      <path d="M 9.421875 75.984375 
L 18.40625 75.984375 
L 18.40625 0 
L 9.421875 0 
z
" id="DejaVuSans-108"/>
      <path d="M 45.40625 46.390625 
L 45.40625 75.984375 
L 54.390625 75.984375 
L 54.390625 0 
L 45.40625 0 
L 45.40625 8.203125 
Q 42.578125 3.328125 38.25 0.953125 
Q 33.9375 -1.421875 27.875 -1.421875 
Q 17.96875 -1.421875 11.734375 6.484375 
Q 5.515625 14.40625 5.515625 27.296875 
Q 5.515625 40.1875 11.734375 48.09375 
Q 17.96875 56 27.875 56 
Q 33.9375 56 38.25 53.625 
Q 42.578125 51.265625 45.40625 46.390625 
z
M 14.796875 27.296875 
Q 14.796875 17.390625 18.875 11.75 
Q 22.953125 6.109375 30.078125 6.109375 
Q 37.203125 6.109375 41.296875 11.75 
Q 45.40625 17.390625 45.40625 27.296875 
Q 45.40625 37.203125 41.296875 42.84375 
Q 37.203125 48.484375 30.078125 48.484375 
Q 22.953125 48.484375 18.875 42.84375 
Q 14.796875 37.203125 14.796875 27.296875 
z
" id="DejaVuSans-100"/>
      <path d="M 32.171875 -5.078125 
Q 28.375 -14.84375 24.75 -17.8125 
Q 21.140625 -20.796875 15.09375 -20.796875 
L 7.90625 -20.796875 
L 7.90625 -13.28125 
L 13.1875 -13.28125 
Q 16.890625 -13.28125 18.9375 -11.515625 
Q 21 -9.765625 23.484375 -3.21875 
L 25.09375 0.875 
L 2.984375 54.6875 
L 12.5 54.6875 
L 29.59375 11.921875 
L 46.6875 54.6875 
L 56.203125 54.6875 
z
" id="DejaVuSans-121"/>
      <path d="M 54.890625 33.015625 
L 54.890625 0 
L 45.90625 0 
L 45.90625 32.71875 
Q 45.90625 40.484375 42.875 44.328125 
Q 39.84375 48.1875 33.796875 48.1875 
Q 26.515625 48.1875 22.3125 43.546875 
Q 18.109375 38.921875 18.109375 30.90625 
L 18.109375 0 
L 9.078125 0 
L 9.078125 54.6875 
L 18.109375 54.6875 
L 18.109375 46.1875 
Q 21.34375 51.125 25.703125 53.5625 
Q 30.078125 56 35.796875 56 
Q 45.21875 56 50.046875 50.171875 
Q 54.890625 44.34375 54.890625 33.015625 
z
" id="DejaVuSans-110"/>
     </defs>
     <g transform="translate(247.878125 27.298437)scale(0.1 -0.1)">
      <use xlink:href="#DejaVuSans-82"/>
      <use x="69.482422" xlink:href="#DejaVuSans-44"/>
      <use x="101.269531" xlink:href="#DejaVuSans-32"/>
      <use x="133.056641" xlink:href="#DejaVuSans-83"/>
      <use x="196.533203" xlink:href="#DejaVuSans-109"/>
      <use x="293.945312" xlink:href="#DejaVuSans-111"/>
      <use x="355.126953" xlink:href="#DejaVuSans-108"/>
      <use x="382.910156" xlink:href="#DejaVuSans-100"/>
      <use x="446.386719" xlink:href="#DejaVuSans-121"/>
      <use x="505.566406" xlink:href="#DejaVuSans-110"/>
     </g>
    </g>
    <g id="line2d_25">
     <path d="M 219.878125 36.476562 
L 239.878125 36.476562 
" style="fill:none;stroke:#ff7f0e;stroke-dasharray:1.5,1.5;stroke-dashoffset:0;stroke-width:1.5;"/>
    </g>
    <g id="line2d_26"/>
    <g id="text_20">
     <!-- A, Smoldyn -->
     <g transform="translate(247.878125 39.976562)scale(0.1 -0.1)">
      <use xlink:href="#DejaVuSans-65"/>
      <use x="68.408203" xlink:href="#DejaVuSans-44"/>
      <use x="100.195312" xlink:href="#DejaVuSans-32"/>
      <use x="131.982422" xlink:href="#DejaVuSans-83"/>
      <use x="195.458984" xlink:href="#DejaVuSans-109"/>
      <use x="292.871094" xlink:href="#DejaVuSans-111"/>
      <use x="354.052734" xlink:href="#DejaVuSans-108"/>
      <use x="381.835938" xlink:href="#DejaVuSans-100"/>
      <use x="445.3125" xlink:href="#DejaVuSans-121"/>
      <use x="504.492188" xlink:href="#DejaVuSans-110"/>
     </g>
    </g>
   </g>
  </g>
 </g>
 <defs>
  <clipPath id="pe616ab6053">
   <rect height="217.44" width="334.8" x="53.328125" y="10.7"/>
  </clipPath>
 </defs>
</svg>
