<?xml version="1.0" encoding="utf-8" standalone="no"?>
<!DOCTYPE svg PUBLIC "-//W3C//DTD SVG 1.1//EN"
  "http://www.w3.org/Graphics/SVG/1.1/DTD/svg11.dtd">
<!-- Created with matplotlib (https://matplotlib.org/) -->
<svg height="265.69625pt" version="1.1" viewBox="0 0 388.965625 265.69625" width="388.965625pt" xmlns="http://www.w3.org/2000/svg" xmlns:xlink="http://www.w3.org/1999/xlink">
 <defs>
  <style type="text/css">
*{stroke-linecap:butt;stroke-linejoin:round;}
  </style>
 </defs>
 <g id="figure_1">
  <g id="patch_1">
   <path d="M 0 265.69625 
L 388.965625 265.69625 
L 388.965625 0 
L 0 0 
z
" style="fill:#ffffff;"/>
  </g>
  <g id="axes_1">
   <g id="patch_2">
    <path d="M 40.603125 228.14 
L 375.403125 228.14 
L 375.403125 10.7 
L 40.603125 10.7 
z
" style="fill:#ffffff;"/>
   </g>
   <g id="matplotlib.axis_1">
    <g id="xtick_1">
     <g id="line2d_1">
      <defs>
       <path d="M 0 0 
L 0 3.5 
" id="mbe64d2636b" style="stroke:#000000;stroke-width:0.8;"/>
      </defs>
      <g>
       <use style="stroke:#000000;stroke-width:0.8;" x="40.603125" xlink:href="#mbe64d2636b" y="228.14"/>
      </g>
     </g>
     <g id="text_1">
      <!-- 0 -->
      <defs>
       <path d="M 31.78125 66.40625 
Q 24.171875 66.40625 20.328125 58.90625 
Q 16.5 51.421875 16.5 36.375 
Q 16.5 21.390625 20.328125 13.890625 
Q 24.171875 6.390625 31.78125 6.390625 
Q 39.453125 6.390625 43.28125 13.890625 
Q 47.125 21.390625 47.125 36.375 
Q 47.125 51.421875 43.28125 58.90625 
Q 39.453125 66.40625 31.78125 66.40625 
z
M 31.78125 74.21875 
Q 44.046875 74.21875 50.515625 64.515625 
Q 56.984375 54.828125 56.984375 36.375 
Q 56.984375 17.96875 50.515625 8.265625 
Q 44.046875 -1.421875 31.78125 -1.421875 
Q 19.53125 -1.421875 13.0625 8.265625 
Q 6.59375 17.96875 6.59375 36.375 
Q 6.59375 54.828125 13.0625 64.515625 
Q 19.53125 74.21875 31.78125 74.21875 
z
" id="DejaVuSans-48"/>
      </defs>
      <g transform="translate(37.421875 242.738437)scale(0.1 -0.1)">
       <use xlink:href="#DejaVuSans-48"/>
      </g>
     </g>
    </g>
    <g id="xtick_2">
     <g id="line2d_2">
      <g>
       <use style="stroke:#000000;stroke-width:0.8;" x="107.563125" xlink:href="#mbe64d2636b" y="228.14"/>
      </g>
     </g>
     <g id="text_2">
      <!-- 2 -->
      <defs>
       <path d="M 19.1875 8.296875 
L 53.609375 8.296875 
L 53.609375 0 
L 7.328125 0 
L 7.328125 8.296875 
Q 12.9375 14.109375 22.625 23.890625 
Q 32.328125 33.6875 34.8125 36.53125 
Q 39.546875 41.84375 41.421875 45.53125 
Q 43.3125 49.21875 43.3125 52.78125 
Q 43.3125 58.59375 39.234375 62.25 
Q 35.15625 65.921875 28.609375 65.921875 
Q 23.96875 65.921875 18.8125 64.3125 
Q 13.671875 62.703125 7.8125 59.421875 
L 7.8125 69.390625 
Q 13.765625 71.78125 18.9375 73 
Q 24.125 74.21875 28.421875 74.21875 
Q 39.75 74.21875 46.484375 68.546875 
Q 53.21875 62.890625 53.21875 53.421875 
Q 53.21875 48.921875 51.53125 44.890625 
Q 49.859375 40.875 45.40625 35.40625 
Q 44.1875 33.984375 37.640625 27.21875 
Q 31.109375 20.453125 19.1875 8.296875 
z
" id="DejaVuSans-50"/>
      </defs>
      <g transform="translate(104.381875 242.738437)scale(0.1 -0.1)">
       <use xlink:href="#DejaVuSans-50"/>
      </g>
     </g>
    </g>
    <g id="xtick_3">
     <g id="line2d_3">
      <g>
       <use style="stroke:#000000;stroke-width:0.8;" x="174.523125" xlink:href="#mbe64d2636b" y="228.14"/>
      </g>
     </g>
     <g id="text_3">
      <!-- 4 -->
      <defs>
       <path d="M 37.796875 64.3125 
L 12.890625 25.390625 
L 37.796875 25.390625 
z
M 35.203125 72.90625 
L 47.609375 72.90625 
L 47.609375 25.390625 
L 58.015625 25.390625 
L 58.015625 17.1875 
L 47.609375 17.1875 
L 47.609375 0 
L 37.796875 0 
L 37.796875 17.1875 
L 4.890625 17.1875 
L 4.890625 26.703125 
z
" id="DejaVuSans-52"/>
      </defs>
      <g transform="translate(171.341875 242.738437)scale(0.1 -0.1)">
       <use xlink:href="#DejaVuSans-52"/>
      </g>
     </g>
    </g>
    <g id="xtick_4">
     <g id="line2d_4">
      <g>
       <use style="stroke:#000000;stroke-width:0.8;" x="241.483125" xlink:href="#mbe64d2636b" y="228.14"/>
      </g>
     </g>
     <g id="text_4">
      <!-- 6 -->
      <defs>
       <path d="M 33.015625 40.375 
Q 26.375 40.375 22.484375 35.828125 
Q 18.609375 31.296875 18.609375 23.390625 
Q 18.609375 15.53125 22.484375 10.953125 
Q 26.375 6.390625 33.015625 6.390625 
Q 39.65625 6.390625 43.53125 10.953125 
Q 47.40625 15.53125 47.40625 23.390625 
Q 47.40625 31.296875 43.53125 35.828125 
Q 39.65625 40.375 33.015625 40.375 
z
M 52.59375 71.296875 
L 52.59375 62.3125 
Q 48.875 64.0625 45.09375 64.984375 
Q 41.3125 65.921875 37.59375 65.921875 
Q 27.828125 65.921875 22.671875 59.328125 
Q 17.53125 52.734375 16.796875 39.40625 
Q 19.671875 43.65625 24.015625 45.921875 
Q 28.375 48.1875 33.59375 48.1875 
Q 44.578125 48.1875 50.953125 41.515625 
Q 57.328125 34.859375 57.328125 23.390625 
Q 57.328125 12.15625 50.6875 5.359375 
Q 44.046875 -1.421875 33.015625 -1.421875 
Q 20.359375 -1.421875 13.671875 8.265625 
Q 6.984375 17.96875 6.984375 36.375 
Q 6.984375 53.65625 15.1875 63.9375 
Q 23.390625 74.21875 37.203125 74.21875 
Q 40.921875 74.21875 44.703125 73.484375 
Q 48.484375 72.75 52.59375 71.296875 
z
" id="DejaVuSans-54"/>
      </defs>
      <g transform="translate(238.301875 242.738437)scale(0.1 -0.1)">
       <use xlink:href="#DejaVuSans-54"/>
      </g>
     </g>
    </g>
    <g id="xtick_5">
     <g id="line2d_5">
      <g>
       <use style="stroke:#000000;stroke-width:0.8;" x="308.443125" xlink:href="#mbe64d2636b" y="228.14"/>
      </g>
     </g>
     <g id="text_5">
      <!-- 8 -->
      <defs>
       <path d="M 31.78125 34.625 
Q 24.75 34.625 20.71875 30.859375 
Q 16.703125 27.09375 16.703125 20.515625 
Q 16.703125 13.921875 20.71875 10.15625 
Q 24.75 6.390625 31.78125 6.390625 
Q 38.8125 6.390625 42.859375 10.171875 
Q 46.921875 13.96875 46.921875 20.515625 
Q 46.921875 27.09375 42.890625 30.859375 
Q 38.875 34.625 31.78125 34.625 
z
M 21.921875 38.8125 
Q 15.578125 40.375 12.03125 44.71875 
Q 8.5 49.078125 8.5 55.328125 
Q 8.5 64.0625 14.71875 69.140625 
Q 20.953125 74.21875 31.78125 74.21875 
Q 42.671875 74.21875 48.875 69.140625 
Q 55.078125 64.0625 55.078125 55.328125 
Q 55.078125 49.078125 51.53125 44.71875 
Q 48 40.375 41.703125 38.8125 
Q 48.828125 37.15625 52.796875 32.3125 
Q 56.78125 27.484375 56.78125 20.515625 
Q 56.78125 9.90625 50.3125 4.234375 
Q 43.84375 -1.421875 31.78125 -1.421875 
Q 19.734375 -1.421875 13.25 4.234375 
Q 6.78125 9.90625 6.78125 20.515625 
Q 6.78125 27.484375 10.78125 32.3125 
Q 14.796875 37.15625 21.921875 38.8125 
z
M 18.3125 54.390625 
Q 18.3125 48.734375 21.84375 45.5625 
Q 25.390625 42.390625 31.78125 42.390625 
Q 38.140625 42.390625 41.71875 45.5625 
Q 45.3125 48.734375 45.3125 54.390625 
Q 45.3125 60.0625 41.71875 63.234375 
Q 38.140625 66.40625 31.78125 66.40625 
Q 25.390625 66.40625 21.84375 63.234375 
Q 18.3125 60.0625 18.3125 54.390625 
z
" id="DejaVuSans-56"/>
      </defs>
      <g transform="translate(305.261875 242.738437)scale(0.1 -0.1)">
       <use xlink:href="#DejaVuSans-56"/>
      </g>
     </g>
    </g>
    <g id="xtick_6">
     <g id="line2d_6">
      <g>
       <use style="stroke:#000000;stroke-width:0.8;" x="375.403125" xlink:href="#mbe64d2636b" y="228.14"/>
      </g>
     </g>
     <g id="text_6">
      <!-- 10 -->
      <defs>
       <path d="M 12.40625 8.296875 
L 28.515625 8.296875 
L 28.515625 63.921875 
L 10.984375 60.40625 
L 10.984375 69.390625 
L 28.421875 72.90625 
L 38.28125 72.90625 
L 38.28125 8.296875 
L 54.390625 8.296875 
L 54.390625 0 
L 12.40625 0 
z
" id="DejaVuSans-49"/>
      </defs>
      <g transform="translate(369.040625 242.738437)scale(0.1 -0.1)">
       <use xlink:href="#DejaVuSans-49"/>
       <use x="63.623047" xlink:href="#DejaVuSans-48"/>
      </g>
     </g>
    </g>
    <g id="text_7">
     <!-- time [s] -->
     <defs>
      <path d="M 18.3125 70.21875 
L 18.3125 54.6875 
L 36.8125 54.6875 
L 36.8125 47.703125 
L 18.3125 47.703125 
L 18.3125 18.015625 
Q 18.3125 11.328125 20.140625 9.421875 
Q 21.96875 7.515625 27.59375 7.515625 
L 36.8125 7.515625 
L 36.8125 0 
L 27.59375 0 
Q 17.1875 0 13.234375 3.875 
Q 9.28125 7.765625 9.28125 18.015625 
L 9.28125 47.703125 
L 2.6875 47.703125 
L 2.6875 54.6875 
L 9.28125 54.6875 
L 9.28125 70.21875 
z
" id="DejaVuSans-116"/>
      <path d="M 9.421875 54.6875 
L 18.40625 54.6875 
L 18.40625 0 
L 9.421875 0 
z
M 9.421875 75.984375 
L 18.40625 75.984375 
L 18.40625 64.59375 
L 9.421875 64.59375 
z
" id="DejaVuSans-105"/>
      <path d="M 52 44.1875 
Q 55.375 50.25 60.0625 53.125 
Q 64.75 56 71.09375 56 
Q 79.640625 56 84.28125 50.015625 
Q 88.921875 44.046875 88.921875 33.015625 
L 88.921875 0 
L 79.890625 0 
L 79.890625 32.71875 
Q 79.890625 40.578125 77.09375 44.375 
Q 74.3125 48.1875 68.609375 48.1875 
Q 61.625 48.1875 57.5625 43.546875 
Q 53.515625 38.921875 53.515625 30.90625 
L 53.515625 0 
L 44.484375 0 
L 44.484375 32.71875 
Q 44.484375 40.625 41.703125 44.40625 
Q 38.921875 48.1875 33.109375 48.1875 
Q 26.21875 48.1875 22.15625 43.53125 
Q 18.109375 38.875 18.109375 30.90625 
L 18.109375 0 
L 9.078125 0 
L 9.078125 54.6875 
L 18.109375 54.6875 
L 18.109375 46.1875 
Q 21.1875 51.21875 25.484375 53.609375 
Q 29.78125 56 35.6875 56 
Q 41.65625 56 45.828125 52.96875 
Q 50 49.953125 52 44.1875 
z
" id="DejaVuSans-109"/>
      <path d="M 56.203125 29.59375 
L 56.203125 25.203125 
L 14.890625 25.203125 
Q 15.484375 15.921875 20.484375 11.0625 
Q 25.484375 6.203125 34.421875 6.203125 
Q 39.59375 6.203125 44.453125 7.46875 
Q 49.3125 8.734375 54.109375 11.28125 
L 54.109375 2.78125 
Q 49.265625 0.734375 44.1875 -0.34375 
Q 39.109375 -1.421875 33.890625 -1.421875 
Q 20.796875 -1.421875 13.15625 6.1875 
Q 5.515625 13.8125 5.515625 26.8125 
Q 5.515625 40.234375 12.765625 48.109375 
Q 20.015625 56 32.328125 56 
Q 43.359375 56 49.78125 48.890625 
Q 56.203125 41.796875 56.203125 29.59375 
z
M 47.21875 32.234375 
Q 47.125 39.59375 43.09375 43.984375 
Q 39.0625 48.390625 32.421875 48.390625 
Q 24.90625 48.390625 20.390625 44.140625 
Q 15.875 39.890625 15.1875 32.171875 
z
" id="DejaVuSans-101"/>
      <path id="DejaVuSans-32"/>
      <path d="M 8.59375 75.984375 
L 29.296875 75.984375 
L 29.296875 69 
L 17.578125 69 
L 17.578125 -6.203125 
L 29.296875 -6.203125 
L 29.296875 -13.1875 
L 8.59375 -13.1875 
z
" id="DejaVuSans-91"/>
      <path d="M 44.28125 53.078125 
L 44.28125 44.578125 
Q 40.484375 46.53125 36.375 47.5 
Q 32.28125 48.484375 27.875 48.484375 
Q 21.1875 48.484375 17.84375 46.4375 
Q 14.5 44.390625 14.5 40.28125 
Q 14.5 37.15625 16.890625 35.375 
Q 19.28125 33.59375 26.515625 31.984375 
L 29.59375 31.296875 
Q 39.15625 29.25 43.1875 25.515625 
Q 47.21875 21.78125 47.21875 15.09375 
Q 47.21875 7.46875 41.1875 3.015625 
Q 35.15625 -1.421875 24.609375 -1.421875 
Q 20.21875 -1.421875 15.453125 -0.5625 
Q 10.6875 0.296875 5.421875 2 
L 5.421875 11.28125 
Q 10.40625 8.6875 15.234375 7.390625 
Q 20.0625 6.109375 24.8125 6.109375 
Q 31.15625 6.109375 34.5625 8.28125 
Q 37.984375 10.453125 37.984375 14.40625 
Q 37.984375 18.0625 35.515625 20.015625 
Q 33.0625 21.96875 24.703125 23.78125 
L 21.578125 24.515625 
Q 13.234375 26.265625 9.515625 29.90625 
Q 5.8125 33.546875 5.8125 39.890625 
Q 5.8125 47.609375 11.28125 51.796875 
Q 16.75 56 26.8125 56 
Q 31.78125 56 36.171875 55.265625 
Q 40.578125 54.546875 44.28125 53.078125 
z
" id="DejaVuSans-115"/>
      <path d="M 30.421875 75.984375 
L 30.421875 -13.1875 
L 9.71875 -13.1875 
L 9.71875 -6.203125 
L 21.390625 -6.203125 
L 21.390625 69 
L 9.71875 69 
L 9.71875 75.984375 
z
" id="DejaVuSans-93"/>
     </defs>
     <g transform="translate(188.611719 256.416562)scale(0.1 -0.1)">
      <use xlink:href="#DejaVuSans-116"/>
      <use x="39.208984" xlink:href="#DejaVuSans-105"/>
      <use x="66.992188" xlink:href="#DejaVuSans-109"/>
      <use x="164.404297" xlink:href="#DejaVuSans-101"/>
      <use x="225.927734" xlink:href="#DejaVuSans-32"/>
      <use x="257.714844" xlink:href="#DejaVuSans-91"/>
      <use x="296.728516" xlink:href="#DejaVuSans-115"/>
      <use x="348.828125" xlink:href="#DejaVuSans-93"/>
     </g>
    </g>
   </g>
   <g id="matplotlib.axis_2">
    <g id="ytick_1">
     <g id="line2d_7">
      <defs>
       <path d="M 0 0 
L -3.5 0 
" id="mf0fcac2cf6" style="stroke:#000000;stroke-width:0.8;"/>
      </defs>
      <g>
       <use style="stroke:#000000;stroke-width:0.8;" x="40.603125" xlink:href="#mf0fcac2cf6" y="228.14"/>
      </g>
     </g>
     <g id="text_8">
      <!-- 0 -->
      <g transform="translate(27.240625 231.939219)scale(0.1 -0.1)">
       <use xlink:href="#DejaVuSans-48"/>
      </g>
     </g>
    </g>
    <g id="ytick_2">
     <g id="line2d_8">
      <g>
       <use style="stroke:#000000;stroke-width:0.8;" x="40.603125" xlink:href="#mf0fcac2cf6" y="197.94"/>
      </g>
     </g>
     <g id="text_9">
      <!-- 10 -->
      <g transform="translate(20.878125 201.739219)scale(0.1 -0.1)">
       <use xlink:href="#DejaVuSans-49"/>
       <use x="63.623047" xlink:href="#DejaVuSans-48"/>
      </g>
     </g>
    </g>
    <g id="ytick_3">
     <g id="line2d_9">
      <g>
       <use style="stroke:#000000;stroke-width:0.8;" x="40.603125" xlink:href="#mf0fcac2cf6" y="167.74"/>
      </g>
     </g>
     <g id="text_10">
      <!-- 20 -->
      <g transform="translate(20.878125 171.539219)scale(0.1 -0.1)">
       <use xlink:href="#DejaVuSans-50"/>
       <use x="63.623047" xlink:href="#DejaVuSans-48"/>
      </g>
     </g>
    </g>
    <g id="ytick_4">
     <g id="line2d_10">
      <g>
       <use style="stroke:#000000;stroke-width:0.8;" x="40.603125" xlink:href="#mf0fcac2cf6" y="137.54"/>
      </g>
     </g>
     <g id="text_11">
      <!-- 30 -->
      <defs>
       <path d="M 40.578125 39.3125 
Q 47.65625 37.796875 51.625 33 
Q 55.609375 28.21875 55.609375 21.1875 
Q 55.609375 10.40625 48.1875 4.484375 
Q 40.765625 -1.421875 27.09375 -1.421875 
Q 22.515625 -1.421875 17.65625 -0.515625 
Q 12.796875 0.390625 7.625 2.203125 
L 7.625 11.71875 
Q 11.71875 9.328125 16.59375 8.109375 
Q 21.484375 6.890625 26.8125 6.890625 
Q 36.078125 6.890625 40.9375 10.546875 
Q 45.796875 14.203125 45.796875 21.1875 
Q 45.796875 27.640625 41.28125 31.265625 
Q 36.765625 34.90625 28.71875 34.90625 
L 20.21875 34.90625 
L 20.21875 43.015625 
L 29.109375 43.015625 
Q 36.375 43.015625 40.234375 45.921875 
Q 44.09375 48.828125 44.09375 54.296875 
Q 44.09375 59.90625 40.109375 62.90625 
Q 36.140625 65.921875 28.71875 65.921875 
Q 24.65625 65.921875 20.015625 65.03125 
Q 15.375 64.15625 9.8125 62.3125 
L 9.8125 71.09375 
Q 15.4375 72.65625 20.34375 73.4375 
Q 25.25 74.21875 29.59375 74.21875 
Q 40.828125 74.21875 47.359375 69.109375 
Q 53.90625 64.015625 53.90625 55.328125 
Q 53.90625 49.265625 50.4375 45.09375 
Q 46.96875 40.921875 40.578125 39.3125 
z
" id="DejaVuSans-51"/>
      </defs>
      <g transform="translate(20.878125 141.339219)scale(0.1 -0.1)">
       <use xlink:href="#DejaVuSans-51"/>
       <use x="63.623047" xlink:href="#DejaVuSans-48"/>
      </g>
     </g>
    </g>
    <g id="ytick_5">
     <g id="line2d_11">
      <g>
       <use style="stroke:#000000;stroke-width:0.8;" x="40.603125" xlink:href="#mf0fcac2cf6" y="107.34"/>
      </g>
     </g>
     <g id="text_12">
      <!-- 40 -->
      <g transform="translate(20.878125 111.139219)scale(0.1 -0.1)">
       <use xlink:href="#DejaVuSans-52"/>
       <use x="63.623047" xlink:href="#DejaVuSans-48"/>
      </g>
     </g>
    </g>
    <g id="ytick_6">
     <g id="line2d_12">
      <g>
       <use style="stroke:#000000;stroke-width:0.8;" x="40.603125" xlink:href="#mf0fcac2cf6" y="77.14"/>
      </g>
     </g>
     <g id="text_13">
      <!-- 50 -->
      <defs>
       <path d="M 10.796875 72.90625 
L 49.515625 72.90625 
L 49.515625 64.59375 
L 19.828125 64.59375 
L 19.828125 46.734375 
Q 21.96875 47.46875 24.109375 47.828125 
Q 26.265625 48.1875 28.421875 48.1875 
Q 40.625 48.1875 47.75 41.5 
Q 54.890625 34.8125 54.890625 23.390625 
Q 54.890625 11.625 47.5625 5.09375 
Q 40.234375 -1.421875 26.90625 -1.421875 
Q 22.3125 -1.421875 17.546875 -0.640625 
Q 12.796875 0.140625 7.71875 1.703125 
L 7.71875 11.625 
Q 12.109375 9.234375 16.796875 8.0625 
Q 21.484375 6.890625 26.703125 6.890625 
Q 35.15625 6.890625 40.078125 11.328125 
Q 45.015625 15.765625 45.015625 23.390625 
Q 45.015625 31 40.078125 35.4375 
Q 35.15625 39.890625 26.703125 39.890625 
Q 22.75 39.890625 18.8125 39.015625 
Q 14.890625 38.140625 10.796875 36.28125 
z
" id="DejaVuSans-53"/>
      </defs>
      <g transform="translate(20.878125 80.939219)scale(0.1 -0.1)">
       <use xlink:href="#DejaVuSans-53"/>
       <use x="63.623047" xlink:href="#DejaVuSans-48"/>
      </g>
     </g>
    </g>
    <g id="ytick_7">
     <g id="line2d_13">
      <g>
       <use style="stroke:#000000;stroke-width:0.8;" x="40.603125" xlink:href="#mf0fcac2cf6" y="46.94"/>
      </g>
     </g>
     <g id="text_14">
      <!-- 60 -->
      <g transform="translate(20.878125 50.739219)scale(0.1 -0.1)">
       <use xlink:href="#DejaVuSans-54"/>
       <use x="63.623047" xlink:href="#DejaVuSans-48"/>
      </g>
     </g>
    </g>
    <g id="ytick_8">
     <g id="line2d_14">
      <g>
       <use style="stroke:#000000;stroke-width:0.8;" x="40.603125" xlink:href="#mf0fcac2cf6" y="16.74"/>
      </g>
     </g>
     <g id="text_15">
      <!-- 70 -->
      <defs>
       <path d="M 8.203125 72.90625 
L 55.078125 72.90625 
L 55.078125 68.703125 
L 28.609375 0 
L 18.3125 0 
L 43.21875 64.59375 
L 8.203125 64.59375 
z
" id="DejaVuSans-55"/>
      </defs>
      <g transform="translate(20.878125 20.539219)scale(0.1 -0.1)">
       <use xlink:href="#DejaVuSans-55"/>
       <use x="63.623047" xlink:href="#DejaVuSans-48"/>
      </g>
     </g>
    </g>
    <g id="text_16">
     <!-- N(t) -->
     <defs>
      <path d="M 9.8125 72.90625 
L 23.09375 72.90625 
L 55.421875 11.921875 
L 55.421875 72.90625 
L 64.984375 72.90625 
L 64.984375 0 
L 51.703125 0 
L 19.390625 60.984375 
L 19.390625 0 
L 9.8125 0 
z
" id="DejaVuSans-78"/>
      <path d="M 31 75.875 
Q 24.46875 64.65625 21.28125 53.65625 
Q 18.109375 42.671875 18.109375 31.390625 
Q 18.109375 20.125 21.3125 9.0625 
Q 24.515625 -2 31 -13.1875 
L 23.1875 -13.1875 
Q 15.875 -1.703125 12.234375 9.375 
Q 8.59375 20.453125 8.59375 31.390625 
Q 8.59375 42.28125 12.203125 53.3125 
Q 15.828125 64.359375 23.1875 75.875 
z
" id="DejaVuSans-40"/>
      <path d="M 8.015625 75.875 
L 15.828125 75.875 
Q 23.140625 64.359375 26.78125 53.3125 
Q 30.421875 42.28125 30.421875 31.390625 
Q 30.421875 20.453125 26.78125 9.375 
Q 23.140625 -1.703125 15.828125 -13.1875 
L 8.015625 -13.1875 
Q 14.5 -2 17.703125 9.0625 
Q 20.90625 20.125 20.90625 31.390625 
Q 20.90625 42.671875 17.703125 53.65625 
Q 14.5 64.65625 8.015625 75.875 
z
" id="DejaVuSans-41"/>
     </defs>
     <g transform="translate(14.798438 129.022344)rotate(-90)scale(0.1 -0.1)">
      <use xlink:href="#DejaVuSans-78"/>
      <use x="74.804688" xlink:href="#DejaVuSans-40"/>
      <use x="113.818359" xlink:href="#DejaVuSans-116"/>
      <use x="153.027344" xlink:href="#DejaVuSans-41"/>
     </g>
    </g>
   </g>
   <g id="line2d_15">
    <path clip-path="url(#p54d437de6e)" d="M 40.603125 213.04 
L 40.770525 228.14 
L 41.105325 222.1 
L 41.272725 225.12 
L 41.607525 216.06 
L 41.942325 225.12 
L 42.277125 216.06 
L 42.444525 228.14 
L 42.611925 207 
L 42.946725 225.12 
L 43.114125 203.98 
L 43.281525 222.1 
L 43.448925 219.08 
L 43.616325 228.14 
L 43.783725 228.14 
L 43.951125 225.12 
L 44.118525 225.12 
L 44.453325 210.02 
L 44.620725 225.12 
L 44.788125 222.1 
L 44.955525 222.1 
L 45.122925 213.04 
L 45.290325 225.12 
L 45.625125 225.12 
L 45.792525 222.1 
L 45.959925 228.14 
L 46.127325 219.08 
L 46.294725 225.12 
L 46.462125 225.12 
L 46.629525 222.1 
L 47.131725 222.1 
L 47.299125 210.02 
L 47.466525 222.1 
L 47.633925 225.12 
L 47.801325 225.12 
L 47.968725 219.08 
L 48.136125 225.12 
L 48.470925 216.06 
L 48.638325 228.14 
L 48.805725 213.04 
L 48.973125 219.08 
L 49.140525 216.06 
L 49.307925 225.12 
L 49.475325 222.1 
L 49.642725 228.14 
L 49.810125 225.12 
L 49.977525 216.06 
L 50.144925 228.14 
L 50.312325 225.12 
L 50.647125 225.12 
L 50.814525 213.04 
L 50.981925 213.04 
L 51.149325 219.08 
L 51.316725 216.06 
L 51.484125 222.1 
L 51.651525 216.06 
L 51.818925 222.1 
L 52.321125 213.04 
L 52.488525 222.1 
L 52.655925 210.02 
L 52.823325 222.1 
L 52.990725 207 
L 53.158125 210.02 
L 53.325525 222.1 
L 53.492925 207 
L 53.660325 203.98 
L 53.827725 194.92 
L 53.995125 179.82 
L 54.162525 191.9 
L 54.329925 182.84 
L 54.497325 158.68 
L 54.664725 167.74 
L 54.832125 149.62 
L 54.999525 143.58 
L 55.166925 158.68 
L 55.669125 80.16 
L 55.836525 92.24 
L 56.003925 77.14 
L 56.171325 119.42 
L 56.506125 119.42 
L 56.673525 74.12 
L 57.008325 137.54 
L 57.175725 98.28 
L 57.510525 92.24 
L 57.677925 119.42 
L 57.845325 113.38 
L 58.012725 71.1 
L 58.180125 86.2 
L 58.347525 89.22 
L 58.514925 83.18 
L 58.682325 46.94 
L 59.017125 89.22 
L 59.351925 134.52 
L 59.519325 113.38 
L 59.686725 77.14 
L 60.021525 95.26 
L 60.188925 77.14 
L 60.356325 74.12 
L 60.523725 86.2 
L 60.691125 62.04 
L 60.858525 65.06 
L 61.360725 104.32 
L 61.528125 52.98 
L 61.695525 122.44 
L 61.862925 131.5 
L 62.030325 101.3 
L 62.197725 116.4 
L 62.365125 86.2 
L 62.532525 86.2 
L 62.699925 101.3 
L 62.867325 92.24 
L 63.369525 119.42 
L 63.536925 137.54 
L 63.704325 140.56 
L 63.871725 131.5 
L 64.039125 128.48 
L 64.206525 134.52 
L 64.373925 119.42 
L 64.541325 43.92 
L 64.708725 104.32 
L 65.210925 140.56 
L 65.378325 131.5 
L 65.545725 83.18 
L 65.713125 83.18 
L 65.880525 110.36 
L 66.215325 59.02 
L 66.717525 134.52 
L 66.884925 125.46 
L 67.052325 107.34 
L 67.387125 137.54 
L 67.554525 119.42 
L 67.721925 128.48 
L 67.889325 122.44 
L 68.224125 167.74 
L 68.391525 167.74 
L 68.558925 152.64 
L 68.726325 161.7 
L 69.061125 119.42 
L 69.228525 140.56 
L 69.395925 137.54 
L 69.563325 140.56 
L 69.730725 119.42 
L 69.898125 128.48 
L 70.065525 152.64 
L 70.232925 77.14 
L 70.567725 107.34 
L 70.735125 92.24 
L 70.902525 104.32 
L 71.069925 95.26 
L 71.237325 122.44 
L 71.404725 71.1 
L 71.572125 104.32 
L 71.739525 74.12 
L 72.074325 134.52 
L 72.241725 146.6 
L 72.409125 89.22 
L 72.911325 143.58 
L 73.078725 143.58 
L 73.246125 185.86 
L 73.413525 161.7 
L 73.580925 161.7 
L 73.748325 158.68 
L 73.915725 128.48 
L 74.083125 131.5 
L 74.250525 167.74 
L 74.752725 113.38 
L 74.920125 122.44 
L 75.087525 59.02 
L 75.254925 95.26 
L 75.422325 89.22 
L 75.589725 128.48 
L 75.757125 92.24 
L 75.924525 83.18 
L 76.091925 89.22 
L 76.259325 80.16 
L 76.426725 92.24 
L 76.594125 83.18 
L 77.096325 131.5 
L 77.263725 137.54 
L 77.431125 77.14 
L 77.598525 122.44 
L 77.765925 68.08 
L 77.933325 77.14 
L 78.100725 125.46 
L 78.268125 89.22 
L 78.770325 122.44 
L 78.937725 104.32 
L 79.272525 89.22 
L 79.439925 122.44 
L 79.607325 113.38 
L 79.774725 49.96 
L 79.942125 77.14 
L 80.109525 77.14 
L 80.611725 116.4 
L 80.779125 92.24 
L 80.946525 116.4 
L 81.113925 92.24 
L 81.616125 113.38 
L 81.783525 128.48 
L 81.950925 104.32 
L 82.118325 104.32 
L 82.285725 98.28 
L 82.453125 74.12 
L 82.787925 149.62 
L 83.122725 101.3 
L 83.290125 128.48 
L 83.959725 77.14 
L 84.294525 113.38 
L 84.461925 101.3 
L 84.629325 149.62 
L 84.796725 119.42 
L 84.964125 119.42 
L 85.131525 86.2 
L 85.298925 83.18 
L 85.466325 122.44 
L 85.633725 125.46 
L 85.801125 131.5 
L 85.968525 128.48 
L 86.135925 95.26 
L 86.303325 158.68 
L 86.470725 143.58 
L 86.638125 200.96 
L 86.972925 152.64 
L 87.140325 146.6 
L 87.475125 101.3 
L 87.642525 77.14 
L 87.809925 83.18 
L 88.144725 113.38 
L 88.312125 110.36 
L 88.646925 74.12 
L 88.814325 113.38 
L 88.981725 101.3 
L 89.149125 101.3 
L 89.316525 83.18 
L 89.483925 83.18 
L 89.651325 86.2 
L 89.818725 71.1 
L 90.153525 116.4 
L 90.488325 86.2 
L 90.655725 62.04 
L 90.823125 92.24 
L 90.990525 92.24 
L 91.157925 62.04 
L 91.325325 98.28 
L 91.492725 107.34 
L 91.660125 179.82 
L 91.827525 128.48 
L 91.994925 116.4 
L 92.162325 116.4 
L 92.329725 128.48 
L 92.497125 110.36 
L 92.664525 140.56 
L 93.166725 92.24 
L 93.334125 98.28 
L 93.501525 83.18 
L 93.668925 137.54 
L 93.836325 134.52 
L 94.003725 68.08 
L 94.171125 49.96 
L 94.505925 131.5 
L 94.673325 116.4 
L 94.840725 125.46 
L 95.008125 140.56 
L 95.175525 167.74 
L 95.342925 143.58 
L 95.510325 194.92 
L 95.677725 149.62 
L 95.845125 179.82 
L 96.012525 143.58 
L 96.179925 134.52 
L 96.347325 143.58 
L 96.514725 131.5 
L 96.849525 182.84 
L 97.016925 179.82 
L 97.184325 179.82 
L 97.351725 185.86 
L 97.519125 167.74 
L 97.686525 119.42 
L 97.853925 161.7 
L 98.021325 107.34 
L 98.188725 110.36 
L 98.356125 95.26 
L 98.523525 65.06 
L 98.858325 152.64 
L 99.360525 83.18 
L 99.527925 125.46 
L 99.695325 122.44 
L 100.030125 164.72 
L 100.197525 122.44 
L 100.364925 128.48 
L 100.532325 152.64 
L 100.699725 143.58 
L 100.867125 173.78 
L 101.704125 113.38 
L 101.871525 128.48 
L 102.038925 101.3 
L 102.373725 128.48 
L 102.541125 125.46 
L 102.708525 98.28 
L 103.043325 134.52 
L 103.378125 80.16 
L 104.215125 185.86 
L 104.549925 152.64 
L 104.717325 116.4 
L 104.884725 110.36 
L 105.052125 125.46 
L 105.219525 86.2 
L 105.721725 173.78 
L 105.889125 134.52 
L 106.056525 137.54 
L 106.391325 77.14 
L 106.558725 92.24 
L 106.726125 74.12 
L 106.893525 101.3 
L 107.060925 71.1 
L 107.395725 107.34 
L 107.563125 86.2 
L 107.730525 128.48 
L 107.897925 125.46 
L 108.065325 146.6 
L 108.232725 149.62 
L 108.567525 65.06 
L 108.734925 68.08 
L 108.902325 68.08 
L 109.069725 101.3 
L 109.237125 95.26 
L 109.404525 80.16 
L 109.906725 149.62 
L 110.074125 155.66 
L 110.241525 146.6 
L 110.576325 101.3 
L 111.078525 140.56 
L 111.413325 122.44 
L 111.580725 131.5 
L 111.748125 161.7 
L 111.915525 122.44 
L 112.250325 179.82 
L 112.417725 173.78 
L 112.752525 149.62 
L 112.919925 143.58 
L 113.087325 152.64 
L 113.422125 128.48 
L 113.589525 143.58 
L 113.756925 113.38 
L 114.091725 137.54 
L 114.259125 170.76 
L 114.761325 107.34 
L 114.928725 128.48 
L 115.096125 101.3 
L 115.263525 122.44 
L 115.430925 104.32 
L 115.598325 101.3 
L 115.765725 92.24 
L 116.100525 140.56 
L 116.267925 125.46 
L 116.435325 152.64 
L 116.602725 125.46 
L 116.770125 164.72 
L 116.937525 125.46 
L 117.104925 164.72 
L 117.272325 170.76 
L 117.439725 164.72 
L 117.607125 179.82 
L 117.774525 125.46 
L 117.941925 131.5 
L 118.109325 113.38 
L 118.276725 116.4 
L 118.444125 146.6 
L 118.611525 137.54 
L 118.778925 164.72 
L 118.946325 210.02 
L 119.615925 74.12 
L 119.783325 92.24 
L 119.950725 131.5 
L 120.118125 125.46 
L 120.452925 68.08 
L 120.620325 68.08 
L 120.787725 131.5 
L 120.955125 116.4 
L 121.122525 146.6 
L 121.289925 146.6 
L 121.457325 149.62 
L 121.624725 146.6 
L 121.792125 116.4 
L 121.959525 107.34 
L 122.126925 131.5 
L 122.294325 128.48 
L 122.461725 92.24 
L 122.629125 134.52 
L 122.796525 104.32 
L 122.963925 119.42 
L 123.131325 71.1 
L 123.298725 89.22 
L 123.466125 80.16 
L 123.633525 95.26 
L 123.800925 125.46 
L 124.135725 77.14 
L 124.303125 101.3 
L 124.637925 52.98 
L 124.805325 107.34 
L 124.972725 92.24 
L 125.307525 146.6 
L 125.474925 128.48 
L 125.642325 143.58 
L 125.977125 122.44 
L 126.144525 95.26 
L 126.311925 98.28 
L 126.479325 116.4 
L 126.646725 146.6 
L 126.814125 101.3 
L 126.981525 152.64 
L 127.148925 125.46 
L 127.316325 128.48 
L 127.483725 137.54 
L 127.651125 140.56 
L 127.818525 104.32 
L 127.985925 92.24 
L 128.320725 164.72 
L 128.488125 122.44 
L 128.655525 161.7 
L 128.822925 155.66 
L 129.157725 128.48 
L 129.492525 98.28 
L 129.827325 185.86 
L 130.162125 173.78 
L 130.329525 128.48 
L 130.496925 125.46 
L 130.664325 113.38 
L 130.999125 161.7 
L 131.166525 152.64 
L 131.333925 164.72 
L 131.501325 146.6 
L 131.668725 158.68 
L 131.836125 200.96 
L 132.003525 188.88 
L 132.338325 131.5 
L 132.505725 176.8 
L 132.673125 179.82 
L 133.007925 197.94 
L 133.175325 194.92 
L 133.342725 185.86 
L 133.510125 194.92 
L 134.012325 134.52 
L 134.179725 131.5 
L 134.347125 131.5 
L 134.849325 167.74 
L 135.016725 167.74 
L 135.184125 143.58 
L 135.351525 149.62 
L 135.518925 134.52 
L 135.686325 173.78 
L 135.853725 128.48 
L 136.188525 149.62 
L 136.523325 134.52 
L 136.690725 152.64 
L 136.858125 152.64 
L 137.025525 104.32 
L 137.192925 146.6 
L 137.527725 113.38 
L 137.695125 122.44 
L 137.862525 158.68 
L 138.029925 158.68 
L 138.364725 110.36 
L 138.532125 134.52 
L 138.866925 146.6 
L 139.201725 167.74 
L 139.369125 164.72 
L 139.536525 182.84 
L 139.703925 188.88 
L 140.038725 146.6 
L 140.206125 200.96 
L 140.373525 197.94 
L 140.540925 200.96 
L 140.708325 194.92 
L 140.875725 207 
L 141.043125 197.94 
L 141.210525 197.94 
L 141.377925 182.84 
L 141.545325 207 
L 141.712725 213.04 
L 141.880125 207 
L 142.047525 216.06 
L 142.214925 216.06 
L 142.382325 219.08 
L 142.549725 210.02 
L 142.717125 210.02 
L 142.884525 203.98 
L 143.051925 213.04 
L 143.554125 213.04 
L 143.721525 216.06 
L 143.888925 222.1 
L 144.056325 213.04 
L 144.391125 225.12 
L 144.558525 225.12 
L 144.725925 219.08 
L 145.060725 228.14 
L 145.228125 210.02 
L 145.395525 210.02 
L 145.562925 213.04 
L 145.730325 207 
L 145.897725 216.06 
L 146.232525 210.02 
L 146.399925 213.04 
L 146.567325 222.1 
L 146.734725 216.06 
L 146.902125 222.1 
L 147.069525 207 
L 147.404325 228.14 
L 147.571725 219.08 
L 147.739125 225.12 
L 147.906525 213.04 
L 148.241325 219.08 
L 148.408725 228.14 
L 148.576125 225.12 
L 148.743525 228.14 
L 148.910925 219.08 
L 149.078325 228.14 
L 149.413125 222.1 
L 149.580525 225.12 
L 149.915325 219.08 
L 150.250125 225.12 
L 150.417525 225.12 
L 150.584925 222.1 
L 150.919725 228.14 
L 151.254525 222.1 
L 151.421925 225.12 
L 151.756725 225.12 
L 151.924125 216.06 
L 152.091525 228.14 
L 152.258925 216.06 
L 152.426325 219.08 
L 152.593725 225.12 
L 152.761125 216.06 
L 152.928525 219.08 
L 153.095925 228.14 
L 153.430725 222.1 
L 153.598125 228.14 
L 153.765525 222.1 
L 153.932925 222.1 
L 154.100325 216.06 
L 154.267725 222.1 
L 154.435125 207 
L 154.602525 222.1 
L 154.769925 207 
L 155.272125 225.12 
L 155.439525 222.1 
L 155.941725 149.62 
L 156.109125 170.76 
L 156.443925 155.66 
L 156.611325 182.84 
L 156.946125 167.74 
L 157.113525 140.56 
L 157.615725 188.88 
L 157.950525 116.4 
L 158.117925 110.36 
L 158.285325 89.22 
L 158.452725 107.34 
L 158.620125 137.54 
L 158.787525 131.5 
L 159.289725 80.16 
L 159.457125 95.26 
L 159.624525 77.14 
L 159.791925 80.16 
L 159.959325 68.08 
L 160.126725 146.6 
L 160.461525 101.3 
L 160.628925 125.46 
L 161.131125 65.06 
L 161.465925 89.22 
L 161.633325 83.18 
L 161.800725 122.44 
L 161.968125 128.48 
L 162.135525 125.46 
L 162.470325 137.54 
L 162.637725 80.16 
L 162.972525 137.54 
L 163.139925 137.54 
L 163.307325 125.46 
L 163.474725 122.44 
L 163.642125 107.34 
L 163.809525 116.4 
L 163.976925 161.7 
L 164.144325 101.3 
L 164.311725 113.38 
L 164.479125 92.24 
L 164.646525 131.5 
L 165.148725 116.4 
L 165.316125 137.54 
L 165.483525 113.38 
L 165.650925 125.46 
L 165.985725 98.28 
L 166.153125 104.32 
L 166.320525 86.2 
L 166.487925 104.32 
L 166.655325 104.32 
L 166.822725 101.3 
L 166.990125 134.52 
L 167.157525 77.14 
L 167.492325 110.36 
L 167.659725 101.3 
L 167.827125 104.32 
L 167.994525 89.22 
L 168.161925 113.38 
L 168.329325 98.28 
L 168.496725 101.3 
L 168.831525 140.56 
L 168.998925 122.44 
L 169.166325 122.44 
L 169.333725 140.56 
L 169.668525 89.22 
L 169.835925 104.32 
L 170.003325 131.5 
L 170.170725 131.5 
L 170.338125 119.42 
L 170.505525 140.56 
L 170.840325 71.1 
L 171.007725 80.16 
L 171.175125 110.36 
L 171.342525 98.28 
L 171.509925 62.04 
L 171.677325 52.98 
L 171.844725 86.2 
L 172.012125 52.98 
L 172.179525 107.34 
L 172.346925 86.2 
L 172.514325 155.66 
L 172.849125 128.48 
L 173.183925 119.42 
L 173.351325 140.56 
L 173.518725 98.28 
L 173.686125 128.48 
L 174.020925 122.44 
L 174.188325 95.26 
L 174.355725 119.42 
L 174.523125 98.28 
L 174.690525 125.46 
L 174.857925 125.46 
L 175.025325 137.54 
L 175.360125 71.1 
L 175.527525 98.28 
L 175.862325 110.36 
L 176.029725 143.58 
L 176.197125 149.62 
L 176.364525 149.62 
L 176.531925 173.78 
L 176.699325 116.4 
L 176.866725 116.4 
L 177.034125 101.3 
L 177.201525 128.48 
L 177.368925 95.26 
L 177.536325 149.62 
L 177.703725 146.6 
L 177.871125 134.52 
L 178.038525 113.38 
L 178.205925 131.5 
L 178.373325 86.2 
L 178.540725 98.28 
L 178.708125 128.48 
L 178.875525 119.42 
L 179.042925 155.66 
L 179.377725 149.62 
L 179.545125 161.7 
L 179.712525 116.4 
L 179.879925 128.48 
L 180.047325 98.28 
L 180.382125 143.58 
L 180.549525 110.36 
L 180.884325 152.64 
L 181.051725 128.48 
L 181.219125 137.54 
L 181.386525 98.28 
L 181.553925 140.56 
L 181.721325 140.56 
L 181.888725 128.48 
L 182.056125 125.46 
L 182.390925 125.46 
L 182.558325 131.5 
L 182.893125 167.74 
L 183.060525 146.6 
L 183.227925 110.36 
L 183.562725 170.76 
L 183.730125 143.58 
L 183.897525 152.64 
L 184.064925 167.74 
L 184.399725 101.3 
L 184.567125 98.28 
L 184.734525 86.2 
L 184.901925 107.34 
L 185.069325 95.26 
L 185.404125 173.78 
L 185.571525 92.24 
L 185.906325 125.46 
L 186.073725 40.9 
L 186.241125 80.16 
L 186.408525 71.1 
L 186.575925 101.3 
L 186.743325 104.32 
L 186.910725 92.24 
L 187.078125 95.26 
L 187.245525 89.22 
L 187.412925 101.3 
L 187.747725 134.52 
L 188.082525 92.24 
L 188.249925 122.44 
L 188.584725 104.32 
L 188.752125 110.36 
L 188.919525 68.08 
L 189.254325 119.42 
L 189.421725 92.24 
L 189.756525 137.54 
L 189.923925 119.42 
L 190.091325 62.04 
L 190.258725 92.24 
L 190.426125 56 
L 190.760925 125.46 
L 190.928325 116.4 
L 191.095725 116.4 
L 191.263125 110.36 
L 191.430525 65.06 
L 191.597925 56 
L 191.765325 65.06 
L 192.100125 110.36 
L 192.267525 110.36 
L 192.434925 104.32 
L 192.602325 125.46 
L 192.769725 101.3 
L 192.937125 152.64 
L 193.271925 101.3 
L 193.439325 104.32 
L 193.606725 149.62 
L 193.774125 152.64 
L 193.941525 128.48 
L 194.276325 122.44 
L 194.443725 110.36 
L 194.611125 107.34 
L 194.778525 77.14 
L 194.945925 107.34 
L 195.280725 98.28 
L 195.448125 152.64 
L 195.615525 98.28 
L 195.782925 83.18 
L 195.950325 80.16 
L 196.117725 89.22 
L 196.285125 134.52 
L 196.787325 83.18 
L 196.954725 89.22 
L 197.122125 101.3 
L 197.456925 86.2 
L 197.959125 119.42 
L 198.293925 65.06 
L 198.628725 116.4 
L 198.796125 110.36 
L 198.963525 143.58 
L 199.130925 95.26 
L 199.298325 104.32 
L 199.967925 176.8 
L 200.135325 179.82 
L 200.470125 152.64 
L 200.637525 176.8 
L 200.972325 101.3 
L 201.139725 113.38 
L 201.307125 92.24 
L 201.474525 125.46 
L 201.641925 134.52 
L 201.976725 86.2 
L 202.144125 104.32 
L 202.311525 74.12 
L 202.478925 110.36 
L 202.646325 89.22 
L 202.813725 98.28 
L 202.981125 56 
L 203.315925 113.38 
L 203.483325 122.44 
L 203.985525 98.28 
L 204.152925 125.46 
L 204.320325 89.22 
L 204.487725 131.5 
L 204.655125 104.32 
L 204.822525 152.64 
L 204.989925 131.5 
L 205.157325 167.74 
L 205.492125 194.92 
L 205.659525 164.72 
L 205.826925 113.38 
L 205.994325 113.38 
L 206.161725 131.5 
L 206.329125 137.54 
L 206.496525 185.86 
L 206.663925 173.78 
L 206.831325 152.64 
L 206.998725 155.66 
L 207.166125 200.96 
L 207.500925 170.76 
L 207.668325 182.84 
L 207.835725 149.62 
L 208.003125 149.62 
L 208.170525 161.7 
L 208.672725 83.18 
L 208.840125 92.24 
L 209.007525 143.58 
L 209.174925 95.26 
L 209.342325 158.68 
L 209.509725 143.58 
L 209.677125 146.6 
L 209.844525 125.46 
L 210.011925 170.76 
L 210.179325 158.68 
L 210.514125 113.38 
L 210.681525 107.34 
L 211.016325 71.1 
L 211.183725 116.4 
L 211.351125 83.18 
L 211.518525 80.16 
L 211.853325 122.44 
L 212.020725 71.1 
L 212.188125 71.1 
L 212.522925 116.4 
L 212.690325 98.28 
L 212.857725 104.32 
L 213.025125 101.3 
L 213.192525 146.6 
L 213.359925 119.42 
L 213.527325 116.4 
L 213.694725 140.56 
L 213.862125 92.24 
L 214.029525 143.58 
L 214.196925 122.44 
L 214.364325 122.44 
L 214.531725 113.38 
L 214.699125 92.24 
L 214.866525 104.32 
L 215.033925 131.5 
L 215.368725 92.24 
L 215.703525 110.36 
L 215.870925 83.18 
L 216.038325 128.48 
L 216.205725 119.42 
L 216.373125 122.44 
L 216.540525 113.38 
L 216.707925 122.44 
L 216.875325 167.74 
L 217.042725 149.62 
L 217.377525 92.24 
L 217.712325 143.58 
L 217.879725 146.6 
L 218.047125 119.42 
L 218.214525 122.44 
L 218.381925 143.58 
L 218.549325 143.58 
L 218.716725 152.64 
L 219.051525 122.44 
L 219.218925 86.2 
L 219.386325 92.24 
L 219.553725 137.54 
L 219.721125 152.64 
L 219.888525 140.56 
L 220.390725 86.2 
L 220.558125 149.62 
L 220.725525 146.6 
L 220.892925 173.78 
L 221.060325 149.62 
L 221.227725 179.82 
L 221.395125 128.48 
L 221.729925 158.68 
L 221.897325 128.48 
L 222.232125 173.78 
L 222.399525 155.66 
L 222.734325 104.32 
L 222.901725 74.12 
L 223.069125 89.22 
L 223.236525 128.48 
L 223.738725 59.02 
L 223.906125 107.34 
L 224.073525 110.36 
L 224.240925 134.52 
L 224.408325 107.34 
L 224.575725 101.3 
L 224.743125 68.08 
L 224.910525 101.3 
L 225.245325 68.08 
L 225.412725 83.18 
L 225.580125 140.56 
L 225.747525 104.32 
L 225.914925 131.5 
L 226.082325 122.44 
L 226.249725 125.46 
L 226.584525 89.22 
L 226.751925 98.28 
L 226.919325 140.56 
L 227.086725 125.46 
L 227.254125 125.46 
L 227.421525 146.6 
L 227.588925 107.34 
L 227.756325 104.32 
L 228.091125 134.52 
L 228.258525 125.46 
L 228.425925 107.34 
L 228.593325 104.32 
L 228.760725 128.48 
L 228.928125 92.24 
L 229.095525 110.36 
L 229.262925 116.4 
L 229.430325 92.24 
L 229.597725 167.74 
L 229.765125 173.78 
L 229.932525 170.76 
L 230.099925 158.68 
L 230.434725 116.4 
L 230.602125 52.98 
L 231.104325 110.36 
L 231.271725 92.24 
L 231.439125 101.3 
L 231.606525 161.7 
L 231.941325 62.04 
L 232.108725 110.36 
L 232.276125 101.3 
L 232.443525 119.42 
L 232.610925 125.46 
L 233.113125 89.22 
L 233.280525 107.34 
L 233.447925 101.3 
L 233.615325 116.4 
L 233.782725 110.36 
L 234.284925 149.62 
L 234.619725 164.72 
L 234.787125 185.86 
L 234.954525 161.7 
L 235.121925 170.76 
L 235.289325 152.64 
L 235.456725 155.66 
L 235.624125 146.6 
L 235.791525 161.7 
L 235.958925 155.66 
L 236.293725 95.26 
L 236.628525 119.42 
L 236.795925 95.26 
L 236.963325 116.4 
L 237.130725 116.4 
L 237.465525 110.36 
L 237.632925 83.18 
L 237.800325 113.38 
L 237.967725 110.36 
L 238.135125 125.46 
L 238.302525 101.3 
L 238.469925 52.98 
L 238.804725 101.3 
L 238.972125 116.4 
L 239.139525 116.4 
L 239.306925 122.44 
L 239.474325 113.38 
L 239.641725 140.56 
L 239.809125 143.58 
L 239.976525 131.5 
L 240.311325 173.78 
L 240.478725 167.74 
L 240.646125 191.9 
L 241.148325 122.44 
L 241.315725 143.58 
L 241.650525 116.4 
L 241.817925 116.4 
L 241.985325 131.5 
L 242.152725 134.52 
L 242.320125 113.38 
L 242.487525 110.36 
L 242.654925 137.54 
L 242.989725 86.2 
L 243.157125 56 
L 243.324525 116.4 
L 243.491925 107.34 
L 243.659325 116.4 
L 243.826725 110.36 
L 243.994125 119.42 
L 244.161525 164.72 
L 244.328925 134.52 
L 244.496325 71.1 
L 244.663725 104.32 
L 244.831125 77.14 
L 244.998525 74.12 
L 245.165925 40.9 
L 245.333325 89.22 
L 245.500725 77.14 
L 245.668125 101.3 
L 245.835525 92.24 
L 246.002925 107.34 
L 246.170325 92.24 
L 246.337725 104.32 
L 246.505125 71.1 
L 246.839925 101.3 
L 247.007325 101.3 
L 247.342125 86.2 
L 247.509525 77.14 
L 247.676925 52.98 
L 247.844325 52.98 
L 248.011725 71.1 
L 248.179125 49.96 
L 248.346525 71.1 
L 248.513925 59.02 
L 248.681325 71.1 
L 248.848725 74.12 
L 249.183525 155.66 
L 249.518325 116.4 
L 249.685725 107.34 
L 249.853125 137.54 
L 250.020525 134.52 
L 250.187925 137.54 
L 250.355325 134.52 
L 250.522725 116.4 
L 250.690125 116.4 
L 250.857525 119.42 
L 251.024925 155.66 
L 251.192325 119.42 
L 251.359725 137.54 
L 251.527125 95.26 
L 251.694525 131.5 
L 251.861925 137.54 
L 252.029325 74.12 
L 252.364125 113.38 
L 252.698925 68.08 
L 252.866325 107.34 
L 253.033725 116.4 
L 253.201125 131.5 
L 253.368525 164.72 
L 253.535925 164.72 
L 253.703325 170.76 
L 253.870725 185.86 
L 254.038125 149.62 
L 254.205525 185.86 
L 254.372925 194.92 
L 254.707725 185.86 
L 254.875125 185.86 
L 255.042525 197.94 
L 255.209925 191.9 
L 255.544725 219.08 
L 255.712125 213.04 
L 255.879525 194.92 
L 256.046925 213.04 
L 256.214325 213.04 
L 256.381725 194.92 
L 256.549125 213.04 
L 256.716525 191.9 
L 257.051325 213.04 
L 257.218725 176.8 
L 257.386125 213.04 
L 257.553525 213.04 
L 257.720925 210.02 
L 257.888325 210.02 
L 258.055725 200.96 
L 258.390525 228.14 
L 258.557925 210.02 
L 258.725325 219.08 
L 258.892725 210.02 
L 259.060125 213.04 
L 259.227525 222.1 
L 259.394925 219.08 
L 259.562325 225.12 
L 259.729725 210.02 
L 259.897125 228.14 
L 260.064525 228.14 
L 260.231925 222.1 
L 260.399325 225.12 
L 260.734125 225.12 
L 260.901525 222.1 
L 261.068925 203.98 
L 261.403725 225.12 
L 261.571125 222.1 
L 261.738525 228.14 
L 262.240725 228.14 
L 262.408125 225.12 
L 262.575525 228.14 
L 262.742925 222.1 
L 262.910325 225.12 
L 263.077725 222.1 
L 263.245125 228.14 
L 263.412525 228.14 
L 263.579925 210.02 
L 263.914725 228.14 
L 264.082125 225.12 
L 264.584325 207 
L 264.919125 222.1 
L 265.086525 228.14 
L 265.421325 228.14 
L 265.588725 225.12 
L 265.756125 225.12 
L 265.923525 228.14 
L 266.258325 228.14 
L 266.425725 216.06 
L 266.593125 219.08 
L 266.760525 219.08 
L 266.927925 213.04 
L 267.095325 225.12 
L 267.262725 225.12 
L 267.430125 228.14 
L 267.597525 228.14 
L 267.764925 219.08 
L 267.932325 225.12 
L 268.099725 213.04 
L 268.601925 228.14 
L 268.769325 225.12 
L 268.936725 219.08 
L 269.271525 228.14 
L 269.438925 228.14 
L 269.606325 219.08 
L 269.773725 219.08 
L 269.941125 210.02 
L 270.108525 222.1 
L 270.275925 222.1 
L 270.610725 213.04 
L 270.778125 210.02 
L 270.945525 222.1 
L 271.112925 222.1 
L 271.280325 210.02 
L 271.447725 225.12 
L 271.615125 228.14 
L 271.782525 216.06 
L 271.949925 219.08 
L 272.117325 228.14 
L 272.284725 219.08 
L 272.452125 228.14 
L 272.619525 222.1 
L 272.786925 228.14 
L 272.954325 219.08 
L 273.121725 225.12 
L 273.456525 225.12 
L 273.623925 228.14 
L 273.791325 228.14 
L 273.958725 203.98 
L 274.126125 213.04 
L 274.293525 207 
L 274.460925 216.06 
L 274.628325 197.94 
L 274.795725 197.94 
L 274.963125 203.98 
L 275.130525 185.86 
L 275.297925 216.06 
L 275.465325 216.06 
L 275.632725 222.1 
L 275.800125 207 
L 276.134925 222.1 
L 276.302325 222.1 
L 276.469725 228.14 
L 276.637125 216.06 
L 276.971925 216.06 
L 277.306725 222.1 
L 277.474125 222.1 
L 277.641525 228.14 
L 277.808925 228.14 
L 277.976325 225.12 
L 278.143725 210.02 
L 278.478525 210.02 
L 278.645925 222.1 
L 278.980725 228.14 
L 279.148125 213.04 
L 279.315525 213.04 
L 279.482925 225.12 
L 279.650325 222.1 
L 279.817725 225.12 
L 280.152525 219.08 
L 280.319925 207 
L 280.487325 203.98 
L 280.654725 216.06 
L 281.156925 216.06 
L 281.324325 225.12 
L 281.491725 222.1 
L 281.826525 222.1 
L 281.993925 213.04 
L 282.161325 213.04 
L 282.328725 225.12 
L 282.496125 228.14 
L 282.663525 228.14 
L 282.998325 222.1 
L 283.333125 228.14 
L 283.500525 222.1 
L 283.667925 228.14 
L 283.835325 222.1 
L 284.002725 228.14 
L 284.337525 219.08 
L 284.504925 228.14 
L 284.672325 228.14 
L 284.839725 225.12 
L 285.174525 225.12 
L 285.341925 228.14 
L 285.509325 225.12 
L 285.676725 219.08 
L 285.844125 225.12 
L 286.178925 197.94 
L 286.346325 216.06 
L 286.513725 200.96 
L 286.681125 213.04 
L 287.015925 203.98 
L 287.183325 219.08 
L 287.350725 176.8 
L 287.518125 213.04 
L 287.685525 194.92 
L 287.852925 207 
L 288.020325 203.98 
L 288.187725 219.08 
L 288.355125 203.98 
L 288.522525 213.04 
L 288.689925 213.04 
L 288.857325 176.8 
L 289.024725 185.86 
L 289.526925 125.46 
L 290.029125 110.36 
L 290.363925 89.22 
L 290.531325 128.48 
L 290.698725 89.22 
L 290.866125 80.16 
L 291.033525 89.22 
L 291.200925 83.18 
L 291.368325 52.98 
L 291.535725 101.3 
L 291.703125 113.38 
L 291.870525 113.38 
L 292.037925 98.28 
L 292.205325 122.44 
L 292.372725 104.32 
L 292.540125 107.34 
L 292.707525 83.18 
L 292.874925 116.4 
L 293.042325 113.38 
L 293.209725 95.26 
L 293.377125 110.36 
L 293.544525 95.26 
L 293.711925 98.28 
L 293.879325 125.46 
L 294.046725 95.26 
L 294.381525 140.56 
L 294.548925 149.62 
L 294.716325 122.44 
L 294.883725 152.64 
L 295.051125 107.34 
L 295.218525 113.38 
L 295.385925 170.76 
L 295.720725 110.36 
L 296.055525 152.64 
L 296.390325 107.34 
L 296.557725 128.48 
L 296.725125 125.46 
L 296.892525 158.68 
L 297.227325 92.24 
L 297.562125 104.32 
L 297.896925 143.58 
L 298.064325 179.82 
L 298.231725 143.58 
L 298.399125 155.66 
L 298.566525 122.44 
L 298.733925 125.46 
L 299.068725 173.78 
L 299.236125 179.82 
L 299.403525 173.78 
L 299.570925 125.46 
L 299.738325 110.36 
L 300.073125 185.86 
L 300.240525 122.44 
L 300.407925 116.4 
L 300.575325 164.72 
L 300.742725 176.8 
L 300.910125 176.8 
L 301.077525 203.98 
L 301.244925 213.04 
L 301.412325 200.96 
L 301.579725 210.02 
L 301.914525 210.02 
L 302.081925 203.98 
L 302.249325 170.76 
L 302.416725 182.84 
L 302.584125 179.82 
L 302.918925 119.42 
L 303.086325 89.22 
L 303.253725 101.3 
L 303.588525 52.98 
L 303.923325 107.34 
L 304.258125 140.56 
L 304.425525 143.58 
L 304.760325 197.94 
L 305.095125 167.74 
L 305.262525 173.78 
L 305.597325 207 
L 305.764725 194.92 
L 305.932125 194.92 
L 306.099525 191.9 
L 306.266925 179.82 
L 306.601725 207 
L 306.769125 194.92 
L 306.936525 137.54 
L 307.103925 143.58 
L 307.271325 113.38 
L 307.773525 155.66 
L 307.940925 152.64 
L 308.108325 158.68 
L 308.275725 143.58 
L 308.443125 155.66 
L 308.610525 107.34 
L 308.777925 122.44 
L 308.945325 101.3 
L 309.112725 137.54 
L 309.280125 110.36 
L 309.447525 155.66 
L 309.614925 158.68 
L 309.782325 164.72 
L 309.949725 179.82 
L 310.117125 176.8 
L 310.451925 143.58 
L 310.786725 65.06 
L 310.954125 86.2 
L 311.121525 140.56 
L 311.456325 158.68 
L 311.791125 152.64 
L 311.958525 170.76 
L 312.125925 164.72 
L 312.293325 152.64 
L 312.460725 161.7 
L 312.628125 176.8 
L 312.795525 146.6 
L 312.962925 143.58 
L 313.130325 161.7 
L 313.297725 152.64 
L 313.465125 128.48 
L 313.632525 125.46 
L 313.799925 155.66 
L 313.967325 152.64 
L 314.134725 131.5 
L 314.302125 137.54 
L 314.469525 89.22 
L 314.636925 89.22 
L 314.804325 98.28 
L 315.139125 146.6 
L 315.473925 83.18 
L 315.641325 98.28 
L 315.808725 146.6 
L 315.976125 146.6 
L 316.310925 62.04 
L 316.478325 113.38 
L 316.645725 101.3 
L 316.813125 104.32 
L 317.147925 71.1 
L 317.650125 107.34 
L 317.817525 113.38 
L 317.984925 83.18 
L 318.152325 89.22 
L 318.487125 146.6 
L 318.654525 152.64 
L 318.989325 125.46 
L 319.156725 149.62 
L 319.324125 152.64 
L 319.491525 134.52 
L 319.658925 137.54 
L 319.993725 116.4 
L 320.161125 119.42 
L 320.328525 92.24 
L 320.495925 89.22 
L 320.663325 146.6 
L 320.830725 125.46 
L 320.998125 155.66 
L 321.165525 128.48 
L 321.332925 137.54 
L 321.667725 101.3 
L 321.835125 98.28 
L 322.169925 65.06 
L 322.337325 122.44 
L 322.504725 125.46 
L 322.839525 170.76 
L 323.006925 146.6 
L 323.174325 146.6 
L 323.341725 143.58 
L 323.509125 143.58 
L 323.676525 149.62 
L 323.843925 173.78 
L 324.011325 128.48 
L 324.178725 143.58 
L 324.346125 137.54 
L 324.513525 161.7 
L 324.680925 128.48 
L 324.848325 131.5 
L 325.015725 107.34 
L 325.183125 119.42 
L 325.350525 119.42 
L 325.517925 125.46 
L 325.685325 143.58 
L 325.852725 122.44 
L 326.020125 122.44 
L 326.354925 164.72 
L 326.689725 119.42 
L 326.857125 128.48 
L 327.191925 95.26 
L 327.359325 52.98 
L 327.526725 49.96 
L 327.694125 52.98 
L 327.861525 101.3 
L 328.028925 104.32 
L 328.363725 170.76 
L 328.531125 158.68 
L 328.698525 167.74 
L 329.033325 122.44 
L 329.200725 164.72 
L 329.368125 158.68 
L 329.535525 134.52 
L 329.702925 158.68 
L 330.037725 134.52 
L 330.205125 182.84 
L 330.372525 191.9 
L 330.707325 152.64 
L 330.874725 170.76 
L 331.042125 143.58 
L 331.209525 92.24 
L 331.544325 125.46 
L 331.711725 122.44 
L 331.879125 74.12 
L 332.213925 122.44 
L 332.381325 125.46 
L 332.716125 86.2 
L 332.883525 89.22 
L 333.050925 119.42 
L 333.218325 113.38 
L 333.385725 83.18 
L 333.553125 83.18 
L 333.720525 52.98 
L 333.887925 80.16 
L 334.055325 71.1 
L 334.222725 119.42 
L 334.390125 98.28 
L 334.724925 146.6 
L 335.059725 104.32 
L 335.227125 101.3 
L 335.394525 95.26 
L 335.561925 113.38 
L 335.729325 116.4 
L 335.896725 110.36 
L 336.064125 89.22 
L 336.231525 125.46 
L 336.566325 137.54 
L 337.068525 98.28 
L 337.235925 110.36 
L 337.570725 116.4 
L 337.738125 116.4 
L 338.072925 137.54 
L 338.240325 128.48 
L 338.407725 134.52 
L 338.575125 113.38 
L 338.909925 134.52 
L 339.077325 182.84 
L 339.244725 176.8 
L 339.412125 188.88 
L 339.746925 143.58 
L 339.914325 134.52 
L 340.081725 143.58 
L 340.416525 149.62 
L 340.751325 161.7 
L 341.086125 140.56 
L 341.253525 149.62 
L 341.420925 101.3 
L 341.588325 149.62 
L 341.755725 116.4 
L 341.923125 140.56 
L 342.090525 143.58 
L 342.257925 158.68 
L 342.425325 149.62 
L 342.592725 110.36 
L 342.760125 107.34 
L 342.927525 107.34 
L 343.094925 101.3 
L 343.429725 125.46 
L 343.597125 164.72 
L 343.764525 146.6 
L 343.931925 146.6 
L 344.099325 137.54 
L 344.266725 167.74 
L 344.434125 155.66 
L 344.601525 152.64 
L 344.768925 167.74 
L 344.936325 197.94 
L 345.103725 155.66 
L 345.271125 194.92 
L 345.605925 152.64 
L 345.773325 176.8 
L 345.940725 161.7 
L 346.108125 125.46 
L 346.275525 170.76 
L 346.610325 107.34 
L 346.777725 125.46 
L 346.945125 122.44 
L 347.112525 89.22 
L 347.447325 113.38 
L 347.614725 77.14 
L 347.949525 131.5 
L 348.116925 131.5 
L 348.451725 140.56 
L 348.619125 167.74 
L 348.786525 149.62 
L 348.953925 210.02 
L 349.288725 170.76 
L 349.456125 170.76 
L 349.623525 173.78 
L 349.790925 158.68 
L 349.958325 173.78 
L 350.125725 173.78 
L 350.293125 140.56 
L 350.460525 155.66 
L 350.627925 128.48 
L 350.795325 134.52 
L 350.962725 113.38 
L 351.130125 125.46 
L 351.297525 113.38 
L 351.464925 122.44 
L 351.632325 155.66 
L 351.967125 128.48 
L 352.134525 122.44 
L 352.301925 125.46 
L 352.469325 86.2 
L 352.804125 176.8 
L 353.138925 107.34 
L 353.473725 191.9 
L 353.808525 131.5 
L 353.975925 167.74 
L 354.143325 179.82 
L 354.310725 158.68 
L 354.478125 182.84 
L 354.645525 188.88 
L 354.812925 134.52 
L 354.980325 137.54 
L 355.147725 119.42 
L 355.315125 137.54 
L 355.482525 170.76 
L 355.649925 140.56 
L 355.817325 152.64 
L 355.984725 179.82 
L 356.152125 158.68 
L 356.319525 152.64 
L 356.654325 173.78 
L 356.821725 152.64 
L 356.989125 158.68 
L 357.156525 170.76 
L 357.323925 140.56 
L 357.658725 155.66 
L 357.993525 122.44 
L 358.160925 152.64 
L 358.328325 140.56 
L 358.663125 167.74 
L 358.830525 101.3 
L 358.997925 161.7 
L 359.165325 149.62 
L 359.500125 167.74 
L 359.667525 158.68 
L 359.834925 143.58 
L 360.002325 155.66 
L 360.169725 122.44 
L 360.337125 125.46 
L 360.671925 77.14 
L 361.006725 98.28 
L 361.174125 149.62 
L 361.341525 122.44 
L 361.508925 158.68 
L 361.676325 146.6 
L 361.843725 158.68 
L 362.011125 155.66 
L 362.178525 170.76 
L 362.345925 170.76 
L 362.680725 140.56 
L 362.848125 167.74 
L 363.015525 140.56 
L 363.182925 137.54 
L 363.350325 164.72 
L 363.517725 83.18 
L 363.685125 125.46 
L 363.852525 101.3 
L 364.187325 137.54 
L 364.522125 143.58 
L 364.689525 131.5 
L 364.856925 98.28 
L 365.024325 113.38 
L 365.191725 140.56 
L 365.359125 140.56 
L 365.861325 104.32 
L 366.028725 92.24 
L 366.196125 104.32 
L 366.363525 80.16 
L 366.530925 83.18 
L 366.698325 104.32 
L 366.865725 86.2 
L 367.033125 95.26 
L 367.200525 89.22 
L 367.535325 128.48 
L 367.702725 128.48 
L 368.037525 107.34 
L 368.204925 140.56 
L 368.372325 140.56 
L 368.539725 143.58 
L 368.707125 128.48 
L 368.874525 155.66 
L 369.041925 140.56 
L 369.209325 155.66 
L 369.376725 116.4 
L 369.711525 152.64 
L 369.878925 101.3 
L 370.046325 98.28 
L 370.548525 173.78 
L 370.883325 155.66 
L 371.050725 158.68 
L 371.218125 134.52 
L 371.385525 146.6 
L 371.552925 119.42 
L 371.720325 113.38 
L 371.887725 149.62 
L 372.055125 155.66 
L 372.222525 194.92 
L 372.389925 203.98 
L 372.557325 203.98 
L 372.724725 188.88 
L 373.059525 131.5 
L 373.226925 77.14 
L 373.561725 110.36 
L 373.729125 152.64 
L 373.896525 158.68 
L 374.231325 110.36 
L 374.398725 137.54 
L 374.733525 110.36 
L 374.900925 107.34 
L 375.068325 101.3 
L 375.403125 146.6 
L 375.403125 146.6 
" style="fill:none;stroke:#1f77b4;stroke-linecap:square;stroke-width:1.5;"/>
   </g>
   <g id="line2d_16">
    <path clip-path="url(#p54d437de6e)" d="M 40.603125 228.14 
L 40.770525 225.12 
L 40.937925 219.08 
L 41.105325 222.1 
L 41.272725 213.04 
L 41.440125 213.04 
L 41.607525 207 
L 41.774925 207 
L 41.942325 216.06 
L 42.109725 207 
L 42.277125 203.98 
L 42.611925 210.02 
L 42.779325 207 
L 42.946725 216.06 
L 43.114125 203.98 
L 43.281525 203.98 
L 43.448925 213.04 
L 43.616325 210.02 
L 43.783725 216.06 
L 43.951125 216.06 
L 44.118525 219.08 
L 44.285925 207 
L 44.453325 210.02 
L 44.788125 219.08 
L 44.955525 210.02 
L 45.122925 213.04 
L 45.290325 207 
L 45.457725 216.06 
L 45.625125 216.06 
L 45.792525 225.12 
L 45.959925 222.1 
L 46.294725 203.98 
L 46.462125 222.1 
L 46.629525 213.04 
L 46.964325 207 
L 47.131725 219.08 
L 47.299125 203.98 
L 47.633925 213.04 
L 47.801325 213.04 
L 47.968725 210.02 
L 48.136125 219.08 
L 48.303525 213.04 
L 48.470925 216.06 
L 48.805725 207 
L 48.973125 207 
L 49.140525 213.04 
L 49.307925 203.98 
L 49.642725 219.08 
L 49.810125 225.12 
L 49.977525 222.1 
L 50.144925 216.06 
L 50.312325 222.1 
L 50.479725 219.08 
L 50.647125 219.08 
L 50.814525 207 
L 50.981925 203.98 
L 51.316725 216.06 
L 51.484125 207 
L 51.818925 207 
L 51.986325 213.04 
L 52.153725 203.98 
L 52.321125 207 
L 52.488525 203.98 
L 52.655925 207 
L 52.823325 203.98 
L 52.990725 207 
L 53.158125 200.96 
L 53.492925 210.02 
L 53.660325 200.96 
L 53.827725 200.96 
L 53.995125 203.98 
L 54.162525 200.96 
L 54.664725 200.96 
L 54.832125 203.98 
L 54.999525 200.96 
L 55.166925 203.98 
L 55.334325 200.96 
L 56.003925 200.96 
L 56.171325 203.98 
L 56.338725 200.96 
L 56.506125 207 
L 56.840925 200.96 
L 57.008325 200.96 
L 57.175725 203.98 
L 57.343125 200.96 
L 58.347525 200.96 
L 58.514925 203.98 
L 58.682325 200.96 
L 59.017125 200.96 
L 59.184525 203.98 
L 59.351925 203.98 
L 59.519325 200.96 
L 62.365125 200.96 
L 62.532525 203.98 
L 62.699925 200.96 
L 63.202125 200.96 
L 63.369525 203.98 
L 63.704325 203.98 
L 63.871725 200.96 
L 64.206525 200.96 
L 64.373925 203.98 
L 64.541325 203.98 
L 64.708725 200.96 
L 64.876125 200.96 
L 65.043525 203.98 
L 65.210925 200.96 
L 65.378325 203.98 
L 65.545725 200.96 
L 66.382725 200.96 
L 66.550125 203.98 
L 66.717525 203.98 
L 66.884925 200.96 
L 67.219725 200.96 
L 67.387125 203.98 
L 67.554525 200.96 
L 68.224125 200.96 
L 68.391525 207 
L 68.726325 200.96 
L 68.893725 203.98 
L 69.061125 200.96 
L 69.228525 203.98 
L 69.395925 200.96 
L 69.563325 203.98 
L 69.730725 200.96 
L 70.400325 200.96 
L 70.567725 203.98 
L 70.735125 200.96 
L 70.902525 203.98 
L 71.069925 200.96 
L 71.237325 203.98 
L 71.404725 200.96 
L 71.906925 200.96 
L 72.074325 203.98 
L 72.241725 200.96 
L 72.409125 207 
L 72.576525 200.96 
L 73.078725 200.96 
L 73.246125 207 
L 73.413525 207 
L 73.580925 200.96 
L 73.748325 203.98 
L 73.915725 200.96 
L 74.250525 200.96 
L 74.417925 203.98 
L 74.585325 200.96 
L 75.757125 200.96 
L 75.924525 203.98 
L 76.091925 200.96 
L 76.259325 200.96 
L 76.426725 203.98 
L 76.594125 200.96 
L 77.933325 200.96 
L 78.100725 203.98 
L 78.268125 203.98 
L 78.435525 200.96 
L 78.770325 200.96 
L 78.937725 203.98 
L 79.105125 200.96 
L 79.774725 200.96 
L 79.942125 203.98 
L 80.109525 200.96 
L 80.444325 200.96 
L 80.611725 203.98 
L 80.946525 203.98 
L 81.113925 200.96 
L 82.955325 200.96 
L 83.122725 203.98 
L 83.290125 200.96 
L 84.127125 200.96 
L 84.294525 207 
L 84.461925 203.98 
L 84.629325 203.98 
L 84.796725 200.96 
L 84.964125 203.98 
L 85.131525 200.96 
L 85.466325 200.96 
L 85.633725 203.98 
L 85.801125 203.98 
L 85.968525 200.96 
L 86.135925 200.96 
L 86.303325 203.98 
L 86.470725 200.96 
L 86.638125 203.98 
L 86.805525 200.96 
L 87.140325 200.96 
L 87.307725 203.98 
L 87.475125 200.96 
L 88.144725 200.96 
L 88.312125 203.98 
L 88.479525 200.96 
L 89.651325 200.96 
L 89.818725 203.98 
L 89.986125 200.96 
L 90.153525 200.96 
L 90.320925 207 
L 90.655725 200.96 
L 93.501525 200.96 
L 93.668925 203.98 
L 93.836325 203.98 
L 94.003725 200.96 
L 94.840725 200.96 
L 95.008125 203.98 
L 95.510325 203.98 
L 95.677725 200.96 
L 95.845125 203.98 
L 96.012525 200.96 
L 96.682125 200.96 
L 96.849525 207 
L 97.016925 200.96 
L 97.351725 207 
L 97.519125 200.96 
L 97.686525 207 
L 97.853925 200.96 
L 98.188725 200.96 
L 98.356125 203.98 
L 98.523525 200.96 
L 99.025725 200.96 
L 99.193125 203.98 
L 99.360525 200.96 
L 99.527925 203.98 
L 99.695325 200.96 
L 99.862725 203.98 
L 100.030125 203.98 
L 100.197525 200.96 
L 100.867125 200.96 
L 101.034525 203.98 
L 101.201925 203.98 
L 101.369325 200.96 
L 101.704125 200.96 
L 101.871525 203.98 
L 102.038925 200.96 
L 102.708525 200.96 
L 102.875925 203.98 
L 103.043325 203.98 
L 103.210725 200.96 
L 103.378125 200.96 
L 103.545525 203.98 
L 103.712925 200.96 
L 104.382525 200.96 
L 104.549925 203.98 
L 104.717325 200.96 
L 104.884725 203.98 
L 105.052125 200.96 
L 105.386925 200.96 
L 105.554325 203.98 
L 105.721725 200.96 
L 109.739325 200.96 
L 109.906725 203.98 
L 110.074125 200.96 
L 110.241525 203.98 
L 110.408925 203.98 
L 110.576325 200.96 
L 111.580725 200.96 
L 111.748125 203.98 
L 111.915525 203.98 
L 112.082925 200.96 
L 112.250325 200.96 
L 112.417725 203.98 
L 112.752525 203.98 
L 112.919925 200.96 
L 113.087325 203.98 
L 113.254725 200.96 
L 113.589525 200.96 
L 113.756925 203.98 
L 113.924325 203.98 
L 114.091725 200.96 
L 115.598325 200.96 
L 115.765725 203.98 
L 115.933125 200.96 
L 116.100525 203.98 
L 116.435325 203.98 
L 116.602725 200.96 
L 117.272325 200.96 
L 117.439725 207 
L 117.774525 200.96 
L 118.611525 200.96 
L 118.778925 203.98 
L 119.113725 203.98 
L 119.281125 200.96 
L 119.615925 200.96 
L 119.783325 203.98 
L 119.950725 200.96 
L 120.452925 200.96 
L 120.620325 203.98 
L 120.787725 200.96 
L 120.955125 200.96 
L 121.122525 203.98 
L 121.289925 203.98 
L 121.457325 207 
L 121.624725 200.96 
L 122.126925 200.96 
L 122.294325 207 
L 122.461725 203.98 
L 122.796525 203.98 
L 122.963925 200.96 
L 123.800925 200.96 
L 123.968325 203.98 
L 124.135725 200.96 
L 125.307525 200.96 
L 125.474925 203.98 
L 125.642325 200.96 
L 126.311925 200.96 
L 126.479325 203.98 
L 126.646725 200.96 
L 126.981525 200.96 
L 127.148925 203.98 
L 127.316325 200.96 
L 128.153325 200.96 
L 128.320725 207 
L 128.488125 200.96 
L 128.655525 203.98 
L 128.822925 203.98 
L 128.990325 200.96 
L 129.492525 200.96 
L 129.659925 207 
L 129.994725 200.96 
L 130.329525 200.96 
L 130.664325 207 
L 130.831725 200.96 
L 130.999125 200.96 
L 131.166525 203.98 
L 131.333925 200.96 
L 131.501325 203.98 
L 131.668725 200.96 
L 131.836125 210.02 
L 132.003525 200.96 
L 132.505725 200.96 
L 132.673125 207 
L 133.007925 200.96 
L 133.175325 203.98 
L 133.342725 200.96 
L 133.510125 203.98 
L 133.677525 203.98 
L 133.844925 200.96 
L 134.012325 207 
L 134.179725 200.96 
L 134.681925 200.96 
L 134.849325 203.98 
L 135.016725 200.96 
L 135.518925 200.96 
L 135.686325 203.98 
L 135.853725 200.96 
L 136.021125 200.96 
L 136.188525 207 
L 136.355925 200.96 
L 136.523325 200.96 
L 136.690725 203.98 
L 136.858125 203.98 
L 137.025525 200.96 
L 137.192925 207 
L 137.360325 200.96 
L 137.527725 200.96 
L 137.695125 203.98 
L 137.862525 200.96 
L 138.029925 203.98 
L 138.197325 200.96 
L 138.532125 200.96 
L 138.866925 207 
L 139.034325 200.96 
L 139.201725 203.98 
L 139.369125 200.96 
L 139.536525 200.96 
L 139.703925 203.98 
L 140.038725 203.98 
L 140.206125 207 
L 140.373525 203.98 
L 140.708325 203.98 
L 140.875725 200.96 
L 141.210525 213.04 
L 141.377925 200.96 
L 141.545325 203.98 
L 141.880125 203.98 
L 142.214925 210.02 
L 142.382325 210.02 
L 142.549725 207 
L 142.884525 213.04 
L 143.051925 207 
L 143.219325 207 
L 143.386725 213.04 
L 143.721525 203.98 
L 143.888925 213.04 
L 144.056325 207 
L 144.223725 216.06 
L 144.391125 216.06 
L 144.558525 213.04 
L 144.725925 203.98 
L 144.893325 213.04 
L 145.228125 203.98 
L 145.395525 207 
L 145.730325 200.96 
L 145.897725 207 
L 146.065125 203.98 
L 146.232525 207 
L 146.567325 216.06 
L 146.734725 203.98 
L 146.902125 210.02 
L 147.069525 210.02 
L 147.236925 203.98 
L 147.404325 216.06 
L 147.571725 213.04 
L 147.739125 222.1 
L 147.906525 203.98 
L 148.073925 207 
L 148.241325 216.06 
L 148.408725 213.04 
L 148.576125 213.04 
L 148.743525 222.1 
L 148.910925 210.02 
L 149.078325 219.08 
L 149.245725 210.02 
L 149.413125 207 
L 149.580525 219.08 
L 149.747925 203.98 
L 149.915325 216.06 
L 150.082725 207 
L 150.250125 216.06 
L 150.417525 213.04 
L 150.584925 213.04 
L 150.752325 219.08 
L 151.254525 203.98 
L 151.589325 222.1 
L 151.756725 210.02 
L 151.924125 210.02 
L 152.091525 216.06 
L 152.258925 207 
L 152.426325 203.98 
L 152.593725 210.02 
L 152.761125 207 
L 152.928525 219.08 
L 153.095925 203.98 
L 153.263325 213.04 
L 153.430725 216.06 
L 153.598125 210.02 
L 153.765525 219.08 
L 153.932925 207 
L 154.100325 210.02 
L 154.267725 203.98 
L 154.435125 207 
L 154.602525 213.04 
L 154.769925 210.02 
L 154.937325 203.98 
L 155.104725 213.04 
L 155.272125 213.04 
L 155.606925 200.96 
L 155.941725 200.96 
L 156.109125 207 
L 156.276525 200.96 
L 156.443925 203.98 
L 156.611325 200.96 
L 156.778725 207 
L 156.946125 200.96 
L 157.280925 200.96 
L 157.448325 203.98 
L 157.615725 203.98 
L 157.783125 200.96 
L 158.620125 200.96 
L 158.787525 203.98 
L 158.954925 203.98 
L 159.122325 200.96 
L 159.289725 203.98 
L 159.457125 200.96 
L 160.294125 200.96 
L 160.461525 203.98 
L 160.628925 203.98 
L 160.796325 200.96 
L 161.968125 200.96 
L 162.135525 203.98 
L 162.302925 200.96 
L 162.805125 200.96 
L 162.972525 207 
L 163.139925 200.96 
L 163.307325 203.98 
L 163.474725 200.96 
L 164.981325 200.96 
L 165.148725 203.98 
L 165.316125 203.98 
L 165.483525 200.96 
L 165.650925 200.96 
L 165.818325 203.98 
L 165.985725 200.96 
L 166.153125 203.98 
L 166.320525 200.96 
L 166.822725 200.96 
L 166.990125 203.98 
L 167.157525 200.96 
L 167.324925 200.96 
L 167.492325 203.98 
L 167.659725 203.98 
L 167.827125 200.96 
L 167.994525 203.98 
L 168.329325 203.98 
L 168.496725 200.96 
L 170.003325 200.96 
L 170.170725 203.98 
L 170.338125 200.96 
L 171.175125 200.96 
L 171.342525 203.98 
L 171.509925 203.98 
L 171.677325 200.96 
L 172.346925 200.96 
L 172.514325 203.98 
L 172.681725 200.96 
L 173.518725 200.96 
L 173.686125 203.98 
L 173.853525 200.96 
L 174.020925 200.96 
L 174.188325 203.98 
L 174.355725 203.98 
L 174.523125 200.96 
L 175.694925 200.96 
L 175.862325 203.98 
L 176.029725 203.98 
L 176.197125 207 
L 176.364525 200.96 
L 176.531925 203.98 
L 176.699325 200.96 
L 177.368925 200.96 
L 177.536325 203.98 
L 177.703725 200.96 
L 178.373325 200.96 
L 178.540725 203.98 
L 178.708125 200.96 
L 178.875525 200.96 
L 179.042925 203.98 
L 179.210325 203.98 
L 179.377725 200.96 
L 179.545125 200.96 
L 179.712525 203.98 
L 179.879925 203.98 
L 180.047325 200.96 
L 180.214725 203.98 
L 180.382125 200.96 
L 180.549525 203.98 
L 180.884325 203.98 
L 181.051725 200.96 
L 181.553925 200.96 
L 181.721325 207 
L 181.888725 200.96 
L 182.056125 203.98 
L 182.223525 203.98 
L 182.390925 200.96 
L 182.558325 203.98 
L 182.725725 200.96 
L 182.893125 203.98 
L 183.060525 200.96 
L 183.730125 200.96 
L 183.897525 203.98 
L 184.064925 203.98 
L 184.232325 200.96 
L 184.734525 200.96 
L 184.901925 203.98 
L 185.236725 203.98 
L 185.404125 200.96 
L 185.571525 200.96 
L 185.738925 203.98 
L 185.906325 203.98 
L 186.073725 200.96 
L 186.241125 203.98 
L 186.408525 200.96 
L 186.575925 200.96 
L 186.743325 207 
L 186.910725 200.96 
L 187.078125 200.96 
L 187.245525 203.98 
L 187.412925 200.96 
L 187.580325 203.98 
L 187.747725 200.96 
L 188.752125 200.96 
L 188.919525 203.98 
L 189.086925 200.96 
L 189.254325 203.98 
L 189.421725 203.98 
L 189.589125 200.96 
L 189.756525 200.96 
L 189.923925 207 
L 190.091325 200.96 
L 191.765325 200.96 
L 191.932725 207 
L 192.100125 200.96 
L 192.602325 200.96 
L 192.769725 203.98 
L 193.104525 203.98 
L 193.271925 200.96 
L 195.950325 200.96 
L 196.117725 203.98 
L 196.619925 203.98 
L 196.787325 200.96 
L 196.954725 203.98 
L 197.122125 200.96 
L 197.959125 200.96 
L 198.126525 203.98 
L 198.293925 200.96 
L 198.461325 203.98 
L 198.628725 200.96 
L 198.963525 200.96 
L 199.130925 203.98 
L 199.298325 200.96 
L 199.465725 203.98 
L 199.633125 203.98 
L 199.800525 200.96 
L 199.967925 203.98 
L 200.135325 203.98 
L 200.302725 200.96 
L 200.470125 200.96 
L 200.637525 203.98 
L 200.804925 200.96 
L 201.307125 200.96 
L 201.641925 207 
L 201.809325 200.96 
L 201.976725 203.98 
L 202.144125 200.96 
L 202.311525 203.98 
L 202.478925 200.96 
L 202.646325 203.98 
L 202.813725 200.96 
L 204.320325 200.96 
L 204.655125 207 
L 204.822525 203.98 
L 205.157325 203.98 
L 205.324725 200.96 
L 205.492125 203.98 
L 205.659525 203.98 
L 205.826925 200.96 
L 205.994325 200.96 
L 206.161725 203.98 
L 206.329125 200.96 
L 206.663925 200.96 
L 206.831325 203.98 
L 206.998725 200.96 
L 207.166125 200.96 
L 207.333525 203.98 
L 207.500925 200.96 
L 207.668325 200.96 
L 207.835725 207 
L 208.003125 200.96 
L 208.170525 203.98 
L 208.337925 200.96 
L 208.505325 203.98 
L 208.672725 200.96 
L 208.840125 203.98 
L 209.007525 200.96 
L 209.844525 200.96 
L 210.011925 207 
L 210.346725 200.96 
L 210.514125 203.98 
L 210.681525 200.96 
L 212.188125 200.96 
L 212.355525 203.98 
L 212.690325 203.98 
L 212.857725 200.96 
L 214.866525 200.96 
L 215.033925 203.98 
L 215.201325 200.96 
L 215.368725 203.98 
L 215.536125 203.98 
L 215.703525 200.96 
L 217.377525 200.96 
L 217.544925 203.98 
L 217.712325 203.98 
L 217.879725 200.96 
L 218.214525 200.96 
L 218.381925 203.98 
L 218.549325 200.96 
L 218.884125 200.96 
L 219.051525 203.98 
L 219.218925 200.96 
L 219.721125 200.96 
L 219.888525 203.98 
L 220.055925 200.96 
L 220.223325 200.96 
L 220.390725 203.98 
L 220.558125 200.96 
L 220.725525 203.98 
L 220.892925 203.98 
L 221.060325 200.96 
L 221.729925 200.96 
L 221.897325 203.98 
L 222.064725 200.96 
L 222.232125 200.96 
L 222.399525 207 
L 222.566925 200.96 
L 222.901725 200.96 
L 223.069125 203.98 
L 223.236525 200.96 
L 223.403925 200.96 
L 223.571325 203.98 
L 223.738725 200.96 
L 224.575725 200.96 
L 224.743125 203.98 
L 224.910525 200.96 
L 225.077925 200.96 
L 225.245325 203.98 
L 225.412725 200.96 
L 225.580125 200.96 
L 225.747525 203.98 
L 225.914925 203.98 
L 226.082325 200.96 
L 226.249725 200.96 
L 226.417125 203.98 
L 226.584525 200.96 
L 226.751925 203.98 
L 226.919325 200.96 
L 227.254125 200.96 
L 227.421525 203.98 
L 227.588925 200.96 
L 228.928125 200.96 
L 229.095525 203.98 
L 229.262925 203.98 
L 229.430325 200.96 
L 229.597725 207 
L 229.932525 200.96 
L 230.099925 203.98 
L 230.267325 203.98 
L 230.434725 200.96 
L 232.276125 200.96 
L 232.443525 207 
L 232.778325 200.96 
L 234.117525 200.96 
L 234.452325 207 
L 234.619725 203.98 
L 234.787125 203.98 
L 234.954525 200.96 
L 235.289325 200.96 
L 235.456725 203.98 
L 235.624125 200.96 
L 235.958925 200.96 
L 236.126325 210.02 
L 236.293725 203.98 
L 236.461125 203.98 
L 236.628525 200.96 
L 236.795925 200.96 
L 236.963325 203.98 
L 237.130725 200.96 
L 237.632925 200.96 
L 237.800325 203.98 
L 237.967725 203.98 
L 238.135125 200.96 
L 238.302525 203.98 
L 238.469925 200.96 
L 238.637325 200.96 
L 238.804725 203.98 
L 238.972125 200.96 
L 239.474325 200.96 
L 239.641725 203.98 
L 239.809125 200.96 
L 240.143925 200.96 
L 240.311325 203.98 
L 240.646125 203.98 
L 240.813525 200.96 
L 241.148325 200.96 
L 241.315725 203.98 
L 241.483125 200.96 
L 241.817925 200.96 
L 241.985325 203.98 
L 242.152725 200.96 
L 242.320125 200.96 
L 242.487525 203.98 
L 242.654925 200.96 
L 243.826725 200.96 
L 243.994125 203.98 
L 244.161525 200.96 
L 245.165925 200.96 
L 245.333325 203.98 
L 245.500725 200.96 
L 245.835525 200.96 
L 246.002925 203.98 
L 246.170325 200.96 
L 246.839925 200.96 
L 247.007325 210.02 
L 247.174725 200.96 
L 247.676925 200.96 
L 247.844325 203.98 
L 248.011725 200.96 
L 249.183525 200.96 
L 249.350925 203.98 
L 250.020525 203.98 
L 250.187925 200.96 
L 250.355325 203.98 
L 250.857525 203.98 
L 251.024925 200.96 
L 251.527125 200.96 
L 251.694525 203.98 
L 251.861925 203.98 
L 252.029325 200.96 
L 252.866325 200.96 
L 253.033725 207 
L 253.201125 200.96 
L 253.535925 200.96 
L 253.703325 203.98 
L 253.870725 200.96 
L 254.205525 200.96 
L 254.372925 203.98 
L 254.540325 200.96 
L 255.042525 200.96 
L 255.209925 207 
L 255.377325 207 
L 255.544725 213.04 
L 255.712125 207 
L 255.879525 210.02 
L 256.046925 203.98 
L 256.214325 213.04 
L 256.381725 203.98 
L 256.716525 203.98 
L 256.883925 200.96 
L 257.051325 207 
L 257.218725 200.96 
L 257.386125 213.04 
L 257.553525 210.02 
L 257.720925 203.98 
L 257.888325 210.02 
L 258.055725 203.98 
L 258.223125 210.02 
L 258.557925 210.02 
L 258.892725 203.98 
L 259.060125 203.98 
L 259.227525 207 
L 259.394925 200.96 
L 259.562325 210.02 
L 259.729725 210.02 
L 259.897125 213.04 
L 260.064525 213.04 
L 260.231925 210.02 
L 260.399325 200.96 
L 260.566725 222.1 
L 260.734125 216.06 
L 260.901525 219.08 
L 261.068925 210.02 
L 261.236325 210.02 
L 261.403725 219.08 
L 261.738525 210.02 
L 262.073325 222.1 
L 262.240725 219.08 
L 262.575525 207 
L 262.742925 213.04 
L 262.910325 207 
L 263.077725 213.04 
L 263.245125 225.12 
L 263.412525 210.02 
L 263.579925 207 
L 263.747325 216.06 
L 263.914725 216.06 
L 264.082125 213.04 
L 264.249525 213.04 
L 264.584325 207 
L 265.086525 222.1 
L 265.253925 219.08 
L 265.421325 213.04 
L 265.588725 216.06 
L 265.756125 203.98 
L 265.923525 203.98 
L 266.090925 219.08 
L 266.425725 203.98 
L 266.593125 216.06 
L 266.760525 210.02 
L 266.927925 210.02 
L 267.095325 203.98 
L 267.262725 216.06 
L 267.430125 219.08 
L 267.597525 225.12 
L 267.932325 216.06 
L 268.099725 213.04 
L 268.267125 203.98 
L 268.434525 219.08 
L 268.601925 213.04 
L 268.769325 216.06 
L 268.936725 213.04 
L 269.271525 222.1 
L 269.438925 210.02 
L 269.606325 213.04 
L 269.773725 210.02 
L 269.941125 203.98 
L 270.108525 219.08 
L 270.275925 207 
L 270.610725 213.04 
L 270.778125 213.04 
L 270.945525 210.02 
L 271.112925 213.04 
L 271.280325 207 
L 271.447725 219.08 
L 271.615125 219.08 
L 271.782525 210.02 
L 271.949925 207 
L 272.284725 222.1 
L 272.452125 210.02 
L 272.619525 216.06 
L 272.786925 213.04 
L 272.954325 200.96 
L 273.289125 222.1 
L 273.623925 210.02 
L 273.958725 210.02 
L 274.293525 200.96 
L 274.460925 207 
L 274.628325 203.98 
L 274.795725 207 
L 274.963125 207 
L 275.130525 200.96 
L 275.465325 216.06 
L 275.632725 203.98 
L 275.800125 203.98 
L 275.967525 213.04 
L 276.134925 207 
L 276.469725 207 
L 276.637125 200.96 
L 276.804525 219.08 
L 277.139325 207 
L 277.474125 213.04 
L 277.641525 219.08 
L 277.976325 213.04 
L 278.143725 207 
L 278.311125 207 
L 278.645925 216.06 
L 278.813325 203.98 
L 278.980725 210.02 
L 279.148125 210.02 
L 279.482925 203.98 
L 279.650325 210.02 
L 279.817725 210.02 
L 279.985125 213.04 
L 280.319925 203.98 
L 280.487325 200.96 
L 280.822125 216.06 
L 281.156925 207 
L 281.491725 216.06 
L 281.659125 207 
L 281.826525 213.04 
L 281.993925 210.02 
L 282.161325 200.96 
L 282.496125 213.04 
L 282.663525 207 
L 282.830925 213.04 
L 282.998325 213.04 
L 283.165725 207 
L 283.500525 216.06 
L 283.835325 216.06 
L 284.002725 207 
L 284.170125 213.04 
L 284.337525 210.02 
L 284.504925 216.06 
L 284.672325 213.04 
L 284.839725 216.06 
L 285.007125 210.02 
L 285.174525 213.04 
L 285.341925 213.04 
L 285.676725 207 
L 285.844125 210.02 
L 286.011525 207 
L 286.178925 200.96 
L 286.513725 207 
L 286.681125 203.98 
L 286.848525 207 
L 287.015925 207 
L 287.183325 219.08 
L 287.350725 200.96 
L 287.518125 203.98 
L 287.685525 203.98 
L 287.852925 207 
L 288.020325 200.96 
L 288.187725 213.04 
L 288.355125 203.98 
L 288.522525 200.96 
L 288.689925 203.98 
L 288.857325 200.96 
L 289.024725 203.98 
L 289.192125 200.96 
L 289.359525 203.98 
L 289.526925 200.96 
L 289.694325 207 
L 289.861725 200.96 
L 290.363925 200.96 
L 290.531325 203.98 
L 290.698725 203.98 
L 290.866125 200.96 
L 291.200925 200.96 
L 291.368325 203.98 
L 291.535725 200.96 
L 292.037925 200.96 
L 292.205325 203.98 
L 292.372725 200.96 
L 292.540125 200.96 
L 292.707525 203.98 
L 292.874925 203.98 
L 293.042325 200.96 
L 293.377125 200.96 
L 293.544525 203.98 
L 293.711925 200.96 
L 295.720725 200.96 
L 295.888125 203.98 
L 296.055525 200.96 
L 297.562125 200.96 
L 297.729525 203.98 
L 297.896925 200.96 
L 298.733925 200.96 
L 298.901325 203.98 
L 299.068725 200.96 
L 299.236125 200.96 
L 299.403525 203.98 
L 299.570925 200.96 
L 300.742725 200.96 
L 300.910125 207 
L 301.077525 203.98 
L 301.244925 210.02 
L 301.412325 200.96 
L 301.747125 210.02 
L 301.914525 203.98 
L 302.081925 203.98 
L 302.249325 200.96 
L 302.584125 207 
L 302.918925 200.96 
L 303.086325 203.98 
L 303.253725 200.96 
L 303.588525 200.96 
L 303.755925 203.98 
L 303.923325 200.96 
L 304.090725 203.98 
L 304.258125 200.96 
L 304.760325 200.96 
L 304.927725 207 
L 305.095125 200.96 
L 305.597325 200.96 
L 305.764725 207 
L 305.932125 200.96 
L 306.099525 203.98 
L 306.266925 203.98 
L 306.434325 200.96 
L 306.601725 203.98 
L 306.769125 200.96 
L 307.438725 200.96 
L 307.606125 203.98 
L 307.773525 200.96 
L 307.940925 203.98 
L 308.108325 200.96 
L 308.275725 200.96 
L 308.443125 203.98 
L 308.610525 203.98 
L 308.777925 200.96 
L 309.949725 200.96 
L 310.117125 203.98 
L 310.451925 203.98 
L 310.619325 200.96 
L 312.460725 200.96 
L 312.628125 203.98 
L 312.962925 203.98 
L 313.130325 200.96 
L 313.297725 200.96 
L 313.465125 203.98 
L 313.632525 200.96 
L 313.799925 203.98 
L 313.967325 203.98 
L 314.134725 200.96 
L 314.469525 200.96 
L 314.804325 207 
L 314.971725 200.96 
L 315.139125 203.98 
L 315.306525 200.96 
L 315.641325 200.96 
L 315.808725 203.98 
L 315.976125 203.98 
L 316.143525 200.96 
L 317.650125 200.96 
L 317.817525 203.98 
L 317.984925 203.98 
L 318.152325 200.96 
L 319.658925 200.96 
L 319.826325 203.98 
L 319.993725 200.96 
L 322.504725 200.96 
L 322.839525 207 
L 323.006925 200.96 
L 323.509125 200.96 
L 323.676525 207 
L 323.843925 200.96 
L 324.346125 200.96 
L 324.513525 207 
L 324.848325 200.96 
L 325.350525 200.96 
L 325.517925 203.98 
L 325.685325 200.96 
L 325.852725 207 
L 326.020125 200.96 
L 328.196325 200.96 
L 328.363725 203.98 
L 328.531125 200.96 
L 329.535525 200.96 
L 329.870325 207 
L 330.037725 200.96 
L 330.205125 200.96 
L 330.539925 207 
L 330.707325 200.96 
L 330.874725 200.96 
L 331.042125 203.98 
L 331.209525 200.96 
L 331.376925 200.96 
L 331.711725 207 
L 331.879125 200.96 
L 333.050925 200.96 
L 333.218325 203.98 
L 333.385725 200.96 
L 334.222725 200.96 
L 334.390125 203.98 
L 334.557525 203.98 
L 334.724925 200.96 
L 334.892325 200.96 
L 335.059725 203.98 
L 335.227125 203.98 
L 335.394525 200.96 
L 335.729325 200.96 
L 335.896725 203.98 
L 336.064125 200.96 
L 337.403325 200.96 
L 337.570725 207 
L 337.738125 200.96 
L 338.072925 200.96 
L 338.240325 203.98 
L 338.407725 200.96 
L 339.077325 200.96 
L 339.244725 203.98 
L 339.412125 200.96 
L 339.579525 203.98 
L 339.746925 200.96 
L 340.081725 200.96 
L 340.249125 203.98 
L 340.416525 203.98 
L 340.583925 207 
L 340.751325 203.98 
L 340.918725 203.98 
L 341.086125 200.96 
L 341.588325 200.96 
L 341.755725 203.98 
L 341.923125 200.96 
L 342.090525 200.96 
L 342.257925 203.98 
L 342.425325 200.96 
L 342.760125 200.96 
L 342.927525 203.98 
L 343.262325 203.98 
L 343.429725 200.96 
L 343.764525 200.96 
L 343.931925 203.98 
L 344.099325 203.98 
L 344.266725 200.96 
L 344.434125 200.96 
L 344.601525 203.98 
L 344.768925 200.96 
L 345.271125 200.96 
L 345.438525 203.98 
L 345.605925 213.04 
L 345.773325 203.98 
L 345.940725 203.98 
L 346.108125 200.96 
L 346.275525 200.96 
L 346.442925 207 
L 346.610325 200.96 
L 346.777725 200.96 
L 346.945125 203.98 
L 347.112525 200.96 
L 348.451725 200.96 
L 348.619125 207 
L 348.786525 200.96 
L 348.953925 200.96 
L 349.121325 203.98 
L 349.288725 203.98 
L 349.456125 200.96 
L 349.623525 200.96 
L 349.958325 207 
L 350.293125 200.96 
L 351.130125 200.96 
L 351.297525 203.98 
L 351.464925 200.96 
L 351.799725 200.96 
L 351.967125 207 
L 352.134525 200.96 
L 352.301925 200.96 
L 352.469325 203.98 
L 352.636725 200.96 
L 353.808525 200.96 
L 353.975925 203.98 
L 354.310725 203.98 
L 354.478125 200.96 
L 354.645525 203.98 
L 354.812925 200.96 
L 354.980325 207 
L 355.147725 200.96 
L 355.315125 200.96 
L 355.482525 207 
L 355.817325 200.96 
L 356.486925 200.96 
L 356.654325 203.98 
L 356.821725 203.98 
L 356.989125 200.96 
L 357.826125 200.96 
L 357.993525 203.98 
L 358.160925 200.96 
L 358.495725 200.96 
L 358.663125 207 
L 358.997925 200.96 
L 359.165325 203.98 
L 359.332725 200.96 
L 359.667525 200.96 
L 359.834925 203.98 
L 360.002325 200.96 
L 360.169725 203.98 
L 360.337125 200.96 
L 360.504525 207 
L 360.671925 200.96 
L 360.839325 200.96 
L 361.006725 203.98 
L 361.174125 200.96 
L 362.011125 200.96 
L 362.178525 207 
L 362.345925 200.96 
L 362.513325 203.98 
L 362.680725 203.98 
L 362.848125 200.96 
L 363.182925 200.96 
L 363.350325 207 
L 363.517725 200.96 
L 364.019925 200.96 
L 364.187325 203.98 
L 364.354725 200.96 
L 364.522125 200.96 
L 364.689525 203.98 
L 364.856925 200.96 
L 365.024325 203.98 
L 365.191725 200.96 
L 365.526525 200.96 
L 365.693925 203.98 
L 365.861325 200.96 
L 366.530925 200.96 
L 366.698325 203.98 
L 366.865725 200.96 
L 367.535325 200.96 
L 367.702725 203.98 
L 367.870125 200.96 
L 368.372325 200.96 
L 368.539725 203.98 
L 368.707125 200.96 
L 369.711525 200.96 
L 369.878925 203.98 
L 370.046325 200.96 
L 370.213725 203.98 
L 370.381125 200.96 
L 370.715925 200.96 
L 370.883325 203.98 
L 371.050725 200.96 
L 371.218125 200.96 
L 371.385525 203.98 
L 371.552925 200.96 
L 371.887725 200.96 
L 372.055125 203.98 
L 372.222525 200.96 
L 372.389925 203.98 
L 372.557325 200.96 
L 372.724725 203.98 
L 372.892125 200.96 
L 373.394325 200.96 
L 373.561725 203.98 
L 373.729125 200.96 
L 373.896525 203.98 
L 374.063925 200.96 
L 374.231325 200.96 
L 374.398725 203.98 
L 374.566125 200.96 
L 375.403125 200.96 
L 375.403125 200.96 
" style="fill:none;stroke:#ff7f0e;stroke-linecap:square;stroke-width:1.5;"/>
   </g>
   <g id="patch_3">
    <path d="M 40.603125 228.14 
L 40.603125 10.7 
" style="fill:none;stroke:#000000;stroke-linecap:square;stroke-linejoin:miter;stroke-width:0.8;"/>
   </g>
   <g id="patch_4">
    <path d="M 375.403125 228.14 
L 375.403125 10.7 
" style="fill:none;stroke:#000000;stroke-linecap:square;stroke-linejoin:miter;stroke-width:0.8;"/>
   </g>
   <g id="patch_5">
    <path d="M 40.603125 228.14 
L 375.403125 228.14 
" style="fill:none;stroke:#000000;stroke-linecap:square;stroke-linejoin:miter;stroke-width:0.8;"/>
   </g>
   <g id="patch_6">
    <path d="M 40.603125 10.7 
L 375.403125 10.7 
" style="fill:none;stroke:#000000;stroke-linecap:square;stroke-linejoin:miter;stroke-width:0.8;"/>
   </g>
   <g id="legend_1">
    <g id="patch_7">
     <path d="M 149.299219 33.65625 
L 266.707031 33.65625 
Q 268.707031 33.65625 268.707031 31.65625 
L 268.707031 17.7 
Q 268.707031 15.7 266.707031 15.7 
L 149.299219 15.7 
Q 147.299219 15.7 147.299219 17.7 
L 147.299219 31.65625 
Q 147.299219 33.65625 149.299219 33.65625 
z
" style="fill:#ffffff;opacity:0.8;stroke:#cccccc;stroke-linejoin:miter;"/>
    </g>
    <g id="line2d_17">
     <path d="M 151.299219 23.798437 
L 171.299219 23.798437 
" style="fill:none;stroke:#1f77b4;stroke-linecap:square;stroke-width:1.5;"/>
    </g>
    <g id="line2d_18"/>
    <g id="text_17">
     <!-- Ap -->
     <defs>
      <path d="M 34.1875 63.1875 
L 20.796875 26.90625 
L 47.609375 26.90625 
z
M 28.609375 72.90625 
L 39.796875 72.90625 
L 67.578125 0 
L 57.328125 0 
L 50.6875 18.703125 
L 17.828125 18.703125 
L 11.1875 0 
L 0.78125 0 
z
" id="DejaVuSans-65"/>
      <path d="M 18.109375 8.203125 
L 18.109375 -20.796875 
L 9.078125 -20.796875 
L 9.078125 54.6875 
L 18.109375 54.6875 
L 18.109375 46.390625 
Q 20.953125 51.265625 25.265625 53.625 
Q 29.59375 56 35.59375 56 
Q 45.5625 56 51.78125 48.09375 
Q 58.015625 40.1875 58.015625 27.296875 
Q 58.015625 14.40625 51.78125 6.484375 
Q 45.5625 -1.421875 35.59375 -1.421875 
Q 29.59375 -1.421875 25.265625 0.953125 
Q 20.953125 3.328125 18.109375 8.203125 
z
M 48.6875 27.296875 
Q 48.6875 37.203125 44.609375 42.84375 
Q 40.53125 48.484375 33.40625 48.484375 
Q 26.265625 48.484375 22.1875 42.84375 
Q 18.109375 37.203125 18.109375 27.296875 
Q 18.109375 17.390625 22.1875 11.75 
Q 26.265625 6.109375 33.40625 6.109375 
Q 40.53125 6.109375 44.609375 11.75 
Q 48.6875 17.390625 48.6875 27.296875 
z
" id="DejaVuSans-112"/>
     </defs>
     <g transform="translate(179.299219 27.298437)scale(0.1 -0.1)">
      <use xlink:href="#DejaVuSans-65"/>
      <use x="68.408203" xlink:href="#DejaVuSans-112"/>
     </g>
    </g>
    <g id="line2d_19">
     <path d="M 212.488281 23.798437 
L 232.488281 23.798437 
" style="fill:none;stroke:#ff7f0e;stroke-linecap:square;stroke-width:1.5;"/>
    </g>
    <g id="line2d_20"/>
    <g id="text_18">
     <!-- Ap_P -->
     <defs>
      <path d="M 50.984375 -16.609375 
L 50.984375 -23.578125 
L -0.984375 -23.578125 
L -0.984375 -16.609375 
z
" id="DejaVuSans-95"/>
      <path d="M 19.671875 64.796875 
L 19.671875 37.40625 
L 32.078125 37.40625 
Q 38.96875 37.40625 42.71875 40.96875 
Q 46.484375 44.53125 46.484375 51.125 
Q 46.484375 57.671875 42.71875 61.234375 
Q 38.96875 64.796875 32.078125 64.796875 
z
M 9.8125 72.90625 
L 32.078125 72.90625 
Q 44.34375 72.90625 50.609375 67.359375 
Q 56.890625 61.8125 56.890625 51.125 
Q 56.890625 40.328125 50.609375 34.8125 
Q 44.34375 29.296875 32.078125 29.296875 
L 19.671875 29.296875 
L 19.671875 0 
L 9.8125 0 
z
" id="DejaVuSans-80"/>
     </defs>
     <g transform="translate(240.488281 27.298437)scale(0.1 -0.1)">
      <use xlink:href="#DejaVuSans-65"/>
      <use x="68.408203" xlink:href="#DejaVuSans-112"/>
      <use x="131.884766" xlink:href="#DejaVuSans-95"/>
      <use x="181.884766" xlink:href="#DejaVuSans-80"/>
     </g>
    </g>
   </g>
  </g>
 </g>
 <defs>
  <clipPath id="p54d437de6e">
   <rect height="217.44" width="334.8" x="40.603125" y="10.7"/>
  </clipPath>
 </defs>
</svg>
